<svg width="619" height="432" viewBox="0 0 619 432" fill="none" xmlns="http://www.w3.org/2000/svg">
<path d="M10.8127 357.442C90.056 357.442 169.254 357.442 248.497 357.442C327.336 357.442 406.174 357.442 484.968 357.442C529.447 357.442 573.88 357.442 618.359 357.442C619.214 357.442 619.214 355.753 618.359 355.753C539.116 355.753 459.918 355.753 380.674 355.753C301.836 355.753 222.997 355.753 144.204 355.753C99.7253 355.753 55.2915 355.753 10.8127 355.753C9.95825 355.753 9.95825 357.442 10.8127 357.442Z" fill="black"/>
<path d="M193.329 355.078C188.338 352.432 184.082 348.209 181.244 342.748C179.922 340.214 178.797 337.343 178.21 334.471C177.672 331.6 178.65 328.672 181.586 329.123C183.494 329.404 185.011 330.868 186.381 332.219C186.675 331.769 186.968 331.318 187.262 330.868C184.082 328.503 181.586 325.238 180.069 321.24C179.042 318.481 176.644 309.755 180.754 308.91C181.244 308.798 181.39 308.122 181.195 307.672C177.28 298.382 176.351 288.022 175.519 277.888C175.127 273.046 174.736 267.19 178.014 263.475C181.88 258.97 187.213 262.123 190.442 265.952C196.461 273.102 199.592 283.293 202.773 292.357C206.1 301.872 208.987 311.556 211.091 321.465C213.488 332.951 214.761 344.718 214.222 356.485C214.173 357.555 215.641 357.555 215.69 356.485C216.767 332.388 210.455 309.023 202.479 287.065C199.201 278.057 195.482 266.459 187.751 261.279C184.767 259.308 181.146 258.745 178.21 261.11C175.225 263.531 174.1 267.81 173.904 271.807C173.659 277.944 174.589 284.419 175.421 290.443C176.253 296.693 177.623 302.83 180.02 308.516C180.167 308.122 180.314 307.672 180.461 307.277C176.155 308.178 177.036 315.329 177.867 318.763C179.189 324.393 182.369 329.179 186.626 332.332C187.311 332.838 188.143 331.6 187.507 330.98C185.158 328.728 182.173 326.195 178.993 327.828C175.617 329.573 176.546 334.077 177.525 337.286C180.069 345.788 185.647 352.769 192.693 356.485C193.427 356.992 194.21 355.528 193.329 355.078Z" fill="black"/>
<path d="M208.938 306.095C207.372 292.639 207.861 279.464 211.531 266.515C213.293 260.265 215.152 254.072 216.962 247.879C218.43 242.868 221.024 233.578 227.238 237.914C231.69 241.01 232.522 249.23 233.55 254.579C234.822 261.11 235.703 267.697 236.241 274.397C237.268 287.009 237.122 299.789 235.947 312.401C234.577 327.265 231.886 341.96 228.216 356.26C227.972 357.33 229.342 357.724 229.635 356.711C236.73 328.954 240.302 299.62 237.366 270.794C236.681 263.813 235.605 256.887 234.137 250.131C233.012 245.064 231.837 238.702 227.385 236.112C223.715 234.029 220.192 236.056 218.235 239.884C217.109 242.08 216.473 244.614 215.739 246.978C214.663 250.694 213.586 254.354 212.51 258.07C210.357 265.502 208.057 272.821 207.176 280.647C206.247 289.092 206.54 297.65 207.519 306.095C207.568 307.165 209.036 307.165 208.938 306.095Z" fill="black"/>
<path d="M179.531 262.405C193.623 291.288 204.73 322.705 207.274 356.035C207.372 357.105 208.84 357.105 208.742 356.035C206.149 322.423 195.042 290.781 180.803 261.561C180.363 260.604 179.091 261.448 179.531 262.405Z" fill="black"/>
<path d="M224.449 237.126C225.623 246.978 225.183 256.944 224.84 266.853C224.498 276.593 224.155 286.333 223.813 296.13C223.128 315.948 222.687 335.935 219.507 355.472C219.36 356.542 220.73 356.992 220.926 355.922C224.106 336.217 224.596 316.117 225.281 296.13C225.623 285.996 226.015 275.861 226.357 265.783C226.7 256.099 227.042 246.359 225.868 236.731C225.77 235.605 224.351 236.112 224.449 237.126Z" fill="black"/>
<path d="M210.406 265.558C216.62 275.185 221.073 286.108 223.421 297.763C223.617 298.832 225.036 298.382 224.84 297.312C222.443 285.489 217.99 274.397 211.678 264.657C211.14 263.812 209.868 264.657 210.406 265.558Z" fill="black"/>
<path d="M233.746 253.847C229.782 262.124 226.651 270.851 224.351 279.971C224.106 281.041 225.525 281.492 225.77 280.422C228.021 271.47 231.152 262.856 235.018 254.692C235.458 253.791 234.186 252.89 233.746 253.847Z" fill="black"/>
<path d="M180.608 308.741C190.932 313.583 199.495 322.423 204.926 333.627C205.366 334.584 206.638 333.739 206.198 332.782C200.571 321.184 191.666 312.176 180.999 307.165C180.118 306.658 179.776 308.291 180.608 308.741Z" fill="black"/>
<path d="M194.406 270.738C193.525 280.365 193.916 289.993 195.482 299.508C195.678 300.578 197.097 300.127 196.901 299.058C195.384 289.712 195.042 280.197 195.874 270.738C195.972 269.668 194.504 269.668 194.406 270.738Z" fill="black"/>
<path d="M19.8722 355.416C18.7468 351.643 17.9149 347.702 17.5235 343.705C17.3767 342.016 17.2789 340.327 17.2789 338.581C17.2789 337.68 17.1321 336.385 17.3278 335.541C17.3278 335.203 17.3767 334.865 17.3767 334.528C18.3064 333.739 19.0893 333.852 19.7254 334.809C20.1657 335.259 21.0465 334.978 20.9975 334.19C20.8507 331.881 20.8508 329.573 21.0954 327.265C21.2422 326.139 21.389 325.013 21.6336 323.943C21.7315 323.549 22.9058 319.72 23.0037 319.889C23.3462 320.452 24.178 320.452 24.3248 319.664C26.4288 309.698 30.1964 300.409 34.7958 291.682C35.9701 289.43 37.2423 287.178 38.5145 284.982C39.9335 282.561 42.2821 278.732 44.435 282.955C46.6369 287.234 47.273 293.483 47.4687 298.382C47.958 308.741 45.9029 319.045 43.0161 328.785C40.227 338.3 36.753 347.815 30.7835 355.303C30.1475 356.091 31.175 357.273 31.8111 356.485C36.9977 350.011 40.276 342.072 42.9671 333.908C45.8051 325.181 48.1048 316.117 48.7898 306.827C49.1323 302.323 49.0834 297.762 48.4962 293.258C48.0069 289.373 47.273 284.419 45.169 281.153C40.8142 274.51 35.7744 286.615 33.964 289.993C29.071 299.114 25.1077 308.798 22.9058 319.213C23.3462 319.157 23.7866 319.101 24.2269 318.988C23.0037 317.13 21.4868 318.988 20.9486 320.565C19.4318 324.787 19.1382 329.686 19.4807 334.133C19.9211 333.908 20.3125 333.739 20.7529 333.514C19.8232 332.557 18.3064 331.318 16.9853 332.05C15.6152 332.838 15.811 334.978 15.811 336.442C15.6642 343.029 16.5938 349.504 18.4532 355.753C18.7468 356.879 20.1657 356.429 19.8722 355.416Z" fill="black"/>
<path d="M42.4779 281.041C40.8143 294.328 38.0253 307.39 34.062 320.002C30.3922 331.825 24.227 343.255 22.857 355.866C22.7591 356.936 24.227 356.936 24.3249 355.866C25.0588 349.166 27.3096 342.973 29.6583 336.893C31.8601 331.15 33.9641 325.351 35.7745 319.439C39.5421 307.109 42.2333 294.385 43.848 281.435C43.9948 280.422 42.5758 279.971 42.4779 281.041Z" fill="black"/>
<path d="M28.9734 301.141C29.5116 310.093 30.2945 318.989 31.322 327.884C31.4688 328.954 32.8388 328.504 32.741 327.434C31.7134 318.707 30.9306 309.924 30.4413 301.141C30.3923 300.071 28.9244 300.015 28.9734 301.141Z" fill="black"/>
<path d="M38.1233 311.219C42.0377 306.771 45.4139 301.76 48.2518 296.355C48.7411 295.398 47.469 294.554 46.9796 295.511C44.1906 300.803 40.9123 305.645 37.0958 310.037C36.4108 310.769 37.4383 311.951 38.1233 311.219Z" fill="black"/>
<path d="M14.4411 354.571C11.0649 348.997 8.22697 343.029 6.07405 336.667C5.09545 333.796 4.26364 330.812 3.57862 327.828C3.23611 326.251 2.8936 324.675 2.60002 323.042C2.4043 322.085 1.13212 315.836 2.8936 316.23C3.48076 316.342 3.92113 315.836 3.77434 315.216C2.55109 307.447 1.76821 299.621 1.52356 291.738C1.4257 288.135 1.37677 284.419 2.06179 280.928C2.4043 279.239 2.8936 277.269 3.8722 275.861C6.12298 272.708 8.47163 275.298 9.93953 277.663C16.9855 289.036 21.487 302.717 23.6399 316.399C23.7867 317.468 25.2057 317.018 25.0589 315.948C23.6889 307.447 21.4381 299.227 18.3555 291.401C16.7408 287.347 14.9304 283.462 12.8753 279.746C11.5053 277.269 9.74381 273.384 6.95479 272.708C0.838538 271.245 0.0556585 283.518 0.00672846 287.854C-0.0911316 297.2 0.887471 306.602 2.35537 315.779C2.64895 315.442 2.94253 315.104 3.23611 314.766C-2.63549 313.584 2.20858 329.067 2.94253 331.713C5.24224 340.214 8.71628 348.265 13.12 355.585C13.7071 356.317 14.9793 355.472 14.4411 354.571Z" fill="black"/>
<path d="M4.80196 274.454C10.2821 293.991 14.9305 313.865 18.747 333.909C18.9427 334.978 20.3617 334.528 20.166 333.458C16.3495 313.415 11.7011 293.54 6.22093 274.003C5.92735 272.99 4.50838 273.44 4.80196 274.454Z" fill="black"/>
<path d="M1.2301 300.577C7.05278 303.449 11.799 308.347 14.8327 314.709C15.273 315.666 16.5452 314.822 16.1048 313.865C12.9244 307.221 8.03138 302.098 1.96405 299.114C1.08331 298.719 0.34936 300.183 1.2301 300.577Z" fill="black"/>
<path d="M14.8816 286.221C13.6094 291.795 12.8265 297.425 12.5329 303.168C12.484 304.238 13.9519 304.238 14.0008 303.168C14.2455 297.594 15.0284 292.076 16.3005 286.671C16.5452 285.602 15.1262 285.151 14.8816 286.221Z" fill="black"/>
<path d="M174.589 379.062C177.819 376.698 181.684 375.966 185.354 377.261C188.534 378.387 191.176 379.907 194.602 379.738C197.782 379.569 200.865 378.612 204.045 378.387C205.758 378.274 207.47 378.33 209.134 379.006C210.797 379.682 211.972 380.695 213.733 380.808C214.663 380.864 214.663 379.175 213.733 379.119C211.727 379.006 210.015 377.373 208.057 376.923C206.492 376.585 204.877 376.585 203.262 376.754C199.837 377.148 196.461 378.274 193.036 378.049C189.464 377.824 186.43 375.346 182.907 374.952C179.678 374.615 176.546 375.628 173.855 377.599C173.072 378.162 173.806 379.625 174.589 379.062Z" fill="black"/>
<path d="M298.969 374.277C303.862 374.108 308.755 373.883 313.599 373.714C315.997 373.601 318.492 373.32 320.89 373.545C322.896 373.714 324.413 375.009 326.272 375.515C327.789 375.91 329.257 375.628 330.774 375.234C333.367 374.558 335.911 373.939 338.602 373.826C343.251 373.545 347.899 374.164 352.499 374.783C353.428 374.896 353.428 373.207 352.499 373.094C347.899 372.475 343.251 371.856 338.602 372.137C336.401 372.25 334.199 372.588 332.046 373.151C329.453 373.826 327.446 374.333 324.951 373.038C321.33 371.236 317.514 371.856 313.697 372.025C308.804 372.194 303.911 372.419 299.067 372.588C298.04 372.644 298.039 374.333 298.969 374.277Z" fill="black"/>
<path d="M474.824 430.973C479.766 431.817 484.61 430.747 489.454 429.678C492.439 429.002 495.423 428.326 498.506 428.214C501.54 428.101 504.378 428.889 507.313 429.678C509.858 430.353 512.304 430.635 514.898 430.297C517.491 429.903 519.986 429.115 522.58 428.777C528.206 427.989 533.491 431.141 539.118 430.747C540.048 430.691 540.048 429.002 539.118 429.058C533.882 429.396 528.989 426.581 523.754 426.919C521.258 427.088 518.861 427.82 516.365 428.326C513.038 429.002 510.102 428.721 506.824 427.82C501.931 426.412 497.381 426.3 492.39 427.313C486.665 428.439 480.989 430.297 475.166 429.34C474.286 429.171 473.894 430.804 474.824 430.973Z" fill="black"/>
<path d="M205.758 419.825C246.125 419.825 286.541 419.825 326.908 419.825C327.838 419.825 327.838 418.136 326.908 418.136C286.541 418.136 246.125 418.136 205.758 418.136C204.828 418.136 204.828 419.825 205.758 419.825Z" fill="#161616"/>
<path d="M318.443 429.002C339.19 429.002 359.887 429.002 380.634 429.002C381.563 429.002 381.563 427.313 380.634 427.313C359.887 427.313 339.19 427.313 318.443 427.313C317.465 427.313 317.465 429.002 318.443 429.002Z" fill="#161616"/>
<path d="M476.243 402.09C498.017 402.09 519.84 402.09 541.613 402.09C542.543 402.09 542.543 400.401 541.613 400.401C519.84 400.401 498.017 400.401 476.243 400.401C475.313 400.401 475.313 402.09 476.243 402.09Z" fill="#161616"/>
<path d="M566.568 404.567C579.485 404.567 592.452 404.567 605.369 404.567C606.299 404.567 606.299 402.878 605.369 402.878C592.452 402.878 579.485 402.878 566.568 402.878C565.638 402.878 565.638 404.567 566.568 404.567Z" fill="#161616"/>
<path d="M34.6492 387.451C57.6952 387.451 80.6923 387.451 103.738 387.451C104.668 387.451 104.668 385.762 103.738 385.762C80.6923 385.762 57.6952 385.762 34.6492 385.762C33.7195 385.762 33.7195 387.451 34.6492 387.451Z" fill="#161616"/>
<path d="M100.558 381.315C113.329 381.315 126.051 381.315 138.821 381.315C139.751 381.315 139.751 379.625 138.821 379.625C126.051 379.625 113.329 379.625 100.558 379.625C99.6284 379.625 99.6284 381.315 100.558 381.315Z" fill="#161616"/>
<path d="M320.107 395.052C336.841 395.052 353.526 395.052 370.26 395.052C371.19 395.052 371.19 393.363 370.26 393.363C353.526 393.363 336.841 393.363 320.107 393.363C319.128 393.363 319.128 395.052 320.107 395.052Z" fill="#161616"/>
<path d="M535.791 103.24C535.987 98.9049 543.13 103.24 545.136 102.846C547.779 102.339 548.366 98.9612 551.4 99.6931C553.259 100.144 555.02 101.157 556.978 100.932C558.25 100.763 559.179 99.9183 560.403 99.5242C562.311 98.9049 564.219 99.5805 565.638 101.157C566.323 101.889 567.351 100.707 566.666 99.9746C564.513 97.6099 561.822 97.1032 559.082 98.2855C556.782 99.299 555.412 99.1864 553.112 98.3982C551.987 98.004 550.812 97.6099 549.638 97.7788C548.268 98.0041 547.73 98.7923 546.8 99.7494C544.011 102.508 542.005 99.9746 539.069 99.4679C536.818 99.0738 534.519 100.369 534.372 103.24C534.274 104.366 535.742 104.366 535.791 103.24Z" fill="#122E4F"/>
<path d="M544.158 94.682C544.549 90.9661 550.225 94.119 551.889 94.2879C554.14 94.5131 554.678 93.0493 556.292 91.698C559.277 89.1644 561.43 92.3736 564.415 92.2047C565.247 92.1484 565.687 91.5854 566.372 91.135C568.28 89.8964 570.14 89.6149 571.852 91.4728C572.537 92.2047 573.565 91.0224 572.88 90.2905C570.874 88.151 568.476 87.9821 566.078 89.2207C565.002 89.7838 565.638 90.4031 563.779 90.4031C562.849 90.4031 561.675 89.5586 560.745 89.2771C559.424 88.8829 558.054 88.6577 556.733 89.2771C554.58 90.2905 554.482 92.7678 551.448 92.4862C549.932 92.3736 548.61 91.3039 547.045 91.1913C544.941 91.0224 542.886 92.0358 542.592 94.6257C542.543 95.7518 544.011 95.7518 544.158 94.682Z" fill="#122E4F"/>
<path d="M79.9095 298.326C81.9157 296.637 83.6282 295.848 85.9769 297.143C86.9065 297.65 87.7873 298.213 88.8148 298.438C90.9677 298.832 92.9249 297.594 94.8332 296.637C96.5947 295.736 98.0626 295.229 99.9219 296.355C100.949 296.974 101.781 297.819 102.956 298.044C105.304 298.551 108.778 295.961 110.638 298.044C111.323 298.776 112.35 297.594 111.665 296.862C109.855 294.835 107.653 295.792 105.402 296.243C103.885 296.524 102.907 296.468 101.537 295.567C100.901 295.116 100.313 294.553 99.5794 294.272C98.6008 293.878 97.6222 293.822 96.5947 294.047C95.2736 294.385 94.0503 295.173 92.7781 295.792C90.4784 296.918 88.9616 296.862 86.613 295.68C83.6282 294.103 81.72 294.61 79.0288 296.862C78.4416 297.481 79.1756 298.945 79.9095 298.326Z" fill="#122E4F"/>
<path d="M94.0501 289.599C97.3773 285.32 103.053 290.275 107.163 289.261C108.68 288.867 109.659 288.304 111.225 288.923C112.154 289.318 112.937 290.049 113.867 290.444C115.677 291.176 117.39 290.838 119.053 289.937C119.885 289.486 119.151 288.023 118.319 288.473C114.894 290.387 113.377 287.403 110.393 286.84C109.463 286.671 108.729 286.953 107.848 287.291C106.185 287.854 104.913 287.91 103.151 287.46C99.726 286.615 95.7137 284.926 92.9247 288.473C92.3865 289.205 93.414 290.387 94.0501 289.599Z" fill="#122E4F"/>
<path d="M199.446 58.4238C195.629 55.102 198.173 47.6701 203.066 48.9088C205.073 49.4155 206.785 51.2734 206.785 53.7507C206.785 56.6784 204.632 59.2683 202.137 59.4372C201.207 59.4935 201.207 61.1826 202.137 61.1263C205.268 60.9574 207.911 58.086 208.253 54.4826C208.547 50.9919 206.345 48.0642 203.458 47.3323C196.852 45.5869 193.672 55.5524 198.712 59.9439C199.446 60.5632 200.18 59.0994 199.446 58.4238Z" fill="#122E4F"/>
<path d="M51.2853 238.758C48.8388 235.662 51.1385 230.144 54.9061 231.326C59.4566 232.734 58.2823 240.109 53.7318 240.053C52.8021 240.053 52.8021 241.742 53.7318 241.742C56.4719 241.742 58.9673 239.377 59.3588 236.225C59.7502 233.297 58.0376 230.763 55.689 229.806C50.3556 227.667 46.637 235.38 50.2578 239.94C50.8939 240.729 51.9214 239.546 51.2853 238.758Z" fill="#122E4F"/>
<path d="M303.618 221.136C301.807 222.656 300.437 224.683 299.85 227.16C299.165 230.088 300.926 234.198 299.214 236.394C298.137 237.801 296.278 238.758 295.789 240.673C295.593 241.348 295.642 241.968 295.838 242.643C296.082 243.6 296.425 243.769 296.425 244.783C296.425 246.472 295.153 247.204 293.929 247.936C293.098 248.442 293.832 249.906 294.663 249.4C296.229 248.442 298.235 246.866 298.088 244.558C297.991 243.094 296.767 242.193 297.452 240.616C297.893 239.659 299.018 238.927 299.654 238.195C300.877 236.9 301.709 235.549 301.514 233.579C301.269 231.439 300.731 229.806 301.22 227.611C301.709 225.528 302.786 223.838 304.303 222.6C305.085 221.981 304.351 220.517 303.618 221.136Z" fill="#122E4F"/>
<path d="M310.81 226.766C306.651 226.316 306.162 232.227 306.358 235.662C306.456 237.576 306.554 239.49 305.526 241.067C304.988 241.855 304.205 242.474 303.862 243.431C303.569 244.276 303.764 244.952 303.911 245.852C304.352 248.611 303.031 250.413 301.416 252.214C300.731 253.003 301.758 254.185 302.443 253.397C303.716 251.933 305.183 250.244 305.526 248.104C305.673 247.091 305.33 246.303 305.33 245.346C305.33 243.6 306.26 242.981 306.945 241.742C308.021 239.941 307.972 237.745 307.826 235.662C307.679 233.241 307.532 228.117 310.81 228.455C311.789 228.568 311.74 226.879 310.81 226.766Z" fill="#122E4F"/>
<path d="M315.263 18.5617C315.459 14.6769 321.135 16.1407 323.239 14.8458C324.755 13.8886 325.636 12.1433 326.468 10.5105C326.957 9.55339 327.398 8.48365 328.034 7.63913C329.306 5.95007 330.774 6.17528 332.535 6.00637C334.835 5.78117 336.694 4.48621 338.113 2.40304C338.7 1.55851 337.673 0.376188 337.086 1.22072C335.716 3.24758 334.003 4.2047 331.801 4.37361C330.725 4.42991 329.697 4.37361 328.67 4.93663C326.81 6.00636 325.93 8.31474 324.951 10.2853C324.168 11.8055 323.434 13.0441 321.966 13.6634C320.547 14.2827 318.933 13.9449 317.465 14.339C315.508 14.8458 313.991 16.2533 313.844 18.618C313.746 19.6314 315.214 19.6314 315.263 18.5617Z" fill="#122E4F"/>
<path d="M319.569 25.5995C321.037 22.8407 324.021 22.1651 326.37 20.8138C328.474 19.6315 329.55 18.1113 330.187 15.5215C331.116 11.524 333.807 12.0307 336.792 11.524C338.603 11.1862 340.07 10.5106 340.804 8.42742C341.147 7.41399 339.728 6.96358 339.385 7.97701C338.456 10.5106 334.786 9.89127 332.829 10.398C330.823 10.8484 329.453 11.9181 328.865 14.2265C328.327 16.3097 328.132 17.6046 326.468 18.787C325.44 19.5189 324.266 20.0256 323.141 20.5886C321.183 21.5458 319.373 22.6155 318.248 24.755C317.807 25.6558 319.079 26.5003 319.569 25.5995Z" fill="#122E4F"/>
<path d="M540.097 283.913C538.922 279.746 542.641 275.467 546.164 278.001C550.029 280.76 547.876 287.065 543.571 286.953C542.641 286.897 542.641 288.586 543.571 288.642C549.051 288.867 551.938 280.816 547.338 276.931C542.837 273.103 537.063 278.508 538.678 284.419C538.971 285.433 540.39 284.982 540.097 283.913Z" fill="#122E4F"/>
<path d="M309.587 339.482C308.217 336.554 309.685 332.276 312.963 332.839C314.284 333.064 315.557 334.19 315.557 335.879C315.557 337.512 314.431 339.144 312.963 339.201C312.034 339.257 312.034 340.946 312.963 340.89C317.563 340.664 318.395 333.176 314.089 331.431C309.343 329.573 306.211 335.766 308.315 340.327C308.804 341.284 310.077 340.439 309.587 339.482Z" fill="#122E4F"/>
<path d="M517.54 8.93409C516.121 7.13244 518.176 4.59885 519.937 5.78119C522.139 7.30134 520.818 10.3979 518.763 11.0173C517.833 11.2988 518.225 12.9315 519.154 12.65C522.726 11.6366 523.95 5.8375 520.133 4.03585C516.904 2.5157 514.164 7.18874 516.463 10.1164C517.148 10.961 518.176 9.77862 517.54 8.93409Z" fill="#122E4F"/>
<path d="M14.392 66.4181C11.5541 64.7291 13.2666 59.5493 16.4471 60.619C20.1658 61.8577 18.8936 67.3753 15.6153 68.1635C14.6856 68.3887 15.077 70.0214 16.0067 69.7962C20.8997 68.5576 21.8294 60.2249 16.4471 58.8737C11.7987 57.6913 9.45008 65.3484 13.6091 67.8257C14.4899 68.3887 15.2238 66.9248 14.392 66.4181Z" fill="#122E4F"/>
<path d="M3.52981 105.323C3.43195 128.069 3.38302 150.871 3.28516 173.617C93.1207 173.223 182.956 172.829 272.792 172.491C272.547 150.083 272.254 127.675 272.009 105.267C182.516 105.267 93.0229 105.323 3.52981 105.323Z" fill="#4072AF"/>
<path d="M1.52344 105.155C1.52344 127.225 1.52344 149.239 1.52344 171.309C1.52344 173.505 4.45924 173.505 4.45924 171.309C4.45924 149.239 4.45924 127.225 4.45924 105.155C4.45924 102.959 1.52344 102.959 1.52344 105.155Z" fill="#161616"/>
<path d="M4.36236 106.055C39.2495 106.055 74.1366 106.055 109.024 106.055C144.058 106.055 179.14 106.055 214.174 106.055C233.893 106.055 253.612 106.055 273.38 106.055C275.288 106.055 275.288 102.677 273.38 102.677C238.493 102.677 203.605 102.677 168.718 102.677C133.684 102.677 98.6016 102.677 63.5677 102.677C43.8489 102.677 24.1301 102.677 4.36236 102.677C2.45408 102.677 2.45408 106.055 4.36236 106.055Z" fill="#161616"/>
<path d="M271.764 104.309C272.009 127.28 272.253 150.308 272.498 173.279C272.498 175.475 275.434 175.475 275.434 173.279C275.189 150.308 274.945 127.28 274.7 104.309C274.7 102.17 271.764 102.17 271.764 104.309Z" fill="#161616"/>
<path d="M2.99151 174.574C38.2701 174.574 73.4997 174.574 108.778 174.574C144.057 174.574 179.286 174.574 214.565 174.574C234.382 174.574 254.198 174.574 274.064 174.574C275.972 174.574 275.972 171.196 274.064 171.196C238.785 171.196 203.556 171.196 168.277 171.196C132.999 171.196 97.769 171.196 62.4904 171.196C42.6738 171.196 22.8571 171.196 2.99151 171.196C1.08323 171.196 1.08323 174.574 2.99151 174.574Z" fill="#161616"/>
<path d="M341.783 112.642C340.217 114.105 338.211 116.301 336.352 119.342C334.737 121.988 333.71 124.521 333.073 126.492C334.541 127.28 337.673 129.251 338.309 132.741C339.043 136.57 336.303 140.061 332.682 144.565C330.284 147.492 326.615 151.434 321.232 155.037C320.303 155.037 318.443 154.924 316.388 153.686C313.942 152.166 312.767 149.913 312.327 149.013C310.272 149.688 307.63 150.814 304.743 152.785C302.052 154.643 299.997 156.67 298.529 158.359C299.214 160.16 301.269 165.115 305.917 167.254C307.728 168.099 310.027 168.549 314.284 167.705C318.59 166.86 324.413 164.833 331.312 159.428C341.147 151.715 346.04 142.707 347.41 140.004C350.835 133.304 353.282 128.519 351.863 123.057C350.052 116.245 343.3 113.261 341.783 112.642Z" fill="#161616"/>
<path d="M312.425 137.077C315.067 132.798 318.688 129.589 322.896 127.675C323.777 127.28 323.385 125.648 322.505 126.042C317.905 128.125 314.04 131.559 311.153 136.232C310.566 137.133 311.838 137.978 312.425 137.077Z" fill="#161616"/>
<path d="M304.352 138.09C308.315 128.125 315.997 120.806 325.294 118.159C326.223 117.878 325.832 116.245 324.902 116.527C315.312 119.229 307.239 126.886 303.08 137.189C302.688 138.259 303.911 139.104 304.352 138.09Z" fill="#161616"/>
<path d="M297.55 139.892C298.676 132.122 302.345 125.31 307.581 120.186C312.572 115.288 320.254 109.996 327.055 111.009C327.985 111.122 327.985 109.433 327.055 109.32C320.107 108.306 312.376 113.543 307.141 118.385C301.465 123.677 297.354 131.052 296.131 139.385C295.984 140.511 297.403 140.962 297.55 139.892Z" fill="#161616"/>
<path d="M381.074 391.168C381.27 398.487 381.416 405.806 381.612 413.125C361.404 419.994 351.471 424.498 351.814 426.638C352.254 429.34 368.45 428.439 400.401 423.935C399.716 411.436 399.031 398.881 398.297 386.382C392.572 387.958 386.848 389.535 381.074 391.168Z" fill="#161616" stroke="#161616" stroke-width="2" stroke-miterlimit="10"/>
<path d="M445.026 246.866C442.09 247.88 442.726 248.274 426.872 262.293C410.089 277.1 401.722 284.532 395.9 288.304C392.524 290.5 389.783 292.077 386.407 295.68C380.829 301.704 377.991 308.573 375.789 315.273C368.939 336.161 367.912 356.148 367.716 365.044C367.52 373.264 367.667 384.862 369.38 398.769C374.664 400.232 379.068 400.626 382.199 400.683C387.631 400.795 395.362 400.908 403.386 396.179C405.735 394.771 407.545 393.307 408.67 392.35C407.252 382.723 406.175 370.618 406.713 356.711C407.154 345.507 408.475 335.654 410.041 327.49C412.634 325.238 416.597 322.029 421.735 318.82C427.655 315.16 433.576 312.458 449.919 306.94C469.491 300.353 470.176 301.085 473.062 298.27C480.549 291.063 485.931 276.537 481.723 263.926C476.243 247.317 456.964 242.869 445.026 246.866Z" fill="white"/>
<path d="M437.49 252.552C428.438 259.815 419.435 267.135 410.383 274.398C402.359 280.872 393.747 286.953 386.407 294.554C379.361 301.817 375.447 310.881 372.903 321.241C370.114 332.726 368.303 344.606 367.374 356.486C366.297 370.167 366.542 383.905 367.912 397.53C368.01 398.6 369.478 398.6 369.38 397.53C366.982 374.221 368.156 350.518 372.952 327.772C375.251 316.793 378.285 306.208 385.38 298.044C392.23 290.162 400.842 284.194 408.719 277.832C418.554 269.893 428.389 261.955 438.224 254.016C439.007 253.397 438.273 251.933 437.49 252.552Z" fill="#161616"/>
<path d="M465.234 300.296C454.469 303.843 443.851 307.785 433.38 312.289C428.781 314.259 424.083 316.23 419.582 318.538C415.863 320.452 412.389 322.873 410.236 326.983C409.747 327.941 411.019 328.785 411.508 327.828C413.857 323.268 418.065 321.015 422.126 319.101C426.824 316.905 431.57 314.822 436.365 312.795C446.004 308.742 455.741 305.138 465.576 301.929C466.506 301.648 466.114 300.015 465.234 300.296Z" fill="#161616"/>
<path d="M410.872 318.538C405.784 342.467 404.854 367.352 408.132 391.674C408.279 392.744 409.698 392.294 409.551 391.224C406.322 367.183 407.251 342.579 412.291 318.989C412.487 317.919 411.068 317.469 410.872 318.538Z" fill="#161616"/>
<path d="M368.548 397.474C368.792 400.627 373.049 400.12 374.909 400.345C379.41 400.852 383.912 401.246 388.462 400.964C395.802 400.514 402.995 398.149 408.768 392.744C409.502 392.069 408.475 390.886 407.741 391.562C402.799 396.179 396.683 398.431 390.42 399.106C387.19 399.444 383.961 399.444 380.731 399.219C379.557 399.163 370.114 398.881 370.016 397.474C369.918 396.404 368.45 396.404 368.548 397.474Z" fill="#161616"/>
<path opacity="0.11" d="M464.793 281.323C458.041 277.381 450.31 287.459 431.227 297.481C415.619 305.701 411.753 303.674 405.637 307.953C394.872 315.441 385.331 336.78 392.181 398.768C393.698 398.768 395.459 398.599 397.417 398.149C402.554 396.91 406.224 394.095 408.426 392.125C406.713 379.794 405.686 364.255 407.349 346.52C408.034 339.032 409.111 332.163 410.383 325.97C415.031 322.873 422.273 318.425 431.57 314.259C454.127 304.068 468.121 304.688 470.371 295.567C471.546 290.443 468.806 283.631 464.793 281.323Z" fill="#666666"/>
<path opacity="0.12" d="M459.851 302.211C459.607 300.691 443.753 301.479 427.117 307.897C416.499 311.951 410.726 314.203 405.686 320.565C397.661 330.587 397.221 343.48 396.585 361.384C396.291 369.886 396.487 382.159 399.08 396.854C402.31 395.672 405.49 394.546 408.719 393.363C407.496 382.891 406.713 370.28 407.349 356.035C407.839 345.394 408.964 335.879 410.383 327.547C411.802 325.801 413.955 323.324 416.989 320.903C423.594 315.554 429.417 314.203 436.267 312.064C445.123 309.192 460.096 303.675 459.851 302.211Z" fill="#666666"/>
<path d="M541.907 352.826C552.574 348.829 561.626 346.577 568.231 345.225C577.675 343.311 579.877 343.705 581.638 345.225C584.672 347.815 584.036 351.644 585.161 375.516C585.552 383.342 585.748 385.312 584.378 387.733C579.73 396.235 564.268 395.841 563.094 392.125C562.653 390.661 564.121 387.958 571.461 382.497C571.216 377.149 570.971 371.8 570.678 366.451C562.311 368.76 553.944 371.124 545.626 373.433C544.451 366.62 543.179 359.751 541.907 352.826Z" fill="#161616" stroke="#161616" stroke-width="2" stroke-miterlimit="10"/>
<path d="M456.426 255.874C453.197 264.601 455.496 273.947 456.573 278.339C457.796 283.406 458.97 284.082 460.928 290.894C463.032 298.213 463.668 303.506 464.548 309.868C465.821 319.158 467.289 329.742 469.588 340.327C472.426 353.389 473.992 360.089 478.689 367.352C480.744 370.561 485.588 377.768 494.102 381.596C495.717 382.328 497.87 383.117 503.203 383.905C509.075 384.806 518.176 386.157 530.213 384.468C540.488 383.06 549.051 379.907 555.46 376.923C556.733 371.518 556.684 367.014 556.488 364.143C556.194 360.539 555.705 353.84 551.448 348.153C550.225 346.52 548.415 344.156 545.381 342.917C542.054 341.622 539.069 342.467 533.784 344.099C527.668 345.957 525.417 347.984 521.405 347.027C519.693 346.633 518.42 345.845 517.638 345.282C516.463 343.198 514.849 340.046 513.332 335.992C509.368 325.407 509.075 316.906 508.537 307.559C507.313 286.503 506.677 275.974 503.741 264.32C500.659 252.102 499.778 245.965 495.179 242.249C490.432 238.421 485.05 238.702 481.723 238.871C473.552 239.265 460.928 243.769 456.426 255.874Z" fill="white"/>
<path d="M497.527 246.134C505.552 265.502 506.188 287.234 507.949 308.178C509.222 323.324 510.347 344.099 523.705 352.094C524.537 352.601 525.271 351.137 524.439 350.63C517.589 346.52 514.164 338.412 512.255 330.136C510.2 321.071 509.662 311.556 508.977 302.21C507.509 282.843 506.188 263.081 498.848 245.233C498.408 244.276 497.136 245.12 497.527 246.134Z" fill="#161616"/>
<path d="M457.747 284.701C466.359 307.165 464.206 332.782 472.573 355.303C475.9 364.311 480.891 372.757 487.986 378.331C496.598 385.031 507.803 386.382 517.931 386.213C530.702 385.988 543.277 382.61 555.118 377.261C555.999 376.867 555.607 375.234 554.726 375.628C544.402 380.301 533.54 383.51 522.433 384.299C511.864 385.087 499.827 384.468 490.481 378.162C474.09 367.07 469.735 343.255 467.093 323.38C465.331 309.924 463.766 296.355 458.921 283.8C458.628 282.899 457.356 283.744 457.747 284.701Z" fill="#161616"/>
<path d="M516.708 345.563C525.564 351.531 535.693 340.045 545.038 343.536C550.225 345.507 552.769 351.925 554.188 357.555C555.754 363.636 555.95 369.998 554.873 376.191C554.678 377.261 556.097 377.711 556.292 376.642C557.271 370.786 557.222 364.762 556.048 358.963C554.922 353.67 552.965 347.646 549.1 344.155C545.528 340.89 540.781 340.834 536.476 341.791C530.702 343.086 523.118 347.984 517.442 344.155C516.61 343.592 515.876 345 516.708 345.563Z" fill="#161616"/>
<path opacity="0.11" d="M490.286 245.402C482.065 254.692 498.653 275.129 498.946 309.473C499.191 336.329 493.662 347.477 501.099 356.485C511.766 369.379 535.888 361.947 538.531 361.102C542.739 359.751 551.742 357.78 552.476 352.544C552.916 349.11 549.785 345.225 546.604 343.311C536.916 337.399 527.864 350.461 519.35 346.182C512.94 342.917 511.521 332.107 508.83 312.007C506.628 295.51 507.998 292.02 505.405 273.891C503.497 260.547 501.05 243.882 495.179 242.925C492.83 242.474 490.677 244.895 490.286 245.402Z" fill="#666666"/>
<path opacity="0.17" d="M503.595 267.472C502.812 267.528 502.763 278.338 502.665 291.682C502.42 329.573 504.28 337.624 508.537 344.718C510.298 347.646 513.625 353.051 519.693 356.091C533.099 362.904 550.91 353.952 550.959 348.265C550.959 345.394 546.408 343.254 545.674 342.917C541.026 340.777 537.454 342.86 528.011 344.718C524.096 345.506 520.769 345.901 518.42 346.126C516.659 343.592 514.212 339.651 512.255 334.359C508.488 324.393 508.781 316.286 508.537 307.672C507.998 286.389 504.573 267.416 503.595 267.472Z" fill="#666666"/>
<path d="M321.771 173.618C321.869 172.323 324.462 171.647 326.028 171.253C332.438 169.62 337.967 170.859 339.435 171.534C342.175 172.773 344.915 174.012 347.704 175.25C347.851 174.293 348.291 172.266 349.71 170.746C352.254 168.1 355.875 169.113 356.854 169.451C358.126 169.845 360.132 170.746 363.557 175.025C367.08 179.417 367.57 181.669 369.576 184.54C374.224 191.184 381.221 192.929 384.744 193.774C387.827 194.562 394.041 196.082 401.038 192.704C407.203 189.72 410.677 184.484 412.194 182.119C413.662 179.811 414.151 178.46 417.087 170.746C423.056 155.038 424.965 150.196 429.124 145.354C431.374 142.708 434.114 139.611 436.952 140.343C440.426 141.244 441.894 147.494 442.53 150.14C443.215 153.067 444.096 158.641 442.09 168.381C441.405 171.76 439.056 181.725 432.255 192.704C429.417 197.321 425.454 203.57 418.408 208.863C415.325 211.171 410.285 214.887 402.995 216.013C396.536 217.026 391.594 215.506 387.386 214.155C382.738 212.691 375.007 209.426 366.836 201.712C361.6 201.994 357.588 202.388 354.799 202.782C350.053 203.401 348.046 203.908 345.894 202.5C345.16 201.994 344.083 201.093 342.566 201.206C341.147 201.318 340.658 202.219 339.435 202.5C338.065 202.838 335.814 202.557 334.542 200.642C333.514 199.122 333.612 197.208 333.661 196.589C332.829 195.744 331.508 194.168 330.872 191.803C330.432 190.17 330.481 188.819 330.481 187.299C330.53 185.497 330.53 184.596 330.921 183.865C332.046 181.612 335.276 181.725 335.765 181.781C334.199 180.43 332.78 179.698 331.9 179.304C328.866 177.897 327.251 178.347 324.462 176.602C323.337 175.813 321.673 174.744 321.771 173.618Z" fill="white"/>
<path d="M437.392 139.611C433.135 137.753 429.955 141.863 427.704 145.522C424.328 150.984 421.441 156.839 418.995 162.92C414.395 174.518 411.264 188.03 401.82 195.8C401.037 196.419 401.771 197.883 402.554 197.264C410.187 190.902 414.004 180.936 417.478 171.196C419.582 165.341 421.833 159.598 424.573 154.137C425.943 151.49 427.362 148.844 428.927 146.367C430.787 143.383 433.282 139.667 436.952 141.243C437.882 141.638 438.273 140.005 437.392 139.611Z" fill="#161616"/>
<path d="M351.814 176.263C349.71 177.051 348.878 174.067 349.514 172.435C350.003 171.14 351.275 170.464 352.352 170.07C354.407 169.394 356.756 169.845 358.664 170.915C361.844 172.716 363.655 176.376 365.612 179.641C369.037 185.384 373.588 190.001 379.117 192.816C390.126 198.39 402.995 195.406 411.459 185.609C412.144 184.821 411.068 183.639 410.432 184.427C404.658 191.183 396.487 194.787 388.267 193.886C379.851 192.985 372.218 187.355 367.324 179.529C363.704 173.617 359.153 165.679 351.667 168.55C349.563 169.338 347.508 171.478 347.85 174.236C348.144 176.714 350.101 178.684 352.254 177.84C353.086 177.558 352.694 175.925 351.814 176.263Z" fill="#161616"/>
<path d="M346.725 173.955C342.811 171.703 338.7 169.957 334.346 169.451C330.529 169 325.196 169.169 322.064 172.153C319.226 174.856 322.945 176.601 324.951 177.558C329.55 179.754 334.737 180.43 339.19 183.076C340.022 183.582 340.755 182.119 339.924 181.612C337.184 179.979 334.248 179.191 331.312 178.234C329.746 177.727 328.229 177.164 326.713 176.488C325.881 176.151 324.217 175.757 323.581 174.968C322.456 173.617 323.875 172.773 324.951 172.322C331.752 169.113 339.777 171.815 346.04 175.419C346.823 175.869 347.557 174.405 346.725 173.955Z" fill="#161616"/>
<path d="M338.847 182.006C336.743 180.542 334.101 180.373 331.997 181.893C330.284 183.076 328.865 185.666 329.648 187.974C330.529 190.62 333.954 190.902 335.96 191.352C339.043 191.971 341.979 191.971 344.817 190.339C345.648 189.832 344.915 188.368 344.083 188.875C340.902 190.733 337.379 190.057 334.003 189.156C332.682 188.818 332.633 188.875 331.801 187.242C330.725 186.228 330.774 185.159 331.85 184.145C332.144 183.864 332.437 183.639 332.731 183.357C334.395 182.175 336.45 182.344 338.113 183.47C338.896 184.033 339.63 182.569 338.847 182.006Z" fill="#161616"/>
<path d="M330.431 188.931C329.453 192.028 330.725 195.237 333.22 196.757C336.45 198.728 340.119 197.264 343.202 195.856C344.083 195.462 343.691 193.829 342.81 194.224C340.755 195.181 338.505 196.194 336.254 195.969C333.318 195.687 330.725 192.929 331.85 189.382C332.144 188.368 330.725 187.918 330.431 188.931Z" fill="#161616"/>
<path d="M332.731 196.025C331.85 199.178 334.052 201.824 336.548 202.669C340.217 203.851 343.153 201.486 345.795 198.84C346.529 198.108 345.453 196.926 344.768 197.658C343.104 199.291 341.392 201.036 339.141 201.261C336.89 201.486 333.171 199.91 334.15 196.475C334.444 195.462 333.025 195.012 332.731 196.025Z" fill="#161616"/>
<path d="M341.245 184.99C342.713 185.553 344.963 187.073 343.789 189.156C343.3 190.057 344.572 190.902 345.061 190.001C345.746 188.762 345.697 187.129 344.963 185.891C344.229 184.54 342.908 183.808 341.587 183.357C340.706 183.019 340.315 184.652 341.245 184.99Z" fill="#161616"/>
<path d="M343.349 190.733C344.376 192.028 343.936 194.055 342.468 194.561C341.587 194.843 341.93 196.476 342.859 196.194C345.453 195.35 346.187 191.746 344.425 189.494C343.74 188.762 342.713 189.945 343.349 190.733Z" fill="#161616"/>
<path d="M344.034 194.899C345.012 195.519 345.159 197.208 344.376 198.052C343.691 198.784 344.719 200.023 345.404 199.234C346.872 197.602 346.578 194.561 344.768 193.435C343.985 192.929 343.202 194.392 344.034 194.899Z" fill="#161616"/>
<path d="M345.746 175.306C346.823 175.869 347.899 176.488 348.976 177.051C349.808 177.502 350.59 176.038 349.71 175.587C348.633 175.024 347.557 174.405 346.48 173.842C345.648 173.392 344.915 174.855 345.746 175.306Z" fill="#161616"/>
<path d="M352.401 177.896C353.477 176.826 354.945 176.376 356.364 176.77C357.294 176.995 357.685 175.362 356.756 175.137C354.798 174.63 352.89 175.194 351.373 176.714C350.639 177.446 351.667 178.628 352.401 177.896Z" fill="#161616"/>
<path d="M353.233 179.923C351.863 184.596 353.477 189.776 357.147 192.309C357.979 192.872 358.713 191.409 357.881 190.846C354.749 188.706 353.477 184.258 354.652 180.373C354.945 179.304 353.526 178.853 353.233 179.923Z" fill="#161616"/>
<path d="M342.908 201.486C345.844 203.907 349.025 204.414 352.499 203.626C357.343 202.612 361.991 202.105 366.933 202.725C367.863 202.837 367.863 201.148 366.933 201.036C363.116 200.529 359.3 200.585 355.483 201.261C351.129 202.049 347.557 203.232 343.642 200.022C342.859 199.403 342.125 200.867 342.908 201.486Z" fill="#161616"/>
<path d="M365.661 201.993C372.658 205.822 379.117 210.945 386.358 214.098C393.013 216.969 400.303 217.532 407.251 215.562C414.395 213.535 420.169 208.693 425.209 202.669C430.444 196.475 435.141 189.494 438.469 181.668C442.383 172.547 444.291 162.413 443.313 152.278C443.215 151.209 441.747 151.209 441.845 152.278C442.921 163.426 440.426 174.518 435.631 184.202C431.178 193.21 424.866 202.218 417.478 208.299C410.04 214.379 400.401 216.406 391.496 214.098C382.395 211.733 374.713 205.033 366.346 200.473C365.563 200.079 364.829 201.543 365.661 201.993Z" fill="#161616"/>
<path opacity="0.16" d="M439.35 146.142C437.441 146.254 437.686 155.6 435.386 165.172C432.01 179.022 422.322 197.208 408.083 202.781C398.004 206.723 387.826 203.457 371.63 198.221C366.493 196.588 357.441 193.154 344.915 192.253C334.59 191.521 332.046 193.21 331.948 194.111C331.899 194.674 332.829 195.068 333.367 196.87C333.807 198.39 333.318 198.897 333.758 199.854C334.541 201.599 336.89 201.824 337.722 201.937C339.777 202.162 341.44 201.318 342.321 200.811C343.251 201.318 344.719 201.993 346.529 202.444C350.052 203.288 352.058 202.5 356.511 201.993C361.11 201.486 364.144 201.149 367.471 202.218C370.652 203.232 372.12 204.921 374.86 207.06C375.692 207.68 383.52 213.704 393.208 215.562C396.242 216.125 403.19 217.364 410.921 213.929C415.325 212.015 418.114 209.369 421.294 206.385C423.3 204.47 432.255 195.687 438.811 179.304C441.698 172.153 444.047 166.129 443.411 158.19C442.872 152.391 440.964 146.029 439.35 146.142Z" fill="#666666"/>
<path opacity="0.17" d="M345.697 196.588C348.046 195.237 350.786 196.363 351.863 196.813C357.979 199.234 358.566 197.545 367.814 199.122C375.447 200.417 375.74 202.95 385.771 206.666C395.41 210.269 403.19 213.141 410.872 210.326C421.784 206.328 426.823 193.66 427.215 194.054C427.606 194.392 423.203 206.666 412.683 212.409C403.141 217.645 393.208 214.999 390.37 214.267C385.771 213.028 382.052 211.001 377.991 208.749C373.245 206.159 369.526 203.457 366.835 201.43C363.41 201.261 360.719 201.599 358.86 201.88C354.309 202.669 352.401 203.851 348.682 203.232C347.703 203.063 343.642 202.387 343.3 200.248C343.104 198.84 344.425 197.32 345.697 196.588Z" fill="#666666"/>
<path d="M432.255 141.751C430.934 143.609 429.221 146.705 427.949 171.309C427.264 184.934 426.579 199.235 427.607 220.235C428.047 228.793 428.879 240.504 430.591 254.354C436.071 257.958 446.053 263.306 459.264 264.207C480.451 265.671 495.913 254.636 501.099 250.582C498.457 244.558 494.836 235.212 492.537 223.276C489.699 208.637 491.069 202.163 489.552 184.202C487.546 160.443 486.567 148.563 480.304 141.357C468.316 127.506 441.992 127.957 432.255 141.751Z" fill="#DBE2EF"/>
<path opacity="0.22" d="M458.922 131.615C462.396 137.583 466.848 146.423 470.371 157.908C471.888 162.919 479.423 188.705 473.943 221.867C471.056 239.49 465.429 253.678 460.047 264.15C463.815 264.431 468.218 264.375 473.062 263.643C485.931 261.616 495.57 255.479 501.295 250.975C499.485 247.147 497.185 241.742 495.228 234.985C494.836 233.522 492.928 226.934 491.656 216.687C490.775 209.706 490.922 207.397 490.335 196.024C490.188 193.378 489.601 182.625 488.329 170.238C486.469 152.109 485.05 148.168 482.702 144.677C479.374 139.723 475.166 137.076 473.307 135.894C467.436 132.403 461.955 131.728 458.922 131.615Z" fill="#666666"/>
<path opacity="0.22" d="M488.378 173.899C487.644 183.02 486.665 192.422 485.491 202.106C482.8 223.951 479.228 244.276 475.166 262.912C478.494 262.405 482.751 261.392 487.399 259.309C493.466 256.606 498.017 253.003 501.099 250.188C494.592 237.013 492.341 225.978 491.509 218.096C490.677 210.157 490.971 202.5 489.356 183.808C488.965 179.642 488.622 176.207 488.378 173.899Z" fill="#666666"/>
<path d="M412.291 74.7513C411.313 77.5101 411.362 80.7756 411.362 87.3629C411.362 92.036 411.411 98.567 413.515 106.28C415.129 112.248 416.695 118.216 421.539 123.509C422.909 125.029 428.83 131.504 437.197 131.504C438.811 131.504 440.181 131.278 441.062 131.053C441.454 132.742 442.285 135.107 443.851 137.528C444.683 138.766 445.515 139.724 446.249 140.456C447.423 140.456 450.408 140.23 453.49 137.978C456.426 135.782 457.796 132.911 458.286 131.672C457.405 130.659 455.105 127.675 454.958 123.34C454.909 122.157 455.056 121.144 455.203 120.243C456.818 117.878 458.53 114.782 459.998 111.01C460.732 109.152 461.27 107.406 461.76 105.774C462.494 105.999 463.961 106.28 465.38 105.492C466.897 104.591 467.435 102.846 468.072 100.706C469.001 97.5535 470.029 94.0065 468.757 90.8536C467.533 87.8696 465.625 88.5452 463.961 85.7864C461.417 81.6764 463.913 77.5101 462.885 73.0059C461.319 66.0808 452.61 63.0968 449.233 61.9145C435.386 57.1851 416.597 62.4775 412.291 74.7513Z" fill="white"/>
<path d="M411.019 82.859C412.243 83.0843 413.025 80.8885 414.934 78.6927C416.891 76.4969 420.169 74.1886 426.041 73.5692C430.836 73.0062 435.631 72.3869 440.426 71.8239C441.943 71.9365 445.417 72.3869 448.891 75.1457C451.68 77.3978 453.197 80.1002 453.931 81.5641C455.448 81.6204 456.916 81.733 458.433 81.7893C458.726 83.8725 459.069 85.9556 459.362 88.0388C459.558 87.8136 462.2 85.1111 464.94 86.1245C467.142 86.9128 468.072 89.6153 468.463 90.8539C469.686 94.2883 468.855 97.0471 469.589 97.2723C470.469 97.6101 472.182 93.8942 472.378 93.3875C472.818 92.4304 474.237 89.1085 474.628 83.9288C474.922 79.7061 475.118 76.891 473.699 74.2449C473.209 73.344 472.72 72.781 472.573 71.655C472.329 69.5155 473.797 68.3331 474.628 66.3063C475.069 65.2365 475.167 64.2231 473.894 56.4535C472.524 48.1208 472.035 46.9948 471.301 46.7695C470.322 46.5443 469.442 48.0645 468.316 49.3594C466.359 51.6678 462.983 54.2014 456.72 55.1585C456.72 52.6249 456.426 50.5981 456.182 49.1342C455.741 46.8821 455.497 46.8821 453.931 41.5898C453.05 38.6058 452.855 37.3671 452.267 37.3108C451.289 37.1982 450.946 40.0696 448.647 41.0831C447.619 41.5335 447.228 41.1394 445.857 41.3646C444.634 41.5335 442.971 42.1528 441.062 44.0108C441.062 44.0108 438.127 46.3191 433.234 49.1905C427.802 52.3434 425.992 48.909 420.365 51.7804C416.157 53.9199 413.613 57.7484 412.536 59.4938C411.46 61.2391 408.426 66.3063 408.426 73.2877C408.328 77.2852 409.307 82.5775 411.019 82.859Z" fill="#122E4F"/>
<path d="M411.068 85.1106C410.236 94.6819 411.606 104.422 415.129 113.149C418.114 120.524 422.86 127.844 429.71 130.771C436.707 133.755 444.732 131.56 450.555 126.492C456.475 121.313 460.194 113.599 462.396 105.548C462.689 104.535 461.27 104.084 460.977 105.098C458.873 112.755 455.35 120.13 449.723 125.085C443.9 130.152 435.729 132.292 428.928 128.576C422.811 125.254 418.701 118.329 416.059 111.404C412.878 103.127 411.753 94.0626 412.536 85.1106C412.634 84.0408 411.166 84.0408 411.068 85.1106Z" fill="#161616"/>
<path d="M460.39 89.3333C461.075 85.8989 464.549 86.0115 466.31 88.2073C467.827 90.009 468.169 92.6552 468.218 95.0761C468.316 99.1299 467.044 106.618 462.004 104.76C461.124 104.422 460.732 106.055 461.613 106.393C468.757 109.039 470.322 97.6097 469.442 92.0921C468.903 88.8829 467.093 85.4485 464.01 84.9981C461.662 84.6603 459.509 86.3493 458.971 88.9955C458.775 89.8964 460.194 90.3468 460.39 89.3333Z" fill="#161616"/>
<path d="M429.221 85.7864C428.096 88.4889 426.97 91.1351 425.894 93.8376C425.356 95.2451 424.768 96.6527 424.866 98.2854C425.111 101.607 427.655 103.803 430.298 104.535C431.227 104.816 431.619 103.184 430.689 102.902C427.509 102.001 425.551 99.0737 426.921 95.3577C427.998 92.43 429.27 89.5586 430.493 86.6309C430.885 85.6738 429.613 84.8293 429.221 85.7864Z" fill="#161616"/>
<path d="M422.077 93.162C421.784 92.7679 421.588 92.2611 421.539 91.7544C421.49 91.5292 421.49 91.2477 421.539 91.0225C421.539 90.8536 421.784 90.3469 421.784 90.2343C421.686 90.2343 421.637 90.2906 421.539 90.2906C421.588 90.4595 421.588 90.6284 421.588 90.7973C421.588 91.0788 421.588 91.3603 421.588 91.6418C421.539 92.3737 421.392 93.0494 421.148 93.725C421.539 93.6124 421.979 93.4998 422.371 93.3309C421.882 92.8242 421.686 92.3175 421.735 91.5292C421.833 90.4595 420.365 90.4595 420.267 91.5292C420.169 92.6553 420.56 93.7813 421.343 94.5132C421.784 94.9636 422.371 94.7384 422.567 94.1191C423.007 92.8242 423.203 91.3603 423.007 90.0091C422.86 89.0519 422.175 88.0948 421.294 88.5452C420.463 88.9393 420.12 90.2906 420.12 91.304C420.12 92.4301 420.463 93.4998 421.148 94.3443C421.686 95.1888 422.713 93.9502 422.077 93.162Z" fill="#161616"/>
<path d="M440.769 92.3173C440.622 91.8669 440.524 91.4728 440.524 91.0223C440.524 90.7971 440.573 90.5719 440.622 90.3467C440.622 90.2904 440.671 90.1778 440.671 90.1215C440.769 89.9526 440.72 89.9526 440.475 90.1215C440.475 90.1778 440.573 90.4593 440.573 90.5719C440.573 90.7971 440.573 91.0223 440.524 91.2475C440.426 91.7543 440.23 92.2047 439.986 92.5988C440.377 92.6551 440.769 92.7114 441.16 92.7677C440.573 91.8106 440.622 90.6845 441.258 89.7274C440.867 89.7837 440.475 89.84 440.084 89.8963C440.573 90.5719 440.23 91.5853 439.643 91.9232C439.986 92.0921 440.377 92.261 440.72 92.4299C440.573 91.9795 440.475 91.5853 440.426 91.0786C440.426 90.7971 440.475 90.5156 440.475 90.2341C440.475 90.1215 440.524 90.0652 440.524 89.9526C440.377 89.7274 440.328 89.6711 440.426 89.84C440.573 90.2904 440.671 90.6282 440.622 91.1349C440.622 91.3601 440.524 91.698 440.524 91.8669C440.524 91.9795 440.475 92.0358 440.475 92.1484C440.818 92.0921 440.866 91.9795 440.671 91.7543C440.133 90.8534 438.86 91.698 439.399 92.5988C439.937 93.4996 441.111 94.2879 441.747 92.9929C442.237 91.9232 442.237 90.0652 441.747 89.0518C441.209 87.982 439.937 87.6442 439.301 88.8265C438.714 89.9526 438.86 91.6417 439.252 92.824C439.447 93.3307 439.888 93.6122 440.328 93.3307C441.845 92.4299 442.139 90.1215 441.062 88.6576C440.72 88.2072 440.181 88.4324 439.888 88.8265C439.007 90.1778 438.958 92.1484 439.79 93.5559C440.035 93.95 440.622 94.1752 440.964 93.7248C441.845 92.4299 442.775 89.3896 441.013 88.4324C440.23 88.0383 439.545 88.6013 439.301 89.4459C438.958 90.5156 438.958 91.698 439.35 92.7114C439.741 93.7248 441.16 93.3307 440.769 92.3173Z" fill="#161616"/>
<path d="M425.111 82.8585C422.567 80.9443 419.239 81.8451 417.625 84.7165C417.135 85.6173 418.408 86.4619 418.897 85.561C420.071 83.4216 422.518 82.9148 424.377 84.2661C425.16 84.8854 425.894 83.4216 425.111 82.8585Z" fill="#161616"/>
<path d="M438.616 83.3092C440.867 81.1134 444.341 81.7891 445.368 85.1109C445.662 86.1243 447.081 85.6739 446.787 84.6605C445.368 80.1 440.671 79.0303 437.588 82.1269C436.903 82.8025 437.931 83.9848 438.616 83.3092Z" fill="#161616"/>
<path d="M440.426 131.672C441.209 134.994 442.726 137.978 444.928 140.343C445.613 141.075 446.64 139.892 445.955 139.161C443.949 136.965 442.53 134.319 441.845 131.222C441.551 130.152 440.132 130.603 440.426 131.672Z" fill="#161616"/>
<path d="M453.931 121.257C454.371 125.029 455.497 128.463 457.405 131.616C457.943 132.517 459.215 131.673 458.677 130.772C456.916 127.9 455.79 124.747 455.399 121.257C455.301 120.243 453.833 120.187 453.931 121.257Z" fill="#161616"/>
<path d="M445.025 140.624C450.31 142.707 456.377 137.809 458.334 132.235C458.677 131.222 457.258 130.771 456.916 131.785C455.252 136.514 449.821 140.737 445.417 138.991C444.536 138.653 444.145 140.286 445.025 140.624Z" fill="#161616"/>
<path d="M441.307 132.573C444.83 131.897 447.961 129.983 450.457 127.056C451.093 126.267 450.065 125.085 449.429 125.873C447.081 128.632 444.194 130.321 440.915 130.997C439.986 131.166 440.377 132.742 441.307 132.573Z" fill="#161616"/>
<path d="M442.139 133.699C446.249 132.348 450.897 128.632 452.757 124.128C453.148 123.171 451.876 122.27 451.484 123.283C449.772 127.393 445.515 130.884 441.698 132.123C440.818 132.404 441.209 133.981 442.139 133.699Z" fill="#161616"/>
<path d="M411.313 78.6924C408.524 74.9202 409.649 68.164 411.019 63.885C412.683 58.6489 415.961 54.7078 420.707 53.1877C424.866 51.8364 429.319 52.0053 433.38 50.2037C437.882 48.1768 441.16 42.6029 446.347 42.997C447.276 43.0533 447.276 41.3643 446.347 41.308C440.426 40.8575 436.805 47.3886 431.472 49.1339C426.334 50.8793 420.609 50.26 415.961 53.6944C412.291 56.3969 409.992 60.9573 408.964 65.743C407.937 70.3034 407.398 76.1025 410.236 79.8747C410.872 80.7193 411.949 79.5369 411.313 78.6924Z" fill="#122E4F"/>
<path d="M426.97 72.3303C426.579 68.2202 427.362 64.1665 429.466 60.7884C431.814 57.0162 435.386 55.3271 438.909 53.4128C441.845 51.8364 444.536 49.8658 446.64 46.9944C448.695 44.2919 449.723 40.2945 452.316 38.2113C451.974 38.0987 451.631 37.9861 451.289 37.9298C453.735 44.5171 458.628 52.5683 454.224 59.5497C453.686 60.4506 454.958 61.2951 455.497 60.3943C460.243 52.8498 455.203 44.2356 452.561 37.0853C452.414 36.6912 451.876 36.5223 451.533 36.8038C448.695 38.9996 447.717 42.9407 445.515 45.8121C442.628 49.6969 438.86 51.4423 434.995 53.5817C428.634 57.1288 424.573 63.9976 425.405 72.3303C425.6 73.4 427.117 73.4 426.97 72.3303Z" fill="#122E4F"/>
<path d="M440.818 71.5419C443.949 64.8419 449.087 59.6059 455.35 57.0723C458.286 55.8899 461.368 55.2143 464.157 53.5816C466.848 52.0614 469.148 49.9219 471.154 47.3884C470.763 47.3321 470.371 47.2757 469.98 47.2194C471.79 51.6673 473.503 56.6782 473.845 61.5764C474.188 66.8688 471.643 70.9225 468.854 74.8074C468.267 75.6519 469.295 76.8342 469.882 75.9897C472.671 72.0486 475.411 67.8822 475.313 62.5899C475.215 57.016 473.209 51.3295 471.203 46.3749C471.007 45.8682 470.371 45.8119 470.029 46.206C467.484 49.3589 464.451 51.8362 460.928 53.3001C457.943 54.5387 454.812 55.2143 451.925 56.8471C446.591 59.8311 442.237 64.7293 439.448 70.6973C439.105 71.6545 440.377 72.499 440.818 71.5419Z" fill="#122E4F"/>
<path d="M471.644 71.88C475.166 79.7622 474.53 89.1083 470.029 96.2587C469.491 97.1595 470.763 98.004 471.301 97.1032C476.145 89.4461 476.683 79.4244 472.916 71.0354C472.475 70.0783 471.203 70.9228 471.644 71.88Z" fill="#122E4F"/>
<path opacity="0.14" d="M453.441 81.0007C453.588 83.7595 453.686 87.7569 453.441 92.5426C452.952 101.1 452.561 108.476 449.282 115.401C445.172 124.015 438.126 128.519 433.429 130.772C435.68 130.94 439.301 130.828 443.46 129.251C446.885 127.956 449.478 126.098 451.142 124.635C452.071 128.857 453.05 133.08 453.98 137.303C455.448 135.276 456.867 133.193 458.334 131.166C457.062 128.238 455.79 125.254 454.518 122.326C455.546 120.412 456.524 118.385 457.503 116.189C459.264 112.361 460.683 108.701 461.857 105.21C462.494 105.492 464.353 106.224 466.017 105.21C467.876 104.084 468.316 101.551 468.708 99.2425C469.099 96.8215 470.176 90.3468 466.848 87.5317C465.478 86.3494 463.081 85.5611 461.172 86.7435C460.145 87.4191 459.607 88.4325 459.313 89.0518C459.068 86.7435 458.873 84.4351 458.628 82.1267C456.916 81.7889 455.154 81.3948 453.441 81.0007Z" fill="#666666"/>
<path opacity="0.2" d="M442.237 71.4292C444.977 67.9948 448.255 63.0965 451.093 56.6218C453.099 52.0051 454.42 47.7261 455.252 44.1228C457.454 48.6832 457.258 52.3429 457.111 53.9193C456.279 61.126 450.604 65.6301 447.423 68.1637C445.417 69.7401 443.558 70.7536 442.237 71.4292Z" fill="#212121"/>
<path opacity="0.16" d="M452.267 77.7351C455.056 76.609 458.335 74.9763 461.809 72.5553C468.121 68.1074 472.377 62.8151 475.02 58.9303C475.362 61.2949 475.705 65.968 473.503 70.2469C469.98 77.2283 461.319 80.6065 452.267 77.7351Z" fill="#212121"/>
<path opacity="0.22" d="M420.218 74.6948C420.12 72.3301 420.267 68.952 421.197 65.0672C423.398 56.1715 428.879 49.5278 429.71 50.0909C430.395 50.5413 428.732 55.8337 420.218 74.6948Z" fill="#212121"/>
<path d="M422.616 110.953C429.906 111.347 437.001 109.658 443.558 105.942C444.194 105.604 443.656 104.478 443.019 104.872C436.659 108.476 429.71 110.108 422.664 109.714C421.882 109.658 421.931 110.897 422.616 110.953Z" fill="#161616"/>
<path d="M423.35 111.178C424.328 113.205 425.013 115.401 425.405 117.653C425.551 118.441 426.579 118.103 426.481 117.315C426.09 114.951 425.356 112.642 424.328 110.503C423.986 109.827 423.007 110.503 423.35 111.178Z" fill="#161616"/>
<path d="M425.502 117.709C428.438 120.975 433.184 119.342 436.316 117.259C440.084 114.838 442.824 110.784 443.753 105.942C443.9 105.154 442.824 104.816 442.677 105.604C441.894 109.602 439.888 112.98 436.952 115.345C434.163 117.54 429.123 120.018 426.285 116.809C425.796 116.246 425.013 117.146 425.502 117.709Z" fill="#161616"/>
<path d="M424.817 113.487C428.145 114.5 431.961 113.374 435.142 112.248C438.224 111.178 441.062 109.433 443.215 106.618C443.704 105.999 442.922 105.098 442.432 105.717C440.377 108.363 437.784 109.996 434.848 111.01C431.863 112.023 428.194 113.205 425.111 112.248C424.426 112.079 424.132 113.318 424.817 113.487Z" fill="#161616"/>
<path d="M425.307 114.106C425.698 115.176 426.09 116.246 426.481 117.315C426.726 117.991 427.704 117.484 427.509 116.809C427.166 115.795 426.921 114.838 426.726 113.768C426.481 114.05 426.285 114.275 426.041 114.556C427.215 114.782 428.389 114.894 429.613 114.894C430.2 114.894 430.395 113.768 429.759 113.656C428.634 113.43 427.753 113.487 426.628 113.881C426.285 113.993 426.09 114.444 426.285 114.838C426.579 115.345 426.921 115.908 427.215 116.414C427.606 117.09 428.487 116.527 428.145 115.795C427.998 115.288 427.851 114.782 427.704 114.331C427.362 114.5 427.019 114.669 426.677 114.838C427.166 115.57 427.362 116.358 427.166 117.203C427.509 117.09 427.851 116.977 428.194 116.865C427.509 115.57 426.921 117.09 426.775 117.484C426.628 117.991 427.215 118.554 427.606 118.216C431.619 114.725 436.316 112.98 441.062 111.291C441.747 111.066 441.454 109.827 440.769 110.052C435.925 111.741 431.129 113.543 427.068 117.09C427.362 117.315 427.606 117.54 427.9 117.822C428.096 117.315 428.683 117.203 428.781 116.414C428.879 115.739 428.634 114.725 427.998 114.5C426.236 113.825 426.872 116.696 427.313 117.484C427.606 118.047 428.291 117.766 428.34 117.146C428.438 115.964 428.243 115.119 427.704 114.162C427.362 113.599 426.53 113.937 426.677 114.669C426.872 115.626 426.872 115.57 427.215 116.471C427.509 116.246 427.851 116.02 428.145 115.851C427.851 115.345 427.509 114.782 427.215 114.275C427.117 114.613 427.019 114.894 426.873 115.232C427.704 114.838 428.536 114.782 429.417 115.007C429.466 114.613 429.515 114.162 429.564 113.768C428.438 113.768 427.46 113.712 426.285 113.487C425.845 113.374 425.502 113.768 425.6 114.275C425.796 115.345 426.041 116.302 426.383 117.315C426.726 117.146 427.068 116.977 427.411 116.809C427.019 115.739 426.628 114.669 426.236 113.599C425.992 112.698 425.013 113.374 425.307 114.106Z" fill="#161616"/>
<path d="M428.438 116.133C430.151 114.951 431.912 114.05 433.821 113.262C433.674 112.867 433.527 112.473 433.38 112.079C431.668 112.98 429.955 113.881 428.291 114.725C427.753 115.007 428.145 116.133 428.732 115.908C433.331 113.825 437.882 111.685 442.041 108.532C441.747 108.307 441.503 108.082 441.209 107.8C440.573 109.771 437.735 109.996 436.267 110.615C435.044 111.122 433.869 111.798 432.646 112.304C430.934 112.98 428.928 112.867 427.606 114.557C427.117 115.176 427.9 116.077 428.389 115.457C429.466 114.05 431.472 114.106 432.94 113.543C434.408 112.98 435.827 112.136 437.344 111.573C439.399 110.841 441.454 110.784 442.285 108.194C442.432 107.688 441.845 107.181 441.454 107.462C437.392 110.503 432.891 112.642 428.389 114.669C428.536 115.063 428.683 115.457 428.83 115.851C430.542 114.951 432.255 114.05 433.918 113.205C434.506 112.924 434.065 111.798 433.478 112.023C431.521 112.811 429.662 113.825 427.851 115.007C427.264 115.457 427.851 116.583 428.438 116.133Z" fill="#161616"/>
<path d="M441.649 109.94C441.649 109.884 441.6 109.827 441.6 109.771C441.6 109.715 441.6 109.771 441.6 109.884C441.551 109.94 441.454 110.052 441.405 110.109H441.454C441.307 110.109 441.16 110.165 441.013 110.165C440.769 110.109 440.769 109.602 440.72 109.94C440.72 110.052 440.72 110.109 440.769 110.221C440.818 110.447 440.915 110.559 441.111 110.728C441.356 110.953 441.747 110.784 441.845 110.503C441.992 110.165 441.894 109.827 441.649 109.658C441.649 109.658 441.6 109.658 441.6 109.602C441.649 109.658 441.747 109.771 441.796 109.827C441.845 109.996 441.845 109.996 441.845 109.884C441.845 109.827 441.845 109.771 441.845 109.771C441.845 109.602 441.796 109.433 441.747 109.321C441.6 109.095 441.405 108.926 441.16 108.926C440.524 108.926 440.426 109.771 440.622 110.278C440.72 110.615 440.964 110.841 441.307 110.728C441.551 110.615 441.796 110.221 441.649 109.94Z" fill="#161616"/>
<path d="M441.747 104.816C442.677 105.267 443.46 105.999 443.998 107.012C444.341 107.688 445.319 107.069 444.928 106.393C444.243 105.098 443.264 104.141 442.041 103.634C441.356 103.296 441.062 104.535 441.747 104.816Z" fill="#161616"/>
<path d="M428.389 118.61C432.255 115.457 436.512 113.262 441.111 112.079C441.796 111.91 441.503 110.672 440.818 110.841C436.071 112.023 431.766 114.275 427.802 117.484C427.264 117.991 427.802 119.117 428.389 118.61Z" fill="#161616"/>
<path d="M427.411 117.597C432.206 117.315 436.658 115.626 440.622 112.53C441.209 112.079 440.671 110.953 440.084 111.46C436.267 114.444 432.01 116.133 427.411 116.358C426.677 116.414 426.677 117.653 427.411 117.597Z" fill="#161616"/>
<path d="M431.863 116.189C434.554 115.514 437.05 114.331 439.399 112.642C439.986 112.192 439.448 111.122 438.86 111.572C436.61 113.205 434.212 114.331 431.619 115.007C430.885 115.119 431.178 116.358 431.863 116.189Z" fill="#161616"/>
<path d="M428.487 118.385C432.402 118.273 436.022 116.978 439.252 114.444C439.839 113.994 439.301 112.868 438.714 113.374C435.631 115.795 432.206 117.034 428.487 117.146C427.802 117.146 427.802 118.441 428.487 118.385Z" fill="#161616"/>
<path d="M428.487 118.272C428.438 119.23 429.221 119.342 429.857 119.23C431.325 119.004 432.744 118.61 434.163 118.216C434.848 117.991 434.554 116.809 433.869 116.978C433.135 117.203 432.402 117.372 431.619 117.541C431.276 117.597 429.613 117.709 429.564 118.216C429.661 117.484 428.536 117.484 428.487 118.272Z" fill="#161616"/>
<path d="M437.833 124.86C438.322 123.284 442.726 123.622 446.543 124.185C446.543 123.34 446.689 122.102 447.13 120.75C447.472 119.681 448.011 118.611 449.968 116.134C452.072 113.487 453.148 112.192 454.518 111.235C455.546 110.503 457.258 109.546 459.656 109.096C460.635 109.49 461.662 109.884 462.641 110.222C462.934 109.152 463.521 107.125 464.647 103.184C465.381 100.538 465.821 99.1867 466.8 98.7363C467.778 98.3422 469.099 98.7363 469.784 99.6934C470.763 101.101 469.882 103.128 469.344 106.562C469.05 108.533 469.295 108.195 469.197 115.571C469.099 123.115 468.855 123.059 468.904 126.212C468.953 129.139 469.295 133.306 470.469 138.317C471.546 137.754 473.258 137.134 475.314 137.19C480.109 137.247 483.485 140.85 485.98 143.609C490.873 148.958 492.977 154.869 494.396 159.036C497.136 167.087 497.479 173.787 497.528 176.714C497.577 181.275 497.675 185.554 495.668 190.508C495.032 192.085 493.271 196.307 489.259 199.517C487.595 200.868 484.463 203.345 480.402 202.951C478.054 202.726 475.95 201.6 473.699 199.517C466.164 192.479 462.69 179.698 461.613 175.251C459.558 167.143 457.307 155.376 456.916 140.681C455.839 140.625 454.567 140.343 453.197 139.724C448.157 137.303 446.2 131.504 445.809 130.04C444.781 130.096 441.111 130.04 438.812 127.112C438.322 126.437 437.637 125.592 437.833 124.86Z" fill="white"/>
<path d="M444.634 128.801C442.041 128.575 439.056 127.449 438.371 124.184C438.224 124.522 438.028 124.86 437.882 125.197C441.649 124.297 445.417 125.591 449.184 124.972C450.114 124.803 449.723 123.17 448.793 123.339C445.025 123.959 441.258 122.664 437.49 123.565C437.099 123.677 436.903 124.184 437.001 124.578C437.833 128.632 441.405 130.152 444.683 130.433C445.612 130.546 445.612 128.857 444.634 128.801Z" fill="#161616"/>
<path d="M447.423 122.776C446.836 118.779 452.169 119.004 454.175 119.623C455.105 119.905 455.496 118.272 454.567 117.991C451.288 116.977 445.221 117.709 446.004 123.17C446.151 124.296 447.57 123.846 447.423 122.776Z" fill="#161616"/>
<path d="M449.527 118.891C449.967 116.921 450.897 115.119 452.561 114.218C454.518 113.205 456.475 114.218 458.285 115.119C459.117 115.57 459.9 114.106 459.019 113.655C456.769 112.473 454.371 111.347 451.973 112.642C449.918 113.712 448.646 115.964 448.108 118.441C447.912 119.511 449.331 119.961 449.527 118.891Z" fill="#161616"/>
<path d="M454.665 112.135C454.567 112.023 456.23 110.446 456.475 110.277C457.16 109.883 457.943 109.658 458.726 109.658C460.634 109.658 462.347 110.728 463.863 111.854C464.646 112.417 465.38 111.009 464.597 110.39C462.151 108.588 459.166 107.181 456.279 108.532C455.056 109.095 452.12 111.628 453.588 113.374C454.273 114.106 455.301 112.923 454.665 112.135Z" fill="#161616"/>
<path d="M469.197 126.379C469.784 121.594 469.98 116.864 469.686 112.022C469.539 109.264 469.784 107.124 470.371 104.422C470.665 103.014 470.909 101.55 470.567 100.143C470.029 98.2285 468.169 96.6521 466.408 97.6655C465.282 98.3411 464.989 99.8613 464.597 101.156C463.863 103.577 463.178 106.054 462.493 108.475C462.2 109.489 463.619 109.939 463.912 108.926C464.304 107.518 464.695 106.111 465.136 104.76C465.38 103.915 465.772 101.1 466.359 100.593C468.805 100.255 469.784 101.044 469.197 103.07C469.05 103.746 468.903 104.365 468.707 105.041C468.463 106.111 468.218 107.124 468.12 108.194C467.925 110.896 468.365 113.712 468.365 116.47C468.365 119.68 468.169 122.832 467.778 125.985C467.68 126.999 469.099 127.449 469.197 126.379Z" fill="#161616"/>
<path d="M443.851 130.603C446.395 130.828 447.031 133.868 448.206 135.895C448.793 136.965 449.527 137.922 450.408 138.71C452.12 140.286 454.126 141.131 456.328 141.356C457.258 141.469 457.258 139.78 456.328 139.667C452.609 139.273 450.261 136.796 448.548 133.192C447.472 130.94 446.2 129.139 443.851 128.97C442.872 128.857 442.921 130.546 443.851 130.603Z" fill="#161616"/>
<path d="M456.083 140.624C457.6 146.648 457.747 152.842 458.188 159.035C458.579 164.271 459.313 169.507 460.585 174.518C463.081 184.202 467.386 193.154 473.6 200.36C474.285 201.149 475.313 199.91 474.628 199.178C468.218 191.746 463.863 182.4 461.564 172.322C459.117 161.737 460.145 150.646 457.502 140.174C457.209 139.16 455.79 139.611 456.083 140.624Z" fill="#161616"/>
<path d="M467.778 125.704C468.512 135.106 470.909 144.284 474.922 152.504C478.836 160.499 484.854 167.424 486.224 176.77C486.371 177.84 487.79 177.389 487.643 176.319C486.42 167.818 481.38 161.343 477.515 154.249C472.867 145.635 470.078 135.838 469.246 125.76C469.148 124.634 467.68 124.634 467.778 125.704Z" fill="#161616"/>
<path d="M471.154 138.766C478.445 136.063 485.637 142.82 489.454 149.351C493.466 156.22 495.276 164.665 496.108 172.829C496.891 180.823 496.353 189.55 491.705 195.969C487.399 201.937 479.423 204.301 473.992 198.896C473.258 198.164 472.23 199.403 472.964 200.079C478.102 205.202 485.686 204.47 490.726 199.516C496.891 193.491 498.408 183.695 497.772 174.855C497.087 165.228 494.983 154.925 489.894 147.042C485.637 140.511 478.2 134.374 470.811 137.077C469.882 137.471 470.224 139.104 471.154 138.766Z" fill="#161616"/>
<path opacity="0.15" d="M467.974 100.706C465.38 101.832 465.576 109.489 465.772 115.007C466.457 131.391 466.799 139.611 469.588 152.222C473.6 170.183 477.27 174.856 479.276 177.051C482.163 180.204 487.692 184.765 490.041 182.963C493.76 180.092 487.839 162.976 486.371 158.81C481.429 144.622 480.353 139.892 476.683 138.428C474.481 137.584 472.328 137.922 470.811 138.428C468.707 133.249 468.365 129.082 468.414 126.211C468.463 123.79 468.805 123.79 468.952 120.13C469.246 113.487 468.218 113.093 468.756 108.757C469.295 104.535 470.714 102.001 469.686 100.988C469.344 100.425 468.512 100.481 467.974 100.706Z" fill="#666666"/>
<path opacity="0.15" d="M472.182 141.299C475.656 145.184 478.053 148.9 479.668 151.828C483.631 158.866 485.295 165.171 485.882 167.592C486.714 171.027 487.105 174.011 487.35 176.207C486.518 173.279 484.952 168.887 482.212 163.989C480.01 160.048 478.591 158.697 476.732 155.15C475.215 152.222 473.307 147.718 472.182 141.299Z" fill="#666666"/>
<path d="M39.5341 145.676H41.6023V140.616H46.6619V138.548H41.6023V133.489H39.5341V138.548H34.4744V140.616H39.5341V145.676ZM57.1159 129.832C53.275 129.786 50.8006 132.676 50.8006 136.148C50.8006 139.804 53.4966 142.426 56.7466 142.426C58.704 142.426 60.3659 141.466 61.4 139.915H61.5478C61.5478 144.568 59.7381 147.227 56.8205 147.227C54.8262 147.227 53.6074 145.972 53.2012 144.236H50.9483C51.3915 147.227 53.6444 149.259 56.8205 149.259C61.0676 149.259 63.6898 145.491 63.6898 138.77C63.6898 131.827 60.2182 129.869 57.1159 129.832ZM57.1159 131.864C59.4796 131.864 61.2154 133.895 61.2154 136.111C61.2154 138.364 59.3688 140.395 57.0421 140.395C54.7154 140.395 53.0165 138.511 53.0165 136.148C53.0165 133.784 54.7892 131.864 57.1159 131.864ZM73.9684 130.091H71.6786L66.9513 133.23V135.557L71.5678 132.491H71.6786V149H73.9684V130.091ZM87.31 149H89.7106L98.131 132.233V130.091H86.0174V132.122H95.7674V132.27L87.31 149ZM107.339 129.832C103.498 129.786 101.023 132.676 101.023 136.148C101.023 139.804 103.719 142.426 106.969 142.426C108.927 142.426 110.589 141.466 111.623 139.915H111.77C111.77 144.568 109.961 147.227 107.043 147.227C105.049 147.227 103.83 145.972 103.424 144.236H101.171C101.614 147.227 103.867 149.259 107.043 149.259C111.29 149.259 113.912 145.491 113.912 138.77C113.912 131.827 110.441 129.869 107.339 129.832ZM107.339 131.864C109.702 131.864 111.438 133.895 111.438 136.111C111.438 138.364 109.591 140.395 107.265 140.395C104.938 140.395 103.239 138.511 103.239 136.148C103.239 133.784 105.012 131.864 107.339 131.864ZM117.626 149H120.027L128.447 132.233V130.091H116.334V132.122H126.084V132.27L117.626 149ZM132.988 149H135.388L143.809 132.233V130.091H131.695V132.122H141.445V132.27L132.988 149ZM153.012 149.259C157.185 149.259 159.586 145.722 159.586 139.545C159.586 133.415 157.148 129.832 153.012 129.832C148.875 129.832 146.438 133.415 146.438 139.545C146.438 145.722 148.838 149.259 153.012 149.259ZM153.012 147.227C150.26 147.227 148.654 144.467 148.654 139.545C148.654 134.634 150.279 131.827 153.012 131.827C155.745 131.827 157.37 134.634 157.37 139.545C157.37 144.467 155.763 147.227 153.012 147.227ZM169.373 149.259C173.195 149.305 175.688 146.424 175.688 142.906C175.688 139.25 172.983 136.628 169.742 136.628C167.794 136.628 166.123 137.579 165.088 139.139H164.941C164.95 134.532 166.741 131.864 169.668 131.864C171.662 131.864 172.863 133.119 173.287 134.818H175.54C175.078 131.882 172.844 129.832 169.668 129.832C165.412 129.832 162.799 133.599 162.799 140.284C162.799 147.273 166.27 149.222 169.373 149.259ZM169.373 147.227C167 147.227 165.264 145.205 165.273 142.943C165.282 140.681 167.101 138.659 169.446 138.659C171.764 138.659 173.472 140.561 173.472 142.906C173.472 145.307 171.69 147.227 169.373 147.227ZM185.486 149.259C189.66 149.259 192.06 145.722 192.06 139.545C192.06 133.415 189.623 129.832 185.486 129.832C181.35 129.832 178.912 133.415 178.912 139.545C178.912 145.722 181.313 149.259 185.486 149.259ZM185.486 147.227C182.735 147.227 181.128 144.467 181.128 139.545C181.128 134.634 182.753 131.827 185.486 131.827C188.219 131.827 189.844 134.634 189.844 139.545C189.844 144.467 188.238 147.227 185.486 147.227ZM201.847 149.259C205.67 149.305 208.162 146.424 208.162 142.906C208.162 139.25 205.457 136.628 202.216 136.628C200.268 136.628 198.597 137.579 197.563 139.139H197.415C197.425 134.532 199.216 131.864 202.143 131.864C204.137 131.864 205.337 133.119 205.762 134.818H208.015C207.553 131.882 205.319 129.832 202.143 129.832C197.886 129.832 195.273 133.599 195.273 140.284C195.273 147.273 198.745 149.222 201.847 149.259ZM201.847 147.227C199.474 147.227 197.738 145.205 197.748 142.943C197.757 140.681 199.576 138.659 201.921 138.659C204.238 138.659 205.947 140.561 205.947 142.906C205.947 145.307 204.165 147.227 201.847 147.227ZM217.702 149.259C221.303 149.259 223.944 146.599 223.944 142.98C223.944 139.315 221.396 136.628 217.924 136.628C216.65 136.628 215.413 137.08 214.637 137.699H214.526L215.191 132.122H223.094V130.091H213.271L212.126 139.398L214.268 139.656C215.053 139.093 216.391 138.687 217.555 138.696C219.964 138.714 221.728 140.543 221.728 143.017C221.728 145.445 220.029 147.227 217.702 147.227C215.763 147.227 214.222 145.981 214.046 144.273H211.83C211.969 147.153 214.452 149.259 217.702 149.259ZM227.612 149H239.541V146.969H230.751V146.821L234.998 142.278C238.248 138.798 239.208 137.173 239.208 135.077C239.208 132.159 236.845 129.832 233.521 129.832C230.206 129.832 227.686 132.085 227.686 135.409H229.865C229.865 133.258 231.259 131.827 233.447 131.827C235.497 131.827 237.066 133.082 237.066 135.077C237.066 136.822 236.041 138.114 233.853 140.506L227.612 147.338V149Z" fill="white"/>
</svg>
