<svg width="302" height="90" viewBox="0 0 302 90" fill="none" xmlns="http://www.w3.org/2000/svg">
<rect width="84" height="84" transform="translate(0 6)" fill="#D8E3E7"/>
<path d="M12.3467 80.8933L5.74875 6.88733H78.2513L71.6468 80.8822L41.956 89.1135L12.3467 80.8933Z" fill="#136F82"/>
<path d="M42.0006 82.8219L65.9925 76.1702L71.6369 12.9379H42.0006V82.8219Z" fill="#52C4D3"/>
<path d="M42.0006 39.7502H54.0113L54.8408 30.4557H42.0006V21.3792H64.7607L64.5428 23.8145L62.3116 48.8268H42.0006V39.7502Z" fill="white"/>
<path d="M42.0545 63.3228L42.0145 63.3347L31.9062 60.6053L31.2598 53.3662H22.1498L23.4209 67.618L42.0131 72.7781L42.0545 72.7663V63.3228Z" fill="#EBEBEB"/>
<path d="M53.2396 48.443L52.1463 60.5981L42.023 63.3307V72.7741L60.6303 67.6173L60.7668 66.0836L62.3457 48.443H53.2396Z" fill="white"/>
<path d="M42.0315 21.3792V30.4557H20.1075L19.9257 28.4161L19.5123 23.8145L19.2951 21.3792H42.0315ZM42.0007 39.7515V48.8281H32.0198L31.838 46.7885L31.4239 42.1869L31.2073 39.7515H42.0007Z" fill="#EBEBEB"/>
<path d="M132.442 21.0566C132.228 23.332 131.388 25.1094 129.923 26.3887C128.458 27.6582 126.51 28.293 124.078 28.293C122.379 28.293 120.88 27.8926 119.581 27.0918C118.292 26.2812 117.296 25.1338 116.593 23.6494C115.89 22.165 115.523 20.4414 115.494 18.4785V16.4863C115.494 14.4746 115.851 12.7021 116.563 11.1689C117.276 9.63574 118.297 8.4541 119.625 7.62402C120.963 6.79395 122.506 6.37891 124.254 6.37891C126.607 6.37891 128.502 7.01855 129.938 8.29785C131.373 9.57715 132.208 11.3838 132.442 13.7178H128.751C128.575 12.1846 128.126 11.0811 127.403 10.4072C126.69 9.72363 125.641 9.38184 124.254 9.38184C122.643 9.38184 121.402 9.97266 120.533 11.1543C119.674 12.3262 119.234 14.0498 119.215 16.3252V18.2148C119.215 20.5195 119.625 22.2773 120.445 23.4883C121.275 24.6992 122.486 25.3047 124.078 25.3047C125.533 25.3047 126.627 24.9775 127.359 24.3232C128.092 23.6689 128.556 22.5801 128.751 21.0566H132.442ZM146.915 22.5068C146.915 21.5693 146.583 20.8467 145.919 20.3389C145.265 19.8311 144.078 19.3184 142.359 18.8008C140.641 18.2832 139.273 17.707 138.258 17.0723C136.314 15.8516 135.343 14.2598 135.343 12.2969C135.343 10.5781 136.041 9.16211 137.438 8.04883C138.844 6.93555 140.665 6.37891 142.901 6.37891C144.386 6.37891 145.709 6.65234 146.871 7.19922C148.033 7.74609 148.946 8.52734 149.61 9.54297C150.274 10.5488 150.606 11.667 150.606 12.8975H146.915C146.915 11.7842 146.563 10.915 145.86 10.29C145.167 9.65527 144.171 9.33789 142.872 9.33789C141.661 9.33789 140.719 9.59668 140.045 10.1143C139.381 10.6318 139.049 11.3545 139.049 12.2822C139.049 13.0635 139.41 13.7178 140.133 14.2451C140.855 14.7627 142.047 15.2705 143.707 15.7686C145.367 16.2568 146.7 16.8184 147.706 17.4531C148.712 18.0781 149.449 18.8008 149.918 19.6211C150.387 20.4316 150.621 21.3838 150.621 22.4775C150.621 24.2549 149.938 25.6709 148.57 26.7256C147.213 27.7705 145.367 28.293 143.033 28.293C141.49 28.293 140.069 28.0098 138.771 27.4434C137.481 26.8672 136.476 26.0762 135.753 25.0703C135.04 24.0645 134.684 22.8926 134.684 21.5547H138.39C138.39 22.7656 138.79 23.7031 139.591 24.3672C140.392 25.0312 141.539 25.3633 143.033 25.3633C144.322 25.3633 145.289 25.1045 145.934 24.5869C146.588 24.0596 146.915 23.3662 146.915 22.5068ZM165.021 22.5068C165.021 21.5693 164.688 20.8467 164.024 20.3389C163.37 19.8311 162.184 19.3184 160.465 18.8008C158.746 18.2832 157.379 17.707 156.363 17.0723C154.42 15.8516 153.448 14.2598 153.448 12.2969C153.448 10.5781 154.146 9.16211 155.543 8.04883C156.949 6.93555 158.771 6.37891 161.007 6.37891C162.491 6.37891 163.814 6.65234 164.977 7.19922C166.139 7.74609 167.052 8.52734 167.716 9.54297C168.38 10.5488 168.712 11.667 168.712 12.8975H165.021C165.021 11.7842 164.669 10.915 163.966 10.29C163.272 9.65527 162.276 9.33789 160.978 9.33789C159.767 9.33789 158.824 9.59668 158.15 10.1143C157.486 10.6318 157.154 11.3545 157.154 12.2822C157.154 13.0635 157.516 13.7178 158.238 14.2451C158.961 14.7627 160.152 15.2705 161.812 15.7686C163.473 16.2568 164.806 16.8184 165.812 17.4531C166.817 18.0781 167.555 18.8008 168.023 19.6211C168.492 20.4316 168.727 21.3838 168.727 22.4775C168.727 24.2549 168.043 25.6709 166.676 26.7256C165.318 27.7705 163.473 28.293 161.139 28.293C159.596 28.293 158.175 28.0098 156.876 27.4434C155.587 26.8672 154.581 26.0762 153.858 25.0703C153.146 24.0645 152.789 22.8926 152.789 21.5547H156.495C156.495 22.7656 156.896 23.7031 157.696 24.3672C158.497 25.0312 159.645 25.3633 161.139 25.3633C162.428 25.3633 163.395 25.1045 164.039 24.5869C164.693 24.0596 165.021 23.3662 165.021 22.5068Z" fill="black"/>
<rect x="116" y="48" width="186" height="8" fill="#C4C4C4"/>
<rect x="116" y="48" width="159" height="8" fill="white"/>
</svg>
