<svg width="106" height="106" viewBox="0 0 106 106" fill="none" xmlns="http://www.w3.org/2000/svg">
<path d="M90.5416 11.0416H15.4583L22.0833 86.125L53 94.9583L83.9166 86.125L90.5416 11.0416Z" fill="#136F82"/>
<path d="M53 17.6666V88.1125L77.7333 81.0458L83.2542 17.6666H53Z" fill="#52C4D3"/>
<path d="M53 55.2084V46.375H71.9917L70.4458 71.7709L53 77.5125V68.2375L62.0542 65.1459L62.7167 55.2084H53ZM72.6542 37.5417L73.3167 28.7084H53V37.5417H72.6542Z" fill="white"/>
<path d="M53 68.2375V77.5125L35.5542 71.7709L34.6709 59.625H43.5042L43.9459 65.1459L53 68.2375ZM42.1792 37.5417H53V28.7084H32.9042L34.45 55.2084H53V46.375H42.8417L42.1792 37.5417Z" fill="#EEEEEE"/>
</svg>
