<svg width="593" height="440" viewBox="0 0 593 440" fill="none" xmlns="http://www.w3.org/2000/svg">
<path d="M72.3492 308.75L64.9754 315.498L74.6227 315.999C76.8747 324.975 77.3422 334.723 75.9438 345.09L73.8419 360.705L60.0424 351.903C31.0622 333.415 20.497 303.235 30.4445 267.523C51.4333 276.865 65.6617 291.059 72.3492 308.75Z" fill="white"/>
<path d="M60.8917 352.114L74.9072 360.934L74.7677 361.939L60.5692 353C30.8736 334.31 20.2051 303.711 30.7777 267.523C30.798 267.528 30.8172 267.537 30.8343 267.549C20.7106 303.339 31.4445 333.581 60.8917 352.114Z" fill="#48A54E"/>
<path d="M73.5543 308.732L66.159 315.494L75.8345 315.999C78.0931 324.975 78.562 334.745 77.1595 345.09L75.0515 360.705L61.2158 351.903C32.1463 333.411 27.9517 304.451 31.5311 267.523C52.5771 276.848 66.8473 291.038 73.5543 308.732Z" fill="#48A54E"/>
<path opacity="0.5" d="M76.1091 318.125C77.5933 326.399 77.7398 334.86 76.5429 343.18L74.4131 358.854L60.4632 350.02C48.1616 342.231 43.9497 342.752 38.3671 331.292C51.6013 349.188 55.9693 326.199 76.1091 318.125Z" fill="#308732"/>
<path d="M75.9835 321.828C77.0001 329.267 76.9841 336.814 75.9358 344.248L73.8055 360.088L59.8527 351.16C57.6602 349.757 55.5734 348.283 53.5921 346.738C58.8474 344.447 63.5629 341.04 67.4241 336.745C71.2853 332.449 74.2033 327.364 75.9835 321.828Z" fill="#308732"/>
<path d="M71.4273 353.843C71.3395 353.886 71.2442 353.911 71.147 353.916C71.0498 353.921 70.9526 353.906 70.8611 353.872C70.7696 353.838 70.6857 353.785 70.6143 353.717C70.5428 353.649 70.4853 353.568 70.445 353.476L40.2549 287.103C40.1783 286.92 40.1739 286.714 40.2427 286.529C40.3115 286.343 40.448 286.192 40.6234 286.108C40.7988 286.024 40.9992 286.013 41.182 286.078C41.3649 286.143 41.5159 286.279 41.6029 286.457L71.793 352.83C71.8343 352.921 71.8576 353.02 71.8616 353.12C71.8655 353.221 71.85 353.321 71.816 353.415C71.782 353.509 71.7302 353.596 71.6634 353.669C71.5967 353.743 71.5165 353.802 71.4273 353.843Z" fill="#91DD4E"/>
<path d="M70.3954 354.534C70.2319 354.534 70.0718 354.487 69.9338 354.399C69.7959 354.31 69.6857 354.183 69.6162 354.034L39.051 287.879C38.959 287.671 38.9514 287.434 39.03 287.221C39.1085 287.007 39.2669 286.833 39.4711 286.736C39.6752 286.639 39.9089 286.627 40.1218 286.702C40.3346 286.778 40.5097 286.935 40.6094 287.139L71.1746 353.294C71.2221 353.398 71.2486 353.511 71.2526 353.626C71.2566 353.741 71.2381 353.856 71.1981 353.964C71.1581 354.071 71.0974 354.17 71.0194 354.253C70.9415 354.337 70.8479 354.405 70.7441 354.452C70.6345 354.503 70.5159 354.531 70.3954 354.534Z" fill="#181828"/>
<path d="M32.1796 306.4C31.8823 306.4 31.5939 306.297 31.3624 306.11C31.1309 305.922 30.9701 305.66 30.9066 305.367C30.7416 304.588 26.8404 286.112 31.5452 269.101C31.638 268.766 31.8593 268.481 32.1603 268.31C32.4613 268.139 32.8175 268.095 33.1505 268.189C33.4835 268.282 33.766 268.505 33.9358 268.808C34.1057 269.112 34.149 269.47 34.0563 269.806C29.5208 286.19 33.4177 304.623 33.4567 304.816C33.5304 305.156 33.467 305.511 33.2804 305.804C33.0939 306.097 32.7994 306.304 32.4619 306.378C32.3689 306.396 32.2742 306.403 32.1796 306.4Z" fill="#91DD4E"/>
<path d="M74.5357 362.557C74.2113 362.557 73.8934 362.465 73.6186 362.29L59.7716 353.467C44.9601 344.033 34.7988 331.68 29.5588 316.761C24.3188 301.843 24.2586 285.111 29.3392 266.945C29.406 266.705 29.5227 266.482 29.6815 266.291C29.8403 266.101 30.0376 265.947 30.2599 265.84C30.4822 265.733 30.7245 265.676 30.9705 265.672C31.2165 265.668 31.4604 265.718 31.6858 265.818C52.8869 275.23 67.7414 289.852 74.6476 308.1C74.7718 308.43 74.7946 308.79 74.7131 309.133C74.6316 309.476 74.4497 309.787 74.1912 310.023L69.8855 313.956L75.4183 314.244C75.785 314.263 76.1361 314.401 76.4203 314.636C76.7046 314.872 76.9072 315.194 76.9985 315.555C79.3278 324.819 79.7843 334.856 78.3634 345.383L76.2493 361.036C76.2106 361.325 76.1013 361.599 75.9313 361.834C75.7614 362.069 75.5362 362.258 75.2762 362.382C75.0453 362.495 74.7923 362.555 74.5357 362.557ZM32.125 269.838C23.2252 304.102 33.6492 332.698 61.6058 350.509L73.1923 357.89L74.9447 344.92C76.2364 335.306 75.9048 326.156 73.9544 317.679L65.5498 317.242C65.206 317.228 64.8743 317.109 64.5974 316.902C64.3204 316.695 64.111 316.408 63.9961 316.079C63.8812 315.75 63.8661 315.393 63.9527 315.055C64.0393 314.717 64.2236 314.413 64.4819 314.183L70.9964 308.214C64.4518 291.906 51.0656 278.683 32.125 269.838Z" fill="#181828"/>
<path d="M36.5216 281.445C36.9339 281.249 36.9559 280.414 36.5707 279.578C36.1854 278.743 35.5389 278.223 35.1266 278.419C34.7142 278.614 34.6923 279.449 35.0776 280.285C35.4628 281.121 36.1093 281.64 36.5216 281.445Z" fill="#91DD4E"/>
<path d="M38.2613 296.106C39.28 298.437 39.2007 300.786 38.0818 301.344C36.9629 301.902 35.2344 300.451 34.2115 298.129C33.1886 295.807 33.2722 293.449 34.3911 292.886C34.9422 292.614 35.5559 293.297 36.2448 293.86C36.9337 294.422 37.7436 294.922 38.2613 296.106Z" fill="#91DD4E"/>
<path d="M46.3576 316.628C45.7481 315.964 45.0271 315.95 44.3532 315.831C43.6794 315.713 43.0914 315.466 42.6837 315.921C42.6332 315.975 42.5873 316.034 42.5464 316.097C42.4434 316.048 42.3324 316.022 42.2202 316.022C42.1079 316.022 41.9969 316.048 41.894 316.097C41.4047 316.348 41.2631 317.174 41.585 317.938C41.6751 318.183 41.8174 318.4 41.9997 318.571C42.182 318.742 42.399 318.861 42.6322 318.92C42.8296 319.307 43.0752 319.662 43.3618 319.973C44.5636 321.287 46.2074 321.605 47.0357 320.685C47.864 319.764 47.5593 317.943 46.3576 316.628Z" fill="#91DD4E"/>
<path d="M41.5165 315.314C41.9374 315.114 42.0359 314.426 41.7363 313.777C41.4368 313.127 40.8528 312.762 40.4319 312.961C40.0109 313.16 39.9125 313.848 40.212 314.498C40.5115 315.148 41.0955 315.513 41.5165 315.314Z" fill="#91DD4E"/>
<path d="M36.3227 292.645C36.7437 292.446 36.8421 291.758 36.5426 291.108C36.2431 290.458 35.659 290.093 35.2381 290.293C34.8171 290.492 34.7187 291.18 35.0182 291.83C35.3178 292.479 35.9018 292.844 36.3227 292.645Z" fill="#91DD4E"/>
<path d="M51.6115 334.184C53.0147 333.52 53.8815 332.394 53.5477 331.67C53.2139 330.946 51.8059 330.898 50.4027 331.562C48.9995 332.226 48.1327 333.352 48.4665 334.076C48.8003 334.8 50.2083 334.848 51.6115 334.184Z" fill="#308732"/>
<path d="M52.6786 330.468C53.1831 330.468 53.5921 330.053 53.5921 329.542C53.5921 329.031 53.1831 328.616 52.6786 328.616C52.1741 328.616 51.7651 329.031 51.7651 329.542C51.7651 330.053 52.1741 330.468 52.6786 330.468Z" fill="#308732"/>
<path d="M91.5256 308.75L98.9893 315.498L89.2245 315.999C86.945 324.975 86.4717 334.723 87.8872 345.09L90.0147 360.705L103.982 351.903C133.316 333.415 144.01 303.235 133.941 267.523C112.697 276.865 98.2946 291.059 91.5256 308.75Z" fill="white"/>
<path d="M103.378 352.114L89.5232 360.934L89.6609 361.939L103.68 353C132.999 334.31 143.533 303.711 133.094 267.523L133.038 267.549C143.047 303.339 132.449 333.581 103.378 352.114Z" fill="#48A54E"/>
<path d="M90.2668 308.732L97.6618 315.494L87.9868 315.999C85.7283 324.975 85.2594 334.745 86.6618 345.09L88.7697 360.705L102.609 351.903C131.673 333.411 135.867 304.451 132.292 267.523C111.243 276.848 96.9735 291.038 90.2668 308.732Z" fill="#48A54E"/>
<path opacity="0.5" d="M88.3037 318.125C86.8404 326.399 86.6962 334.86 87.8768 343.18L89.9731 358.854L103.704 350.02C115.813 342.231 119.959 342.752 125.454 331.292C112.427 349.188 108.128 326.199 88.3037 318.125Z" fill="#308732"/>
<path d="M87.8378 321.828C86.8212 329.267 86.8373 336.814 87.8856 344.248L90.0158 360.088L103.969 351.16C106.158 349.757 108.245 348.283 110.229 346.738C104.974 344.447 100.258 341.04 96.3972 336.745C92.5361 332.449 89.618 327.364 87.8378 321.828Z" fill="#308732"/>
<path d="M92.3952 353.845C92.4851 353.887 92.5824 353.912 92.6817 353.916C92.7809 353.921 92.8801 353.906 92.9735 353.872C93.0669 353.838 93.1527 353.785 93.226 353.718C93.2993 353.65 93.3586 353.569 93.4005 353.478L124.165 287.121C124.25 286.938 124.259 286.728 124.191 286.538C124.123 286.349 123.982 286.194 123.801 286.108C123.619 286.022 123.411 286.013 123.223 286.082C123.034 286.15 122.881 286.292 122.796 286.475L92.0313 352.832C91.9889 352.922 91.9647 353.02 91.96 353.12C91.9554 353.22 91.9704 353.32 92.0042 353.414C92.0381 353.508 92.09 353.595 92.1571 353.669C92.2242 353.743 92.3051 353.802 92.3952 353.845Z" fill="#91DD4E"/>
<path d="M93.4432 354.534C93.3172 354.534 93.1926 354.507 93.0773 354.456C92.9735 354.409 92.8799 354.342 92.802 354.258C92.724 354.174 92.6633 354.075 92.6233 353.968C92.5833 353.86 92.5647 353.746 92.5687 353.631C92.5728 353.516 92.5993 353.403 92.6468 353.298L123.212 287.139C123.312 286.935 123.487 286.778 123.7 286.702C123.912 286.627 124.146 286.639 124.35 286.736C124.554 286.833 124.713 287.007 124.791 287.221C124.87 287.434 124.862 287.671 124.77 287.879L94.2052 354.038C94.1364 354.184 94.0286 354.308 93.894 354.396C93.7594 354.483 93.6033 354.531 93.4432 354.534Z" fill="#181828"/>
<path d="M131.642 306.401C131.548 306.401 131.455 306.391 131.364 306.37C131.196 306.334 131.037 306.265 130.897 306.166C130.756 306.068 130.635 305.943 130.543 305.798C130.45 305.653 130.386 305.491 130.356 305.321C130.325 305.151 130.328 304.977 130.365 304.808C130.408 304.624 134.275 286.174 129.765 269.805C129.672 269.47 129.716 269.111 129.886 268.808C130.055 268.505 130.338 268.282 130.671 268.189C131.004 268.095 131.36 268.139 131.661 268.31C131.962 268.481 132.183 268.766 132.276 269.101C136.981 286.099 133.08 304.581 132.915 305.359C132.853 305.654 132.693 305.917 132.461 306.107C132.23 306.297 131.94 306.4 131.642 306.401Z" fill="#91DD4E"/>
<path d="M89.8855 362.556C89.6342 362.557 89.3858 362.502 89.1577 362.395C88.8969 362.271 88.6709 362.083 88.5001 361.848C88.3294 361.613 88.2194 361.338 88.1803 361.049L86.0659 345.41C84.6449 334.881 85.1057 324.842 87.431 315.576C87.5223 315.215 87.7249 314.893 88.0092 314.657C88.2935 314.421 88.6446 314.284 89.0113 314.265L94.5447 313.976L90.2385 310.042C89.98 309.806 89.7981 309.496 89.7166 309.153C89.6351 308.809 89.658 308.449 89.7821 308.119C96.6719 289.867 111.545 275.243 132.749 265.829C132.973 265.725 133.215 265.672 133.461 265.672C133.707 265.672 133.95 265.725 134.174 265.829C134.397 265.935 134.594 266.089 134.753 266.28C134.912 266.471 135.029 266.694 135.096 266.934C140.177 285.112 140.104 301.9 134.876 316.76C129.648 331.621 119.473 344.042 104.66 353.474L90.8113 362.299C90.533 362.472 90.2119 362.561 89.8855 362.556ZM90.4668 317.669C88.5161 326.148 88.1845 335.309 89.4807 344.916L91.229 357.888L102.821 350.506C130.781 332.691 141.202 304.09 132.301 269.819C113.354 278.665 99.9618 291.891 93.4251 308.216L99.9489 314.186C100.207 314.417 100.392 314.721 100.478 315.059C100.565 315.397 100.55 315.753 100.435 316.082C100.32 316.412 100.11 316.698 99.8335 316.906C99.5566 317.113 99.2248 317.231 98.881 317.245L90.4668 317.669Z" fill="#181828"/>
<path d="M128.88 280.383C129.265 279.548 129.243 278.712 128.831 278.517C128.418 278.322 127.772 278.841 127.386 279.677C127.001 280.512 127.023 281.348 127.436 281.543C127.848 281.738 128.494 281.219 128.88 280.383Z" fill="#91DD4E"/>
<path d="M125.56 296.106C124.541 298.437 124.621 300.786 125.74 301.344C126.859 301.902 128.592 300.451 129.611 298.129C130.63 295.807 130.551 293.449 129.432 292.886C128.88 292.614 128.271 293.297 127.577 293.86C126.884 294.422 126.078 294.922 125.56 296.106Z" fill="#91DD4E"/>
<path d="M117.464 316.628C118.073 315.964 118.794 315.95 119.468 315.831C120.141 315.713 120.729 315.466 121.137 315.921C121.187 315.976 121.235 316.035 121.278 316.097C121.381 316.048 121.491 316.022 121.602 316.022C121.714 316.022 121.824 316.048 121.926 316.097C122.42 316.348 122.557 317.174 122.235 317.938C122.145 318.183 122.003 318.4 121.821 318.571C121.638 318.742 121.421 318.861 121.188 318.92C120.991 319.307 120.745 319.662 120.459 319.973C119.257 321.287 117.614 321.605 116.786 320.685C115.957 319.764 116.262 317.943 117.464 316.628Z" fill="#91DD4E"/>
<path d="M123.747 314.597C124.046 313.947 123.948 313.259 123.527 313.06C123.106 312.861 122.522 313.226 122.223 313.875C121.923 314.525 122.021 315.213 122.442 315.413C122.863 315.612 123.447 315.247 123.747 314.597Z" fill="#91DD4E"/>
<path d="M128.935 291.927C129.235 291.277 129.136 290.589 128.715 290.389C128.294 290.19 127.71 290.555 127.411 291.205C127.111 291.855 127.21 292.543 127.631 292.742C128.052 292.941 128.636 292.576 128.935 291.927Z" fill="#91DD4E"/>
<path d="M115.496 334.179C115.83 333.455 114.963 332.329 113.56 331.665C112.156 331.001 110.748 331.049 110.415 331.773C110.081 332.498 110.948 333.623 112.351 334.287C113.754 334.951 115.162 334.903 115.496 334.179Z" fill="#308732"/>
<path d="M111.143 330.468C111.647 330.468 112.056 330.053 112.056 329.542C112.056 329.031 111.647 328.616 111.143 328.616C110.638 328.616 110.229 329.031 110.229 329.542C110.229 330.053 110.638 330.468 111.143 330.468Z" fill="#308732"/>
<path d="M105.788 307.075L94.8692 310.476L104.678 315.77C102.725 326.23 98.5475 336.612 92.1288 346.718L82.4621 361.939L72.305 345.953C50.9669 312.369 54.4085 275.72 81.8856 243.456C99.2659 263.533 107.294 285.328 105.788 307.075Z" fill="white"/>
<path d="M73.1849 346.798L83.4332 362.81L82.8038 363.791L72.4253 347.564C50.7221 313.64 54.429 276.589 82.8038 244.074L82.8516 244.131C55.1279 276.462 51.6553 313.158 73.1849 346.798Z" fill="#48A54E"/>
<path d="M107.615 307.693L96.6965 311.094L106.505 316.388C104.552 326.848 100.375 337.23 93.9562 347.336L84.2898 362.557L74.133 346.571C52.7954 312.987 62.3027 280.762 83.7134 244.074C101.093 264.151 109.12 285.968 107.615 307.693Z" fill="#48A54E"/>
<path opacity="0.5" d="M105.357 318.601C103.104 327.466 99.2287 336.251 93.7221 344.853L83.9485 360.088L73.6617 344.07C64.6059 329.959 59.9692 328.441 59.6821 313.806C64.8538 338.868 80.4862 317.131 105.357 318.601Z" fill="#308732"/>
<path d="M103.53 322.445C101.031 330.719 97.4011 338.594 92.7468 345.837L82.941 361.322L72.6376 345.059C71.0171 342.506 69.5406 339.936 68.2082 337.347C74.7971 337.566 81.3559 336.35 87.4469 333.78C93.538 331.21 99.0211 327.346 103.53 322.445Z" fill="#308732"/>
<path d="M83.7377 353.3C83.4954 353.3 83.2631 353.209 83.0918 353.046C82.9204 352.884 82.8242 352.663 82.8242 352.433V269.008C82.8242 268.778 82.9204 268.557 83.0918 268.395C83.2631 268.232 83.4954 268.141 83.7377 268.141C83.98 268.141 84.2123 268.232 84.3836 268.395C84.5549 268.557 84.6512 268.778 84.6512 269.008V352.433C84.6512 352.663 84.5549 352.884 84.3836 353.046C84.2123 353.209 83.98 353.3 83.7377 353.3Z" fill="#91DD4E"/>
<path d="M82.5197 353.3C82.2774 353.3 82.045 353.209 81.8737 353.046C81.7024 352.884 81.6062 352.663 81.6062 352.433V269.008C81.6062 268.778 81.7024 268.557 81.8737 268.395C82.045 268.232 82.2774 268.141 82.5197 268.141C82.762 268.141 82.9943 268.232 83.1656 268.395C83.3369 268.557 83.4332 268.778 83.4332 269.008V352.433C83.4332 352.663 83.3369 352.884 83.1656 353.046C82.9943 353.209 82.762 353.3 82.5197 353.3Z" fill="#181828"/>
<path d="M65.8783 284.802C65.7805 284.803 65.6829 284.792 65.5874 284.772C65.4177 284.734 65.2572 284.665 65.115 284.566C64.9728 284.468 64.8518 284.343 64.7589 284.199C64.6659 284.055 64.6029 283.894 64.5733 283.726C64.5438 283.558 64.5484 283.385 64.5868 283.219C64.7896 282.354 69.7 261.529 82.9327 246.379C83.0456 246.25 83.1833 246.143 83.3381 246.066C83.4929 245.989 83.6618 245.942 83.8349 245.929C84.008 245.915 84.1821 245.936 84.3473 245.989C84.5124 246.041 84.6653 246.126 84.7973 246.236C84.9293 246.347 85.0377 246.482 85.1164 246.634C85.1952 246.786 85.2427 246.952 85.2562 247.122C85.2697 247.292 85.2489 247.462 85.1952 247.625C85.1414 247.787 85.0556 247.937 84.9427 248.066C72.1288 262.731 67.214 283.582 67.1655 283.794C67.0987 284.08 66.935 284.336 66.7013 284.519C66.4675 284.702 66.1774 284.802 65.8783 284.802Z" fill="#91DD4E"/>
<path d="M83.071 363.791C82.7815 363.792 82.4966 363.719 82.2422 363.58C81.9878 363.44 81.7722 363.239 81.6152 362.994L71.4203 347.05C60.5385 330.062 55.8687 312.341 57.5966 294.377C59.3246 276.413 67.2257 259.093 81.2005 242.828C81.3612 242.639 81.56 242.488 81.7835 242.384C82.007 242.279 82.2501 242.224 82.4965 242.222C82.7418 242.222 82.9843 242.275 83.2077 242.378C83.4312 242.48 83.6305 242.629 83.7924 242.815C101.323 262.913 109.772 285.277 108.221 307.484C108.197 307.836 108.068 308.172 107.851 308.449C107.633 308.725 107.338 308.928 107.003 309.031L100.027 311.209L106.191 314.511C106.517 314.685 106.78 314.96 106.94 315.295C107.1 315.631 107.15 316.009 107.081 316.375C105.064 327.078 100.744 337.663 94.2336 347.835L84.5268 363.002C84.3688 363.246 84.1527 363.446 83.8984 363.583C83.6441 363.721 83.3596 363.792 83.071 363.791ZM82.5008 246.657C56.5339 277.911 53.6137 312.829 74.3232 345.173L83.0667 358.838L91.322 345.935C97.3353 336.544 101.405 326.804 103.418 316.972L94.7045 312.307C94.4022 312.145 94.1543 311.897 93.992 311.594C93.8296 311.29 93.7602 310.945 93.7926 310.602C93.825 310.258 93.9577 309.933 94.1738 309.665C94.39 309.398 94.6799 309.202 95.0069 309.101L104.826 306.051C105.915 285.752 98.2122 265.27 82.5008 246.657Z" fill="#181828"/>
<path d="M81.9107 261.353C82.4152 261.353 82.8242 260.524 82.8242 259.501C82.8242 258.479 82.4152 257.65 81.9107 257.65C81.4062 257.65 80.9972 258.479 80.9972 259.501C80.9972 260.524 81.4062 261.353 81.9107 261.353Z" fill="#91DD4E"/>
<path d="M76.7342 277.705C76.7342 280.595 75.5058 282.951 73.9914 282.951C72.4771 282.951 71.2532 280.603 71.2532 277.705C71.2532 274.807 72.4816 272.46 73.9914 272.46C74.7374 272.46 75.0859 273.47 75.5817 274.392C76.0776 275.314 76.7342 276.241 76.7342 277.705Z" fill="#91DD4E"/>
<path d="M75.1963 302.464C74.8371 301.475 74.0606 301.084 73.4007 300.625C72.7408 300.165 72.1932 299.599 71.5423 299.847C71.4617 299.876 71.3836 299.911 71.3088 299.953C71.2212 299.85 71.1138 299.767 70.9934 299.708C70.8729 299.65 70.7419 299.617 70.6086 299.613C69.9532 299.613 69.428 300.372 69.428 301.305C69.4151 301.598 69.4707 301.89 69.5901 302.156C69.7096 302.423 69.8895 302.656 70.1148 302.837C70.1493 303.33 70.252 303.817 70.42 304.281C71.1203 306.231 72.7633 307.403 74.0875 306.902C75.4117 306.401 75.8965 304.414 75.1963 302.464Z" fill="#91DD4E"/>
<path d="M70.9486 298.995C71.4531 298.995 71.8622 298.304 71.8622 297.452C71.8622 296.6 71.4531 295.91 70.9486 295.91C70.4441 295.91 70.0352 296.6 70.0352 297.452C70.0352 298.304 70.4441 298.995 70.9486 298.995Z" fill="#91DD4E"/>
<path d="M76.4297 272.46C76.9342 272.46 77.3432 271.908 77.3432 271.226C77.3432 270.544 76.9342 269.992 76.4297 269.992C75.9252 269.992 75.5162 270.544 75.5162 271.226C75.5162 271.908 75.9252 272.46 76.4297 272.46Z" fill="#91DD4E"/>
<path d="M72.4712 323.679C74.1529 323.679 75.5162 322.85 75.5162 321.828C75.5162 320.805 74.1529 319.977 72.4712 319.977C70.7895 319.977 69.4261 320.805 69.4261 321.828C69.4261 322.85 70.7895 323.679 72.4712 323.679Z" fill="#308732"/>
<path d="M75.8207 319.977C76.3252 319.977 76.7342 319.562 76.7342 319.051C76.7342 318.54 76.3252 318.125 75.8207 318.125C75.3162 318.125 74.9072 318.54 74.9072 319.051C74.9072 319.562 75.3162 319.977 75.8207 319.977Z" fill="#308732"/>
<path d="M37.1491 361.322H123.627V383.381C123.627 394.879 119.072 405.906 110.963 414.037C102.854 422.167 91.8559 426.735 80.3882 426.735C68.9205 426.735 57.9225 422.167 49.8136 414.037C41.7047 405.906 37.1491 394.879 37.1491 383.381V361.322Z" fill="#DBDBDD"/>
<path d="M107.963 361.939V384.117C107.959 386.264 107.802 388.408 107.492 390.532L107.458 390.492C107.458 390.492 105.085 408.066 87.4652 414.376C77.5443 417.928 66.6011 416.383 57.6465 410.793C51.3786 406.892 46.2034 401.431 42.6151 394.932C39.0267 388.432 37.1448 381.11 37.1491 373.665V384.374C37.1491 395.936 41.6891 407.025 49.7702 415.2C57.8514 423.376 68.8117 427.969 80.2402 427.969C91.8453 427.941 102.985 423.351 111.308 415.169C119.631 406.986 124.485 395.852 124.845 384.117V361.939H107.963Z" fill="#BCBCC9"/>
<path opacity="0.5" d="M108.402 361.939V384.099C108.401 386.246 108.246 388.39 107.936 390.513L107.902 390.469C107.902 390.469 105.551 408.033 88.0878 414.338C82.6866 416.27 76.8869 416.744 71.2532 415.712C72.9857 415.397 74.69 414.937 76.3489 414.338C93.812 408.033 96.1632 390.469 96.1632 390.469L96.1973 390.513C96.5065 388.39 96.6623 386.246 96.6633 384.099V361.939H108.402Z" fill="#BCBCC9"/>
<path d="M63.7542 395.793C69.602 392.372 71.9726 385.439 69.0491 380.308C66.1256 375.177 59.0151 373.791 53.1673 377.212C47.3195 380.633 44.9489 387.566 47.8724 392.697C50.7959 397.828 57.9065 399.214 63.7542 395.793Z" fill="#E6E6EF"/>
<path d="M80.0837 431.055C68.2149 431.043 56.8356 426.23 48.4436 417.672C40.0515 409.114 35.3323 397.51 35.3221 385.408V361.322H124.845V385.408C124.835 397.51 120.116 409.114 111.724 417.672C103.332 426.23 91.9524 431.043 80.0837 431.055ZM38.7686 364.837V385.408C38.7686 396.581 43.1214 407.297 50.8695 415.197C58.6176 423.097 69.1262 427.536 80.0837 427.536C91.0411 427.536 101.55 423.097 109.298 415.197C117.046 407.297 121.399 396.581 121.399 385.408V364.837H38.7686Z" fill="#181828"/>
<path d="M126.643 354.535H36.569C32.1806 354.535 28.6231 358.125 28.6231 362.555V362.559C28.6231 366.989 32.1806 370.579 36.569 370.579H126.643C131.032 370.579 134.589 366.989 134.589 362.559V362.555C134.589 358.125 131.032 354.535 126.643 354.535Z" fill="#DBDBDD"/>
<path opacity="0.5" d="M123.627 362.555C123.628 363.608 123.424 364.652 123.028 365.625C122.631 366.599 122.05 367.483 121.317 368.229C120.584 368.974 119.713 369.565 118.755 369.968C117.798 370.372 116.771 370.579 115.734 370.579H93.1772C95.2394 370.53 97.201 369.664 98.6425 368.165C100.084 366.665 100.891 364.653 100.891 362.557C100.891 360.461 100.084 358.448 98.6425 356.949C97.201 355.45 95.2394 354.584 93.1772 354.535H115.734C117.827 354.535 119.835 355.38 121.315 356.884C122.796 358.388 123.627 360.428 123.627 362.555Z" fill="#BCBCC9"/>
<path d="M65.4655 358.854H31.3657C30.9613 358.854 30.5736 358.692 30.2876 358.402C30.0017 358.113 29.8411 357.72 29.8411 357.311C29.8411 356.902 30.0017 356.51 30.2876 356.22C30.5736 355.931 30.9613 355.769 31.3657 355.769H65.4655C65.8699 355.769 66.2577 355.931 66.5436 356.22C66.8295 356.51 66.9902 356.902 66.9902 357.311C66.9902 357.72 66.8295 358.113 66.5436 358.402C66.2577 358.692 65.8699 358.854 65.4655 358.854Z" fill="white"/>
<path d="M44.4571 359.471C44.7935 359.471 45.0661 359.195 45.0661 358.854C45.0661 358.513 44.7935 358.237 44.4571 358.237C44.1208 358.237 43.8481 358.513 43.8481 358.854C43.8481 359.195 44.1208 359.471 44.4571 359.471Z" fill="white"/>
<path d="M47.1976 361.322C47.7021 361.322 48.1111 360.908 48.1111 360.396C48.1111 359.885 47.7021 359.471 47.1976 359.471C46.6931 359.471 46.2841 359.885 46.2841 360.396C46.2841 360.908 46.6931 361.322 47.1976 361.322Z" fill="white"/>
<path d="M134.589 362.555C134.59 363.608 134.386 364.652 133.99 365.625C133.593 366.599 133.012 367.483 132.279 368.229C131.546 368.974 130.675 369.565 129.717 369.968C128.76 370.372 127.733 370.579 126.696 370.579H104.139C106.201 370.53 108.163 369.664 109.604 368.165C111.046 366.665 111.853 364.653 111.853 362.557C111.853 360.461 111.046 358.448 109.604 356.949C108.163 355.45 106.201 354.584 104.139 354.535H126.696C128.789 354.535 130.797 355.38 132.277 356.884C133.758 358.388 134.589 360.428 134.589 362.555Z" fill="#BCBCC9"/>
<path d="M125.761 372.428H36.0317C34.7488 372.456 33.4734 372.221 32.2802 371.737C31.087 371.254 30.0001 370.531 29.0832 369.612C28.1663 368.692 27.4379 367.595 26.9406 366.383C26.4433 365.172 26.1871 363.871 26.1871 362.557C26.1871 361.243 26.4433 359.942 26.9406 358.73C27.4379 357.519 28.1663 356.421 29.0832 355.502C30.0001 354.582 31.087 353.86 32.2802 353.376C33.4734 352.892 34.7488 352.658 36.0317 352.685H125.761C128.282 352.74 130.682 353.804 132.446 355.649C134.21 357.494 135.198 359.974 135.198 362.557C135.198 365.139 134.21 367.619 132.446 369.464C130.682 371.31 128.282 372.374 125.761 372.428ZM36.0317 356.21C35.2042 356.188 34.3806 356.335 33.6097 356.644C32.8387 356.953 32.136 357.417 31.543 358.009C30.9499 358.6 30.4786 359.307 30.1568 360.089C29.8349 360.87 29.6691 361.709 29.6691 362.557C29.6691 363.405 29.8349 364.244 30.1568 365.025C30.4786 365.806 30.9499 366.513 31.543 367.105C32.136 367.696 32.8387 368.16 33.6097 368.469C34.3806 368.778 35.2042 368.926 36.0317 368.903H125.761C127.376 368.86 128.911 368.172 130.039 366.987C131.166 365.801 131.797 364.212 131.797 362.557C131.797 360.902 131.166 359.312 130.039 358.127C128.911 356.941 127.376 356.254 125.761 356.21H36.0317Z" fill="#181828"/>
<path d="M56.1674 379.836H37.0098C36.7237 379.836 36.4494 379.706 36.2471 379.474C36.0448 379.243 35.9311 378.929 35.9311 378.601C35.9311 378.274 36.0448 377.96 36.2471 377.729C36.4494 377.497 36.7237 377.367 37.0098 377.367H56.1674C56.4535 377.367 56.7279 377.497 56.9302 377.729C57.1325 377.96 57.2461 378.274 57.2461 378.601C57.2461 378.929 57.1325 379.243 56.9302 379.474C56.7279 379.706 56.4535 379.836 56.1674 379.836Z" fill="#181828"/>
<path d="M68.328 379.836H61.9983C61.707 379.836 61.4277 379.706 61.2218 379.474C61.0158 379.243 60.9001 378.929 60.9001 378.601C60.9001 378.274 61.0158 377.96 61.2218 377.729C61.4277 377.497 61.707 377.367 61.9983 377.367H68.328C68.6193 377.367 68.8986 377.497 69.1045 377.729C69.3104 377.96 69.4262 378.274 69.4262 378.601C69.4262 378.929 69.3104 379.243 69.1045 379.474C68.8986 379.706 68.6193 379.836 68.328 379.836Z" fill="#181828"/>
<path d="M52.3741 361.322C53.7195 361.322 54.8101 360.355 54.8101 359.162C54.8101 357.969 53.7195 357.002 52.3741 357.002C51.0288 357.002 49.9381 357.969 49.9381 359.162C49.9381 360.355 51.0288 361.322 52.3741 361.322Z" fill="white"/>
<path d="M56.6372 361.322C57.3098 361.322 57.8551 360.908 57.8551 360.396C57.8551 359.885 57.3098 359.471 56.6372 359.471C55.9645 359.471 55.4191 359.885 55.4191 360.396C55.4191 360.908 55.9645 361.322 56.6372 361.322Z" fill="white"/>
<path d="M114.488 254.564C113.886 254.563 113.298 254.382 112.797 254.042C112.297 253.702 111.908 253.22 111.678 252.656C111.448 252.092 111.388 251.472 111.506 250.874C111.624 250.276 111.915 249.726 112.341 249.295C112.767 248.864 113.309 248.571 113.9 248.452C114.49 248.333 115.102 248.395 115.659 248.628C116.215 248.862 116.69 249.257 117.024 249.765C117.359 250.272 117.537 250.868 117.537 251.479C117.536 252.297 117.214 253.082 116.643 253.661C116.071 254.239 115.296 254.564 114.488 254.564ZM114.488 249.699C114.141 249.699 113.802 249.805 113.513 250.001C113.225 250.197 113 250.475 112.868 250.8C112.736 251.126 112.702 251.483 112.77 251.828C112.838 252.173 113.006 252.49 113.252 252.739C113.498 252.987 113.811 253.156 114.151 253.225C114.492 253.293 114.845 253.257 115.165 253.123C115.486 252.988 115.76 252.76 115.953 252.467C116.146 252.174 116.249 251.83 116.249 251.479C116.248 251.006 116.062 250.553 115.732 250.22C115.401 249.886 114.954 249.699 114.488 249.699Z" fill="#181828"/>
<path d="M23.1421 337.873C22.5398 337.873 21.9511 337.692 21.4503 337.353C20.9496 337.014 20.5593 336.532 20.3288 335.968C20.0984 335.404 20.0381 334.784 20.1556 334.185C20.273 333.587 20.5631 333.037 20.9889 332.605C21.4148 332.174 21.9573 331.88 22.548 331.761C23.1387 331.642 23.7509 331.703 24.3073 331.937C24.8637 332.17 25.3393 332.566 25.6739 333.073C26.0084 333.58 26.1871 334.177 26.1871 334.787C26.1859 335.605 25.8647 336.389 25.2939 336.968C24.7231 337.546 23.9493 337.872 23.1421 337.873ZM23.1421 333.007C22.7947 333.007 22.455 333.112 22.1662 333.307C21.8773 333.503 21.6522 333.781 21.5192 334.106C21.3863 334.431 21.3515 334.789 21.4192 335.134C21.487 335.48 21.6543 335.797 21.9 336.046C22.1457 336.295 22.4586 336.464 22.7994 336.533C23.1401 336.602 23.4933 336.566 23.8142 336.432C24.1352 336.297 24.4096 336.069 24.6026 335.776C24.7956 335.483 24.8986 335.139 24.8986 334.787C24.8986 334.315 24.7135 333.862 24.3841 333.529C24.0547 333.195 23.608 333.007 23.1421 333.007Z" fill="#181828"/>
<path d="M145.551 343.426C144.949 343.426 144.36 343.245 143.86 342.906C143.359 342.567 142.969 342.085 142.738 341.522C142.508 340.958 142.447 340.337 142.565 339.739C142.682 339.14 142.972 338.591 143.398 338.159C143.824 337.728 144.367 337.434 144.957 337.315C145.548 337.196 146.16 337.257 146.717 337.49C147.273 337.724 147.749 338.119 148.083 338.627C148.418 339.134 148.596 339.731 148.596 340.341C148.595 341.159 148.274 341.943 147.703 342.521C147.132 343.1 146.359 343.425 145.551 343.426ZM145.551 338.561C145.204 338.561 144.864 338.665 144.575 338.861C144.287 339.056 144.061 339.334 143.928 339.66C143.796 339.985 143.761 340.343 143.829 340.688C143.896 341.033 144.064 341.351 144.309 341.599C144.555 341.848 144.868 342.018 145.209 342.087C145.549 342.155 145.903 342.12 146.224 341.985C146.545 341.851 146.819 341.622 147.012 341.33C147.205 341.037 147.308 340.693 147.308 340.341C147.309 340.106 147.265 339.874 147.177 339.656C147.089 339.439 146.96 339.242 146.797 339.075C146.634 338.909 146.44 338.776 146.226 338.686C146.012 338.595 145.783 338.548 145.551 338.548V338.561Z" fill="#181828"/>
<path opacity="0.18" d="M463.146 261.97C484.503 261.97 501.817 244.426 501.817 222.784C501.817 201.142 484.503 183.598 463.146 183.598C441.788 183.598 424.474 201.142 424.474 222.784C424.474 244.426 441.788 261.97 463.146 261.97Z" fill="#1BF1F1"/>
<path opacity="0.18" d="M108.707 54.6237C123.338 54.6237 135.198 42.6053 135.198 27.7799C135.198 12.9544 123.338 0.936035 108.707 0.936035C94.0759 0.936035 82.2152 12.9544 82.2152 27.7799C82.2152 42.6053 94.0759 54.6237 108.707 54.6237Z" fill="#F107B3"/>
<path d="M437.82 281.716C436.968 282.135 436.072 282.454 435.149 282.665L434.641 282.801C416.612 287.277 340.997 291.536 326.628 291.59H326.2C314.849 291.59 265.222 288.877 236.029 285.541L233.091 285.351C229.111 284.862 225.585 284.374 222.701 283.859C221.071 283.587 219.629 283.289 218.454 283.018L217.706 282.801C215.035 282.068 213.779 281.363 214.634 280.631C214.864 280.461 215.116 280.324 215.382 280.224C217.352 279.413 219.211 278.346 220.911 277.05C222.132 276.146 223.267 275.128 224.303 274.012C224.396 273.944 224.477 273.862 224.543 273.767C225.307 272.954 226.021 272.093 226.68 271.19C226.784 271.091 226.866 270.971 226.921 270.838C230.8 264.939 233.521 258.334 234.934 251.387C236.456 245.392 237.604 239.234 239.768 233.429C241.106 229.334 243.042 225.466 245.511 221.954C246.253 220.904 247.065 219.907 247.941 218.97C248.422 218.464 248.929 217.949 249.464 217.424C253.164 213.938 257.316 210.982 261.803 208.635C263.433 207.767 265.089 206.953 266.771 206.221C275.446 202.555 284.548 200.039 293.855 198.734C296.526 198.354 298.956 198.001 301.521 197.676C309.533 196.699 317.894 196.102 326.2 195.939H326.628C337.456 196.127 348.261 197.033 358.973 198.652C370.131 200.136 380.965 203.511 391.025 208.635C392.12 209.232 393.188 209.856 394.256 210.507C395.861 211.455 397.404 212.506 398.877 213.654C400.427 214.801 401.907 216.042 403.311 217.37C408.198 222.248 411.752 228.334 413.621 235.03C415.17 239.804 416.292 244.823 417.494 249.733C418.887 257.19 421.71 264.296 425.8 270.648C426.525 271.671 427.319 272.641 428.178 273.55C429.305 274.773 430.538 275.89 431.864 276.887C432.722 277.515 433.614 278.094 434.535 278.623C435.437 279.149 436.374 279.611 437.339 280.007L437.82 280.224C438.728 280.766 438.674 281.254 437.82 281.716Z" fill="#122E4F"/>
<path d="M434.547 282.703C422.894 284.987 411.111 286.513 399.269 287.271C405.413 254.841 397.494 225.762 390.979 208.899C395.348 211.233 399.399 214.141 403.03 217.547C420.006 233.762 412.908 262.813 431.342 276.839C433.028 278.131 434.871 279.193 436.825 280.001C438.864 281.001 437.831 281.866 434.547 282.703Z" fill="#35428B"/>
<path d="M217.779 282.667C229.573 284.97 241.5 286.508 253.486 287.271C247.272 254.586 255.281 225.278 261.871 208.282C257.452 210.634 253.354 213.565 249.682 216.998C232.512 233.34 239.691 262.621 221.047 276.757C219.347 278.146 217.474 279.301 215.475 280.189C213.306 280.924 214.458 281.796 217.779 282.667Z" fill="#35428B"/>
<path d="M214.22 280.853C216.709 279.862 219.02 278.487 221.068 276.78C220.021 279.174 218.714 281.45 217.17 283.568C213.354 282.663 212.001 281.758 214.22 280.853Z" fill="#D5E4EC"/>
<path d="M434.461 282.951C433.207 281.19 432.107 279.332 431.173 277.397C432.902 278.643 434.793 279.669 436.797 280.448C438.89 281.282 437.83 282.116 434.461 282.951Z" fill="#D5E4EC"/>
<path d="M343.268 195.254C343.524 196.178 343.545 197.151 343.329 198.085C343.113 199.019 342.668 199.885 342.032 200.604C340.131 202.819 337.808 204.637 335.198 205.955C332.588 207.272 329.742 208.063 326.823 208.281H326.635C323.716 208.066 320.869 207.276 318.259 205.959C315.648 204.641 313.326 202.821 311.426 200.604C310.791 199.885 310.345 199.019 310.129 198.085C309.914 197.151 309.935 196.178 310.19 195.254C313.791 181.024 312.447 151.333 312.447 151.333L326.635 146.571H326.823L341.011 151.333C341.011 151.333 339.667 181.024 343.268 195.254Z" fill="#FDC6A2"/>
<path d="M341.65 182.052C327.717 183.329 318.286 180.461 312.418 177.383C312.418 176.784 312.418 176.184 312.418 175.558C316.596 177.854 321.264 179.176 326.056 179.418V178.453C326.056 179.079 326.19 179.418 326.19 179.418C330.204 179.266 334.14 178.289 337.738 176.549C338.836 176.053 339.935 175.532 341.034 174.958C341.034 175.662 341.034 176.366 341.034 177.07C341.435 178.766 341.65 180.435 341.65 182.052Z" fill="#F1AE8B"/>
<path d="M442.135 289.098V420.564H209.496V289.098C209.495 285.622 210.46 282.216 212.28 279.272C214.1 276.328 216.701 273.966 219.784 272.458C221.942 271.37 224.299 270.751 226.705 270.639C227.034 270.612 227.365 270.612 227.694 270.639H423.831C424.382 270.599 424.936 270.599 425.487 270.639C427.774 270.831 430.001 271.486 432.034 272.567C435.064 274.096 437.615 276.453 439.399 279.373C441.183 282.293 442.131 285.661 442.135 289.098Z" fill="#DAE5F2"/>
<path d="M442.135 366.259V427.352H209.496V377.203C258.338 391.577 348.967 407.249 442.135 366.259Z" fill="#C4D7E9"/>
<path d="M584.743 421.181H7.81563C3.49917 421.181 0 425.325 0 430.438C0 435.55 3.49917 439.694 7.81563 439.694H584.743C589.059 439.694 592.558 435.55 592.558 430.438C592.558 425.325 589.059 421.181 584.743 421.181Z" fill="#FFB29C"/>
<path opacity="0.45" d="M592.558 430.453C592.552 432.906 591.726 435.257 590.261 436.989C588.796 438.721 586.812 439.694 584.743 439.694H7.7933C5.72639 439.694 3.74413 438.721 2.28261 436.987C0.821082 435.254 5.5073e-06 432.904 5.5073e-06 430.453C-0.00176782 428.696 0.424747 426.977 1.22818 425.501C1.9313 426.81 2.90169 427.886 4.04936 428.632C5.19703 429.377 6.48481 429.767 7.7933 429.764H584.743C585.764 429.774 586.776 429.545 587.723 429.091C588.669 428.637 589.531 427.966 590.258 427.116C590.658 426.638 591.017 426.115 591.33 425.554C592.125 427.014 592.552 428.714 592.558 430.453Z" fill="#E48C7C"/>
<path d="M430.246 433.523H349.884C348.364 433.523 347.131 434.767 347.131 436.3C347.131 437.834 348.364 439.077 349.884 439.077H430.246C431.767 439.077 433 437.834 433 436.3C433 434.767 431.767 433.523 430.246 433.523Z" fill="#D27E72"/>
<path d="M453.477 433.523H442.973C441.501 433.523 440.308 434.767 440.308 436.3C440.308 437.834 441.501 439.077 442.973 439.077H453.477C454.949 439.077 456.142 437.834 456.142 436.3C456.142 434.767 454.949 433.523 453.477 433.523Z" fill="#D27E72"/>
<path d="M94.6866 420.564H14.3246C12.8038 420.564 11.571 421.807 11.571 423.341C11.571 424.875 12.8038 426.118 14.3246 426.118H94.6866C96.2074 426.118 97.4402 424.875 97.4402 423.341C97.4402 421.807 96.2074 420.564 94.6866 420.564Z" fill="white"/>
<path d="M118.424 420.564H107.516C105.987 420.564 104.748 421.807 104.748 423.341C104.748 424.875 105.987 426.118 107.516 426.118H118.424C119.952 426.118 121.191 424.875 121.191 423.341C121.191 421.807 119.952 420.564 118.424 420.564Z" fill="white"/>
<path d="M561.631 433.523H494.378C493.105 433.523 492.073 434.767 492.073 436.3C492.073 437.834 493.105 439.077 494.378 439.077H561.631C562.904 439.077 563.935 437.834 563.935 436.3C563.935 434.767 562.904 433.523 561.631 433.523Z" fill="#D27E72"/>
<path d="M581.271 433.523H572.787C571.598 433.523 570.634 434.767 570.634 436.3C570.634 437.834 571.598 439.077 572.787 439.077H581.271C582.46 439.077 583.423 437.834 583.423 436.3C583.423 434.767 582.46 433.523 581.271 433.523Z" fill="#D27E72"/>
<path d="M394.328 379.835C396.515 379.835 398.287 378.039 398.287 375.824C398.287 373.609 396.515 371.813 394.328 371.813C392.142 371.813 390.37 373.609 390.37 375.824C390.37 378.039 392.142 379.835 394.328 379.835Z" fill="#C4D7E9"/>
<path d="M373.318 382.304C377.018 382.304 380.017 379.265 380.017 375.516C380.017 371.767 377.018 368.728 373.318 368.728C369.618 368.728 366.619 371.767 366.619 375.516C366.619 379.265 369.618 382.304 373.318 382.304Z" fill="#C4D7E9"/>
<path d="M387.02 367.494C388.198 367.494 389.152 366.527 389.152 365.334C389.152 364.141 388.198 363.174 387.02 363.174C385.843 363.174 384.889 364.141 384.889 365.334C384.889 366.527 385.843 367.494 387.02 367.494Z" fill="#C4D7E9"/>
<path d="M387.02 390.326C389.879 390.326 392.197 387.978 392.197 385.081C392.197 382.184 389.879 379.835 387.02 379.835C384.161 379.835 381.844 382.184 381.844 385.081C381.844 387.978 384.161 390.326 387.02 390.326Z" fill="#C4D7E9"/>
<path d="M403.768 374.899C405.113 374.899 406.204 373.655 406.204 372.122C406.204 370.588 405.113 369.345 403.768 369.345C402.423 369.345 401.332 370.588 401.332 372.122C401.332 373.655 402.423 374.899 403.768 374.899Z" fill="#C4D7E9"/>
<path d="M407.422 365.025C410.785 365.025 413.512 362.401 413.512 359.163C413.512 355.925 410.785 353.3 407.422 353.3C404.059 353.3 401.332 355.925 401.332 359.163C401.332 362.401 404.059 365.025 407.422 365.025Z" fill="#C4D7E9"/>
<path d="M277.246 276.163H230.203V270.609H282.577C282.577 272.082 282.015 273.495 281.015 274.536C280.016 275.578 278.66 276.163 277.246 276.163Z" fill="white"/>
<path d="M298.454 276.163H294.104C292.662 276.163 291.279 275.578 290.259 274.536C289.24 273.495 288.667 272.082 288.667 270.609H303.892C303.892 272.082 303.319 273.495 302.299 274.536C301.279 275.578 299.896 276.163 298.454 276.163Z" fill="white"/>
<path d="M203.711 434.14C205.897 434.14 207.669 432.345 207.669 430.129C207.669 427.914 205.897 426.118 203.711 426.118C201.525 426.118 199.752 427.914 199.752 430.129C199.752 432.345 201.525 434.14 203.711 434.14Z" fill="#E48C7C"/>
<path d="M214.978 426.735C215.65 426.735 216.196 426.182 216.196 425.501C216.196 424.819 215.65 424.267 214.978 424.267C214.305 424.267 213.76 424.819 213.76 425.501C213.76 426.182 214.305 426.735 214.978 426.735Z" fill="#E48C7C"/>
<path d="M186.354 433.523C188.372 433.523 190.008 431.727 190.008 429.512C190.008 427.297 188.372 425.501 186.354 425.501C184.336 425.501 182.7 427.297 182.7 429.512C182.7 431.727 184.336 433.523 186.354 433.523Z" fill="#E48C7C"/>
<path d="M193.662 426.735C194.335 426.735 194.88 426.182 194.88 425.501C194.88 424.819 194.335 424.267 193.662 424.267C192.99 424.267 192.444 424.819 192.444 425.501C192.444 426.182 192.99 426.735 193.662 426.735Z" fill="#E48C7C"/>
<path d="M196.403 433.523C197.244 433.523 197.925 432.694 197.925 431.672C197.925 430.649 197.244 429.82 196.403 429.82C195.562 429.82 194.88 430.649 194.88 431.672C194.88 432.694 195.562 433.523 196.403 433.523Z" fill="#E48C7C"/>
<path d="M213.455 435.374C214.632 435.374 215.586 434.546 215.586 433.523C215.586 432.501 214.632 431.672 213.455 431.672C212.278 431.672 211.323 432.501 211.323 433.523C211.323 434.546 212.278 435.374 213.455 435.374Z" fill="#E48C7C"/>
<path d="M208.888 426.118C209.56 426.118 210.106 425.565 210.106 424.884C210.106 424.202 209.56 423.649 208.888 423.649C208.215 423.649 207.669 424.202 207.669 424.884C207.669 425.565 208.215 426.118 208.888 426.118Z" fill="#E48C7C"/>
<path d="M230.203 283.568C233.566 283.568 236.293 280.667 236.293 277.088C236.293 273.51 233.566 270.609 230.203 270.609C226.839 270.609 224.113 273.51 224.113 277.088C224.113 280.667 226.839 283.568 230.203 283.568Z" fill="white"/>
<path opacity="0.72" d="M234.161 289.122C235.338 289.122 236.293 288.155 236.293 286.962C236.293 285.769 235.338 284.802 234.161 284.802C232.984 284.802 232.03 285.769 232.03 286.962C232.03 288.155 232.984 289.122 234.161 289.122Z" fill="white"/>
<path opacity="0.42" d="M230.812 297.144C232.493 297.144 233.857 295.762 233.857 294.058C233.857 292.354 232.493 290.973 230.812 290.973C229.13 290.973 227.767 292.354 227.767 294.058C227.767 295.762 229.13 297.144 230.812 297.144Z" fill="white"/>
<path d="M220.459 285.419C221.804 285.419 222.895 284.314 222.895 282.951C222.895 281.588 221.804 280.482 220.459 280.482C219.113 280.482 218.023 281.588 218.023 282.951C218.023 284.314 219.113 285.419 220.459 285.419Z" fill="white"/>
<path d="M227.158 287.887C227.83 287.887 228.376 287.473 228.376 286.962C228.376 286.451 227.83 286.036 227.158 286.036C226.485 286.036 225.94 286.451 225.94 286.962C225.94 287.473 226.485 287.887 227.158 287.887Z" fill="white"/>
<path d="M217.109 91.65C221.65 91.65 225.33 87.9201 225.33 83.3191C225.33 78.7181 221.65 74.9883 217.109 74.9883C212.568 74.9883 208.887 78.7181 208.887 83.3191C208.887 87.9201 212.568 91.65 217.109 91.65Z" fill="#F1167D"/>
<path d="M426.301 27.4714C430.673 27.4714 434.218 23.8797 434.218 19.4491C434.218 15.0185 430.673 11.4268 426.301 11.4268C421.929 11.4268 418.384 15.0185 418.384 19.4491C418.384 23.8797 421.929 27.4714 426.301 27.4714Z" fill="#F1167D"/>
<path d="M88.9142 235.435C100.013 235.435 109.011 226.179 109.011 214.762C109.011 203.344 100.013 194.089 88.9142 194.089C77.8149 194.089 68.8171 203.344 68.8171 214.762C68.8171 226.179 77.8149 235.435 88.9142 235.435Z" fill="#1BF1F1"/>
<path d="M222.894 182.981C230.63 182.981 236.902 176.626 236.902 168.788C236.902 160.949 230.63 154.594 222.894 154.594C215.159 154.594 208.887 160.949 208.887 168.788C208.887 176.626 215.159 182.981 222.894 182.981Z" fill="#11B3D8"/>
<path d="M487.81 80.5419C495.546 80.5419 501.817 74.1873 501.817 66.3486C501.817 58.5098 495.546 52.1553 487.81 52.1553C480.074 52.1553 473.803 58.5098 473.803 66.3486C473.803 74.1873 480.074 80.5419 487.81 80.5419Z" fill="#35428B"/>
<path d="M156.209 168.787C159.404 168.787 161.994 166.162 161.994 162.924C161.994 159.687 159.404 157.062 156.209 157.062C153.014 157.062 150.423 159.687 150.423 162.924C150.423 166.162 153.014 168.787 156.209 168.787Z" fill="#1BF1F1"/>
<path d="M324.598 379.218C340.742 379.218 353.83 365.956 353.83 349.597C353.83 333.238 340.742 319.977 324.598 319.977C308.453 319.977 295.366 333.238 295.366 349.597C295.366 365.956 308.453 379.218 324.598 379.218Z" fill="#F9F7F7"/>
<path d="M360.633 47.481C352.553 40.722 342.631 36.62 332.191 35.7216C331.634 35.669 331.067 35.6208 330.501 35.5857C329.787 35.5419 329.065 35.5112 328.338 35.4937C327.906 35.4937 327.473 35.4937 327.015 35.4937C326.557 35.4937 326.129 35.4937 325.692 35.4937C325.255 35.4937 324.909 35.4937 324.52 35.5331H324.161C323.767 35.5331 323.374 35.5769 322.98 35.6032H322.803C322.414 35.6339 322.025 35.6646 321.635 35.704H321.523C321.238 35.7303 320.952 35.761 320.658 35.7961C320.122 35.8574 319.59 35.9232 319.062 35.9977L318.695 36.0547C318.401 36.0985 318.107 36.1423 317.83 36.1949L317.281 36.287L316.39 36.4535L315.927 36.5456C315.663 36.5982 315.404 36.6507 315.144 36.7121L314.47 36.8655C314.245 36.9137 314.037 36.9663 313.799 37.0277L313.255 37.1636C313.155 37.1855 313.051 37.2118 312.952 37.2424C294.88 42.0242 281.132 55.8612 275.286 73.1168C275.247 73.2264 275.208 73.3359 275.178 73.4455C273.895 77.3217 273.026 81.3256 272.583 85.389C271.858 91.9492 272.232 98.5865 273.69 105.02C273.746 105.288 273.811 105.551 273.876 105.818C273.958 106.177 274.049 106.541 274.144 106.9C274.257 107.339 274.373 107.777 274.494 108.215L276.319 116.762L276.83 119.12L278.365 126.207L279.502 126.172L280.367 126.142L284.259 126.019L321.393 124.844H321.596L332.114 124.511L375.203 123.148L377.901 111.016L378.411 108.724L379.012 106.02C379.082 105.704 379.151 105.384 379.216 105.068C379.36 104.385 379.49 103.701 379.605 103.017C381.767 90.5258 382.347 77.4121 377.75 66.8536C374.342 58.9599 367.081 52.8895 360.633 47.481ZM317.635 112.125L317.54 112.164C317.68 111.244 317.75 110.313 317.748 109.381C317.755 107.924 317.578 106.471 317.22 105.06C317.063 104.442 316.862 103.838 316.619 103.25C317.611 103.4 318.527 103.878 319.224 104.609C319.922 105.34 320.362 106.283 320.478 107.293C320.593 108.303 320.378 109.324 319.864 110.197C319.35 111.07 318.567 111.748 317.635 112.125Z" fill="#B0D7E9"/>
<path d="M282.132 135.464L275.301 115.641C275.228 115.435 275.15 115.203 275.076 114.997L274.986 114.743C274.137 112.257 273.415 109.728 272.823 107.166C272.74 106.811 272.658 106.457 272.585 106.093C272.524 105.835 272.463 105.559 272.412 105.278C270.912 98.1466 270.609 90.8101 271.516 83.5765V83.4933C271.972 79.962 272.745 76.4803 273.826 73.0912C273.865 72.9598 273.908 72.8284 273.956 72.7014C276.824 63.8037 281.859 55.7803 288.596 49.3712C295.333 42.9621 303.556 38.3738 312.506 36.0292C312.625 35.9942 312.741 35.9635 312.857 35.9372L313.406 35.8015C313.614 35.7445 313.86 35.6876 314.107 35.635L314.782 35.4774C315.029 35.4204 315.301 35.3635 315.582 35.3109L316.049 35.2146L316.967 35.0438L317.153 35.0131L317.551 34.9474C317.81 34.8992 318.117 34.8554 318.416 34.8072H318.567L318.792 34.7722C319.329 34.6977 319.874 34.6277 320.419 34.5664C320.704 34.5313 321.003 34.4963 321.284 34.47H321.427L322.582 34.3736H322.764C323.196 34.343 323.581 34.3167 323.984 34.2992H324.356C324.741 34.2992 325.139 34.2685 325.545 34.2598C326.437 34.2598 327.354 34.2598 328.245 34.2598C328.989 34.2598 329.733 34.3079 330.46 34.3561C347.081 35.416 362.006 44.4297 371.42 59.0889C372.168 60.2496 373.479 61.1255 374.881 62.0497C376.758 63.2979 378.701 64.59 379.614 66.8149C383.749 76.8885 382.642 90.2601 380.834 103.229C380.751 103.851 380.648 104.543 380.513 105.318C380.327 106.387 380.124 107.433 379.899 108.436L379.471 124.265L378.03 124.436L282.132 135.464ZM274.107 83.7517V83.8393C273.23 90.8115 273.522 97.8837 274.973 104.757C275.025 105.024 275.076 105.274 275.133 105.528C275.211 105.887 275.284 106.225 275.366 106.566C275.942 109.038 276.643 111.478 277.469 113.876L277.555 114.126L277.776 114.761L283.906 132.617L376.918 121.917L377.321 108.033L377.351 107.906C377.572 106.912 377.784 105.865 377.961 104.801C378.091 104.052 378.19 103.395 378.273 102.799C380.029 90.19 381.119 77.2257 377.226 67.761C376.62 66.2806 375.088 65.2645 373.466 64.1827C371.913 63.149 370.304 62.0847 369.265 60.4642C360.181 46.3043 346.337 37.9432 330.33 36.9183C329.638 36.8789 328.924 36.8482 328.219 36.8307C327.354 36.8307 326.488 36.8307 325.623 36.8307C325.243 36.8307 324.862 36.8439 324.481 36.8701H324.161L322.971 36.9402H322.807C322.426 36.9709 322.05 37.0015 321.669 37.041H321.544C321.271 37.0672 321.003 37.0935 320.735 37.1285C320.194 37.1899 319.675 37.2556 319.156 37.3256L318.792 37.3826L317.962 37.514L317.59 37.5753L317.395 37.6103C317.114 37.6585 316.824 37.7154 316.53 37.7724L316.075 37.86C315.825 37.9125 315.578 37.9607 315.336 38.0176L314.656 38.1709C314.431 38.2191 314.224 38.2673 314.029 38.3242L313.475 38.46H313.428C313.359 38.4729 313.291 38.4904 313.224 38.5126H313.168C304.629 40.7476 296.783 45.1251 290.356 51.2406C283.929 57.3561 279.128 65.0126 276.396 73.5029C276.357 73.6168 276.327 73.6956 276.305 73.7745V73.8226C275.278 77.0584 274.543 80.3817 274.107 83.7517ZM315.781 114.292L316.175 111.918C316.303 111.066 316.367 110.205 316.365 109.343C316.372 107.999 316.209 106.66 315.881 105.357C315.739 104.802 315.558 104.257 315.34 103.728L314.436 101.573L316.724 101.915C318.001 102.103 319.18 102.712 320.08 103.647C320.98 104.583 321.55 105.792 321.703 107.089C321.856 108.385 321.582 109.696 320.924 110.82C320.267 111.943 319.262 112.815 318.065 113.302L317.944 113.355L315.781 114.292ZM318.701 106.15C318.851 107.048 318.936 107.955 318.957 108.866C319.072 108.52 319.13 108.157 319.13 107.792C319.131 107.217 318.983 106.65 318.701 106.15Z" fill="#1B3C47"/>
<path d="M281.968 98.4377C281.645 98.4377 281.335 98.3215 281.106 98.1147C280.878 97.9079 280.75 97.6273 280.75 97.3348V84.1132C280.75 83.8207 280.878 83.5401 281.106 83.3333C281.335 83.1265 281.645 83.0103 281.968 83.0103C282.291 83.0103 282.6 83.1265 282.829 83.3333C283.057 83.5401 283.186 83.8207 283.186 84.1132V97.3481C283.182 97.6383 283.052 97.9154 282.824 98.1194C282.596 98.3234 282.288 98.4378 281.968 98.4377Z" fill="#1B3C47"/>
<path d="M281.968 79.308C281.645 79.308 281.335 79.1877 281.106 78.9735C280.878 78.7594 280.75 78.4689 280.75 78.166V73.0449C280.75 72.742 280.878 72.4515 281.106 72.2373C281.335 72.0232 281.645 71.9028 281.968 71.9028C282.291 71.9028 282.6 72.0232 282.829 72.2373C283.057 72.4515 283.186 72.742 283.186 73.0449V78.166C283.186 78.4689 283.057 78.7594 282.829 78.9735C282.6 79.1877 282.291 79.308 281.968 79.308Z" fill="#1B3C47"/>
<path d="M333.475 62.1607C339.322 63.439 344.812 66.045 349.538 69.7854C350.866 70.8316 352.164 68.522 350.84 67.4892C345.921 63.6181 340.216 60.9204 334.143 59.594C332.507 59.2394 331.812 61.8105 333.449 62.1607H333.475Z" fill="white"/>
<path d="M390.37 114.416V117.632C390.37 120.069 389.417 122.406 387.721 124.13C386.025 125.853 383.725 126.821 381.327 126.821H270.913C270.829 126.826 270.744 126.826 270.659 126.821C268.95 126.78 267.288 126.24 265.871 125.268C264.639 124.427 263.629 123.29 262.931 121.958C262.234 120.626 261.869 119.141 261.871 117.632V114.416C261.871 111.978 262.823 109.641 264.519 107.918C266.215 106.194 268.515 105.226 270.913 105.226H316.95C317.306 106.636 317.483 108.086 317.476 109.541C317.478 110.471 317.409 111.4 317.269 112.319L317.364 112.28C318.012 112.018 318.592 111.608 319.059 111.082C319.526 110.555 319.867 109.927 320.057 109.244C320.246 108.562 320.278 107.845 320.151 107.148C320.024 106.451 319.741 105.794 319.323 105.226H381.331C383.729 105.227 386.028 106.196 387.723 107.919C389.418 109.642 390.37 111.979 390.37 114.416Z" fill="#F4CEAE"/>
<path opacity="0.5" d="M389.761 116.747C389.763 118.179 389.483 119.597 388.939 120.921C388.395 122.244 387.597 123.447 386.591 124.459C386.181 124.87 385.741 125.248 385.273 125.59C385.705 123.423 385.706 121.19 385.277 119.022C384.848 116.853 383.996 114.792 382.772 112.956C381.547 111.12 379.974 109.547 378.142 108.326C376.311 107.105 374.257 106.261 372.1 105.843H378.941C381.812 105.847 384.564 106.997 386.593 109.041C388.621 111.086 389.761 113.857 389.761 116.747Z" fill="#CC6F65"/>
<path d="M271.628 108.948C269.194 111.391 267.809 114.696 267.771 118.153C267.733 121.61 269.044 124.945 271.423 127.442C268.689 127.127 266.179 125.774 264.406 123.658C262.633 121.543 261.732 118.826 261.888 116.064C262.044 113.302 263.244 110.705 265.244 108.805C267.244 106.905 269.89 105.845 272.642 105.843H276.487C274.66 106.506 273.001 107.566 271.628 108.948Z" fill="#FCDFCA"/>
<path d="M379.686 128.05H272.554C271.805 128.049 271.058 127.977 270.322 127.837C267.68 127.316 265.288 125.91 263.534 123.846C261.779 121.782 260.764 119.181 260.653 116.462C260.653 116.314 260.653 116.162 260.653 116.027C260.654 112.836 261.908 109.775 264.141 107.518C266.374 105.261 269.401 103.993 272.559 103.992H379.686C382.842 103.996 385.867 105.266 388.098 107.522C390.33 109.778 391.584 112.837 391.588 116.027C391.586 119.217 390.331 122.276 388.099 124.532C385.868 126.788 382.842 128.056 379.686 128.059V128.05ZM272.554 106.592C271.329 106.592 270.116 106.837 268.985 107.312C267.854 107.786 266.826 108.481 265.96 109.358C265.094 110.234 264.408 111.274 263.94 112.418C263.472 113.563 263.232 114.789 263.233 116.027C263.233 116.145 263.233 116.262 263.233 116.38C263.321 118.508 264.116 120.543 265.49 122.158C266.863 123.773 268.735 124.873 270.804 125.28C271.379 125.393 271.964 125.45 272.55 125.45H379.686C382.124 125.397 384.445 124.381 386.15 122.619C387.856 120.857 388.811 118.49 388.811 116.025C388.811 113.56 387.856 111.193 386.15 109.431C384.445 107.67 382.124 106.654 379.686 106.601H321.348C321.691 107.98 321.529 109.437 320.893 110.705C320.257 111.973 319.189 112.966 317.885 113.501L317.765 113.553L315.614 114.497L316.006 112.14C316.133 111.294 316.197 110.439 316.195 109.583C316.197 108.583 316.108 107.584 315.928 106.601L272.554 106.592ZM318.518 106.405C318.666 107.296 318.751 108.197 318.771 109.101C318.886 108.757 318.944 108.398 318.944 108.035C318.945 107.464 318.798 106.902 318.518 106.405Z" fill="#1B3C47"/>
<path d="M363.381 59.8349C358.693 55.0457 353.122 51.2476 346.988 48.6589C340.855 46.0703 334.279 44.742 327.641 44.7505H327.391C314.027 44.8108 301.231 50.2641 291.804 59.9165C282.377 69.5688 277.089 82.6336 277.096 96.2504V132.302C277.114 144.367 281.179 156.064 288.618 165.452L288.639 165.478C297.911 177.209 311.941 184.832 327.641 184.832C355.559 184.832 378.19 160.231 378.19 131.789V96.2548C378.198 89.4895 376.893 82.7893 374.352 76.5392C371.811 70.2891 368.082 64.6123 363.381 59.8349ZM320.55 107.521C320.55 108.447 320.277 109.351 319.767 110.117C319.257 110.883 318.533 111.475 317.689 111.817L317.594 111.856C317.734 110.935 317.803 110.005 317.801 109.073C317.808 107.615 317.632 106.162 317.276 104.75C317.12 104.133 316.92 103.528 316.678 102.94C317.755 103.105 318.738 103.658 319.448 104.498C320.159 105.339 320.55 106.412 320.55 107.521Z" fill="#F4CEAE"/>
<path opacity="0.5" d="M378.19 96.8671V132.406C378.19 160.852 355.408 185.449 327.298 185.449C326.189 185.449 325.086 185.412 323.989 185.339C350.557 183.616 371.575 159.725 371.575 132.402V96.8671C371.574 83.7875 366.656 71.1982 357.818 61.6535C348.981 52.1089 336.886 46.324 323.989 45.4724C325.083 45.4023 326.187 45.3672 327.298 45.3672C340.796 45.3672 353.74 50.7931 363.284 60.4512C372.828 70.1093 378.19 83.2085 378.19 96.8671Z" fill="#CC6F65"/>
<path d="M320.335 184.827C319.323 184.923 318.302 183.652 317.277 183.652C294.748 183.652 276.487 157.922 276.487 130.198V95.564C276.487 67.8396 294.748 45.3672 317.277 45.3672C318.302 45.3672 319.323 45.411 320.335 45.5075C299.231 47.4277 279.501 68.2297 279.501 94.6872L279.717 133.95C279.717 160.421 299.24 182.906 320.335 184.827Z" fill="#FCEADE"/>
<path d="M290.446 171.256C290.244 171.255 290.046 171.206 289.867 171.112C289.687 171.017 289.533 170.881 289.416 170.713C287.881 168.81 280.014 157.51 279.111 154.712C279.023 154.566 278.964 154.404 278.938 154.234C278.912 154.065 278.919 153.892 278.959 153.725C279 153.559 279.072 153.402 279.172 153.264C279.272 153.127 279.543 152.923 279.543 152.923C279.543 152.923 279.848 152.779 280.014 152.755C280.181 152.731 280.35 152.742 280.512 152.786C280.675 152.83 280.827 152.906 280.96 153.011C281.094 153.115 281.205 153.246 281.288 153.395C281.98 154.587 290.428 168.026 291.475 169.211C291.572 169.349 291.641 169.505 291.679 169.671C291.717 169.836 291.722 170.008 291.694 170.175C291.667 170.343 291.607 170.503 291.519 170.647C291.431 170.791 291.316 170.916 291.18 171.015C290.966 171.171 290.709 171.255 290.446 171.256Z" fill="#1B3C47"/>
<path d="M280.244 154.589C279.987 154.589 279.737 154.512 279.524 154.367C279.311 154.221 279.146 154.015 279.05 153.774C276.547 147.502 275.263 140.799 275.269 134.033V96.6521C275.272 84.3498 279.529 72.4385 287.299 62.9934C289.201 60.6769 291.298 58.533 293.567 56.5859L293.705 56.4682C303.037 48.5028 314.84 44.1344 327.036 44.1328H327.324C341.003 44.2088 354.097 49.7759 363.743 59.6172C373.388 69.4585 378.801 82.7736 378.799 96.6521V134.033C378.803 138.02 378.359 141.995 377.476 145.88C377.388 146.207 377.18 146.487 376.893 146.661C376.606 146.835 376.264 146.89 375.939 146.813C375.614 146.736 375.331 146.534 375.149 146.249C374.968 145.965 374.902 145.62 374.967 145.288C375.804 141.596 376.225 137.821 376.221 134.033V96.6521C376.223 83.4609 371.076 70.8055 361.906 61.4543C352.735 52.103 340.287 46.817 327.285 46.7525H327.036C315.431 46.7573 304.201 50.926 295.333 58.5212L295.26 58.5823C293.096 60.4355 291.096 62.4774 289.284 64.6846C281.898 73.6591 277.851 84.9783 277.847 96.6695V134.051C277.848 140.474 279.068 146.837 281.438 152.793C281.518 152.992 281.548 153.207 281.526 153.421C281.505 153.634 281.432 153.838 281.314 154.016C281.196 154.194 281.036 154.34 280.85 154.44C280.663 154.541 280.455 154.594 280.244 154.594V154.589Z" fill="#1B3C47"/>
<path d="M270.856 120.654C270.717 120.652 270.58 120.616 270.458 120.549C270.335 120.482 270.23 120.385 270.153 120.268C270.075 120.15 270.026 120.015 270.011 119.875C269.996 119.734 270.014 119.591 270.065 119.459C270.506 118.255 270.622 116.952 270.402 115.686C270.181 114.421 269.631 113.238 268.809 112.262C268.729 112.176 268.666 112.076 268.625 111.965C268.584 111.855 268.566 111.737 268.57 111.619C268.575 111.501 268.604 111.385 268.654 111.278C268.704 111.172 268.774 111.076 268.862 110.998C268.949 110.92 269.05 110.861 269.161 110.824C269.271 110.787 269.388 110.773 269.503 110.783C269.619 110.794 269.731 110.827 269.834 110.883C269.936 110.938 270.027 111.014 270.1 111.106C271.125 112.326 271.811 113.802 272.087 115.383C272.363 116.963 272.219 118.589 271.669 120.094C271.606 120.26 271.494 120.403 271.349 120.503C271.204 120.603 271.032 120.656 270.856 120.654Z" fill="#1B3C47"/>
<path d="M265.777 117.568C265.617 117.568 265.46 117.522 265.324 117.435C265.188 117.348 265.078 117.223 265.007 117.075C264.935 116.927 264.905 116.762 264.919 116.597C264.933 116.432 264.992 116.275 265.088 116.142C265.683 115.332 266.474 114.7 267.382 114.309C268.29 113.917 269.282 113.782 270.256 113.915C270.37 113.931 270.478 113.971 270.577 114.031C270.675 114.09 270.761 114.17 270.83 114.264C270.899 114.358 270.949 114.466 270.978 114.58C271.007 114.695 271.013 114.814 270.997 114.931C270.981 115.048 270.943 115.16 270.886 115.262C270.828 115.364 270.751 115.453 270.66 115.524C270.568 115.595 270.465 115.647 270.354 115.677C270.244 115.706 270.128 115.713 270.015 115.697C269.344 115.608 268.662 115.703 268.037 115.972C267.412 116.241 266.866 116.674 266.453 117.229C266.373 117.335 266.27 117.42 266.153 117.479C266.036 117.537 265.907 117.568 265.777 117.568Z" fill="#1B3C47"/>
<path d="M331.905 124.179C331.921 125.682 331.353 127.129 330.326 128.204C329.299 129.278 327.897 129.892 326.429 129.91C323.396 129.91 320.944 126.284 320.944 123.122L331.905 124.179Z" fill="#F4CEAE"/>
<path d="M365.986 74.0128C361.984 66.0571 355.999 59.2897 348.621 54.3755C341.244 49.4613 332.726 46.5696 323.906 45.9844C322.793 46.0587 321.693 46.168 320.598 46.3078C330.138 47.5625 339.127 51.5334 346.514 57.7561L348.19 59.2292C348.791 59.78 349.385 60.3395 349.956 60.9209C353.452 64.4463 356.422 68.4662 358.772 72.8544C347.163 69.5629 339.91 60.5406 339.91 60.5406C330.817 68.4089 340.343 72.343 340.343 72.343L331.25 75.84C311.331 80.2112 310.465 58.355 310.465 58.355L296.678 67.6395L283.186 73.6544C297.475 75.84 308.3 63.1634 308.3 63.1634C308.3 67.5346 307.837 74.1658 319.559 78.8998C332.549 84.1453 345.539 72.343 345.539 72.343C338.611 70.1574 339.91 65.7861 339.91 65.349C345.574 72.4129 355.85 75.0706 360.284 75.9274C363.308 82.6146 364.869 89.8815 364.86 97.2328V132.671C364.86 158.776 345.574 181.865 320.598 185.125C321.693 185.27 322.793 185.379 323.906 185.449C350.463 183.731 371.49 159.388 371.49 132.15V97.2197C371.538 89.3777 369.806 80.1981 366.121 73.3833" fill="#FFB594"/>
<path d="M320.996 114.088L326.425 105.823L321.831 100.168C321.831 100.168 315.15 98.4283 314.732 99.2983C314.314 100.168 311.809 109.303 311.809 109.303L315.567 117.568L320.996 114.088Z" fill="#F4CEAE"/>
<path d="M358.093 112.336C358.093 106.364 353.321 101.523 347.435 101.523C341.549 101.523 336.778 106.364 336.778 112.336V116.012C336.778 121.984 341.549 126.825 347.435 126.825C353.321 126.825 358.093 121.984 358.093 116.012V112.336Z" fill="white"/>
<path d="M347.435 120.036C350.294 120.036 352.612 117.688 352.612 114.791C352.612 111.894 350.294 109.545 347.435 109.545C344.576 109.545 342.259 111.894 342.259 114.791C342.259 117.688 344.576 120.036 347.435 120.036Z" fill="#274B5B"/>
<path d="M345.913 112.631C347.931 112.631 349.567 110.974 349.567 108.929C349.567 106.884 347.931 105.226 345.913 105.226C343.895 105.226 342.259 106.884 342.259 108.929C342.259 110.974 343.895 112.631 345.913 112.631Z" fill="white"/>
<path d="M348.349 118.802C349.021 118.802 349.567 118.25 349.567 117.568C349.567 116.887 349.021 116.334 348.349 116.334C347.676 116.334 347.131 116.887 347.131 117.568C347.131 118.25 347.676 118.802 348.349 118.802Z" fill="white"/>
<path d="M316.072 112.336C316.072 106.364 311.437 101.523 305.719 101.523C300.001 101.523 295.366 106.364 295.366 112.336V116.012C295.366 121.984 300.001 126.825 305.719 126.825C311.437 126.825 316.072 121.984 316.072 116.012V112.336Z" fill="white"/>
<path d="M305.414 120.036C308.273 120.036 310.591 117.688 310.591 114.791C310.591 111.894 308.273 109.545 305.414 109.545C302.555 109.545 300.238 111.894 300.238 114.791C300.238 117.688 302.555 120.036 305.414 120.036Z" fill="#274B5B"/>
<path d="M303.892 112.631C305.91 112.631 307.546 110.974 307.546 108.929C307.546 106.884 305.91 105.226 303.892 105.226C301.874 105.226 300.238 106.884 300.238 108.929C300.238 110.974 301.874 112.631 303.892 112.631Z" fill="white"/>
<path d="M306.328 118.802C307 118.802 307.546 118.25 307.546 117.568C307.546 116.887 307 116.334 306.328 116.334C305.655 116.334 305.11 116.887 305.11 117.568C305.11 118.25 305.655 118.802 306.328 118.802Z" fill="white"/>
<path d="M280.488 73.6055L300.057 66.19C306.611 62.0092 312.487 56.8132 317.475 50.7885L311.583 56.0539C314.692 54.2374 307.626 59.1255 310.594 57.3703C307.153 68.7789 322.206 84.5753 340.054 72.5086C340.054 72.5086 333.697 67.208 339.899 60.8763C339.899 60.8763 354.247 79.968 383.062 70.7534C383.062 70.7534 379.621 47.9363 359.408 42.6709L373.6 37.4054C373.6 37.4054 348.225 11.9556 321.991 29.0684V29.1123C321.166 28.2678 320.121 27.6816 318.98 27.4229C318.98 27.4229 318.98 34.1759 315.668 36.4313C315.668 36.4313 296.908 21.4159 273.731 37.9319C273.731 37.9319 284.402 39.0552 284.402 44.3119C284.402 44.3119 266.743 50.6919 266.743 73.588L275.774 72.7104" fill="#1C4152"/>
<path d="M324.059 31.8467C324.059 31.8467 340.804 18.7607 363.561 35.7725C363.561 35.7725 365.708 37.0811 365.278 37.0811C364.849 37.0811 346.386 44.0603 346.386 44.0603C346.386 44.0603 374.295 45.369 378.589 70.6686H382.453C382.453 70.6686 379.018 46.2414 358.408 43.1879L373.866 37.9535C373.866 37.9535 353.685 16.1435 326.206 26.6123L322.771 27.9209L324.059 31.8467Z" fill="#E1F4F9"/>
<path d="M314.854 37.1235C314.854 37.1235 295.382 28.402 280.237 37.1235C280.237 37.1235 288.026 38.8678 286.295 46.7171C286.295 46.7171 266.823 54.5664 269.419 73.3176L265.525 73.7536C265.525 73.7536 265.525 53.2582 282.833 44.1007L272.015 37.9956C272.015 37.9956 293.651 23.1691 311.392 35.3792L314.854 37.1235Z" fill="#E1F4F9"/>
<path d="M275.637 74.9882L264.916 74.9664V73.6599C264.916 61.4656 269.912 53.8921 274.102 49.6808C276.505 47.2485 279.304 45.2564 282.375 43.7927C281.354 41.062 275.29 39.8034 273.038 39.5682L269.607 39.2068L272.438 37.1991C284.759 28.4628 295.871 28.515 303.025 30.1003C307.259 31.025 311.291 32.733 314.917 35.1391C316.611 33.2534 317.006 29.3512 317.006 27.853V26.2373L318.562 26.5726C324.498 27.8792 325.75 35.8838 325.802 36.2279C325.852 36.5709 325.767 36.9203 325.563 37.1993C325.36 37.4782 325.057 37.6637 324.719 37.7151C324.381 37.7665 324.037 37.6796 323.762 37.4733C323.487 37.2671 323.305 36.9585 323.254 36.6155C323.254 36.511 322.448 31.581 319.467 29.7214C319.218 32.108 318.395 36.058 315.706 37.8785L314.93 38.4054L314.209 37.8131C310.652 35.2868 306.624 33.5247 302.373 32.6349C293.671 30.7361 285.021 32.3954 276.641 37.5562C280.158 38.4011 285.128 40.3478 285.128 44.6071V45.5304L284.27 45.8396C281.115 47.181 278.256 49.1488 275.86 51.6275C270.594 56.9625 267.798 63.9306 267.54 72.3577H275.689C276.03 72.3577 276.357 72.4954 276.598 72.7404C276.84 72.9854 276.975 73.3177 276.975 73.6642C276.975 74.0107 276.84 74.3431 276.598 74.5881C276.357 74.8331 276.03 74.9708 275.689 74.9708L275.637 74.9882Z" fill="#1B3C47"/>
<path d="M314.045 55.2412C314.045 55.2412 309.721 80.5625 337.83 71.6778L339.214 73.4547C339.214 73.4547 333.415 79.1365 326.586 77.8971C316.64 76.1201 304.531 65.4586 314.045 55.2412Z" fill="#54B9D3"/>
<path d="M359.962 48.8324C361.3 49.5179 362.545 50.4052 363.663 51.4691C364.509 52.3074 364.932 52.9958 364.75 53.2628C364.391 53.8061 361.971 52.5228 359.036 50.9914C356.1 49.4599 353.681 48.1814 353.837 47.5257C353.917 47.2119 354.653 47.1276 355.779 47.3243C357.229 47.6097 358.637 48.1173 359.962 48.8324Z" fill="#E5F5FA"/>
<path d="M371.28 57.6335C372.054 58.6303 372.658 59.7422 373.07 60.9268C373.37 61.832 373.406 62.4613 373.132 62.6122C372.859 62.7631 372.334 62.3967 371.69 61.707C371.046 61.0173 370.296 60.0172 369.485 58.9612C368.673 57.9051 367.906 56.9912 367.35 56.2671C366.795 55.5429 366.49 55.0127 366.671 54.7584C366.852 54.504 367.505 54.6075 368.387 55.086C369.52 55.7319 370.505 56.5991 371.28 57.6335Z" fill="#E5F5FA"/>
<path d="M375.611 65.0456C375.969 65.9687 375.611 66.8408 375.003 66.9514C374.395 67.062 373.756 66.526 373.469 65.7986C373.183 65.0712 373.299 64.2757 373.845 63.9736C374.391 63.6716 375.254 64.1225 375.611 65.0456Z" fill="#E5F5FA"/>
<path d="M351.571 38.8795C352.949 38.4009 354.248 38.5234 354.419 39.0403C354.589 39.5573 353.666 40.258 352.393 40.6983C351.12 41.1387 349.9 41.1884 349.62 40.6983C349.34 40.2082 350.189 39.3581 351.571 38.8795Z" fill="#E5F5FA"/>
<path d="M357.445 36.805C358.265 36.5688 359.08 36.8947 359.271 37.5324C359.462 38.1701 358.947 38.8833 358.132 39.1195C357.316 39.3557 356.496 39.0297 356.306 38.3921C356.115 37.7544 356.63 37.0411 357.445 36.805Z" fill="#E5F5FA"/>
<path d="M334.578 29.0155C336.528 28.6783 338.523 28.6162 340.493 28.8316C341.999 29.0195 342.893 29.3634 342.867 29.6313C342.802 30.2111 339.226 30.2951 334.973 31.0229C330.72 31.7507 327.33 32.7904 327.048 32.2665C326.922 32.0186 327.63 31.4108 328.971 30.747C330.734 29.9126 332.625 29.3288 334.578 29.0155Z" fill="#E5F5FA"/>
<path d="M346.976 28.7794C347.195 28.8694 347.384 29.0226 347.52 29.2204C347.656 29.4182 347.732 29.652 347.739 29.8932C347.747 30.1345 347.685 30.3727 347.562 30.5787C347.439 30.7848 347.259 30.9498 347.046 31.0537C346.832 31.1575 346.593 31.1956 346.359 31.1633C346.124 31.131 345.904 31.0298 345.725 30.8719C345.546 30.7141 345.416 30.5065 345.351 30.2745C345.286 30.0425 345.288 29.7961 345.358 29.5656C345.471 29.2431 345.705 28.9793 346.008 28.832C346.311 28.6847 346.659 28.6658 346.976 28.7794Z" fill="#E5F5FA"/>
<path d="M317.088 63.415C317.421 64.573 317.872 65.6923 318.432 66.7547C318.858 67.5679 319.207 68.0593 319.096 68.1767C318.985 68.2942 318.449 67.9724 317.82 67.2026C317.007 66.1781 316.409 64.994 316.063 63.7237C315.713 62.4881 315.514 61.2129 315.471 59.9274C315.437 58.9533 315.505 58.3444 315.654 58.327C315.803 58.3097 316.003 58.8837 316.229 59.8186C316.454 60.7536 316.692 62.0538 317.088 63.415Z" fill="#6AC2D9"/>
<path d="M327.221 70.7944C328.745 70.7987 330.265 70.6685 331.765 70.4052C332.938 70.2193 333.682 70.1068 333.73 70.2582C333.778 70.4095 333.117 70.7728 331.958 71.1619C330.425 71.6713 328.816 71.9213 327.2 71.9014C325.559 71.8885 323.944 71.4945 322.485 70.7511C321.378 70.1544 320.866 69.5577 320.953 69.4539C321.041 69.3501 321.706 69.6701 322.805 70.042C324.229 70.5171 325.719 70.7709 327.221 70.7944Z" fill="#6AC2D9"/>
<path d="M359.249 95.9604C359.013 95.9609 358.782 95.8897 358.581 95.7547C346.26 87.4603 334.88 95.39 334.403 95.7313C334.121 95.8997 333.792 95.9456 333.481 95.8599C333.17 95.7742 332.9 95.5632 332.724 95.2687C332.548 94.9743 332.48 94.618 332.532 94.2706C332.584 93.9232 332.754 93.6101 333.006 93.3935C333.538 93.0101 346.204 84.1266 359.918 93.3701C360.155 93.5297 360.339 93.7703 360.441 94.0552C360.542 94.3401 360.556 94.6537 360.481 94.9482C360.405 95.2428 360.244 95.502 360.021 95.6864C359.799 95.8708 359.528 95.9703 359.249 95.9697V95.9604Z" fill="#1B3C47"/>
<path d="M319.636 95.9604C319.395 95.9609 319.159 95.8897 318.953 95.7547C306.364 87.4603 294.737 95.39 294.25 95.7313C293.962 95.8997 293.626 95.9456 293.308 95.8599C292.99 95.7742 292.714 95.5632 292.535 95.2687C292.355 94.9743 292.285 94.618 292.338 94.2706C292.392 93.9232 292.565 93.6101 292.823 93.3935C293.367 93.0101 306.308 84.1266 320.319 93.3701C320.562 93.5297 320.75 93.7703 320.854 94.0552C320.958 94.3401 320.972 94.6537 320.895 94.9482C320.817 95.2428 320.652 95.502 320.425 95.6864C320.198 95.8708 319.921 95.9703 319.636 95.9697V95.9604Z" fill="#1B3C47"/>
<g opacity="0.5">
<path opacity="0.5" d="M366.303 101.435L334.249 124.604V111.41L350.708 99.5199H362.14C362.931 99.5019 363.716 99.6647 364.437 99.9962C365.158 100.328 365.796 100.819 366.303 101.435Z" fill="white"/>
<path opacity="0.5" d="M367.127 107.052V114.165L344.469 130.558H339.241C338.084 130.568 336.954 130.214 336.005 129.544L367.127 107.052Z" fill="white"/>
</g>
<path opacity="0.3" d="M361.815 99.6724H337.318C335.002 99.6724 333.124 101.564 333.124 103.896V126.303C333.124 128.636 335.002 130.527 337.318 130.527H361.815C364.132 130.527 366.01 128.636 366.01 126.303V103.896C366.01 101.564 364.132 99.6724 361.815 99.6724Z" fill="white"/>
<path opacity="0.3" d="M315.531 99.6724H291.034C288.718 99.6724 286.84 101.564 286.84 103.896V126.303C286.84 128.636 288.718 130.527 291.034 130.527H315.531C317.848 130.527 319.726 128.636 319.726 126.303V103.896C319.726 101.564 317.848 99.6724 315.531 99.6724Z" fill="white"/>
<path d="M288.736 67.7643C293.422 66.1151 297.035 64.2346 297.188 64.528C297.34 64.8214 293.879 67.1509 289.08 68.8402C284.28 70.5294 280.183 70.8673 280.141 70.5739C280.099 70.2805 284.055 69.4403 288.736 67.7643Z" fill="#6AC2D9"/>
<path d="M302.634 60.0735C304.121 58.9192 305.466 58.1252 305.688 58.3716C305.91 58.618 304.9 59.8089 303.389 60.9815C301.879 62.1541 300.454 62.8522 300.26 62.5921C300.067 62.3321 301.147 61.2553 302.634 60.0735Z" fill="#6AC2D9"/>
<path d="M310.958 52.4765C313.165 50.5868 315.284 49.4837 315.452 49.7189C315.619 49.954 313.854 51.4547 311.704 53.2974C309.554 55.1402 307.81 56.6622 307.572 56.457C307.334 56.2518 308.742 54.3663 310.958 52.4765Z" fill="#6AC2D9"/>
<path d="M281.99 67.2662C285.655 66.5188 288.55 65.4988 288.663 65.7796C288.777 66.0604 286.039 67.5182 282.226 68.2945C278.413 69.0709 275.256 68.8272 275.269 68.5505C275.282 68.2739 278.33 68.0343 281.99 67.2662Z" fill="#6AC2D9"/>
<path opacity="0.5" d="M326.425 110.519V136.081C326.425 136.081 319.726 132.831 319.726 126.669C319.726 120.506 320.101 110.982 320.101 110.982L325.232 109.58C325.372 109.54 325.519 109.535 325.662 109.564C325.805 109.592 325.939 109.655 326.055 109.746C326.171 109.836 326.264 109.954 326.328 110.088C326.392 110.222 326.425 110.369 326.425 110.519Z" fill="#FCEADE"/>
<path d="M333.063 112.63C332.928 112.629 332.794 112.608 332.665 112.565C325.718 110.267 321 112.479 320.953 112.504C320.801 112.578 320.637 112.62 320.468 112.629C320.3 112.639 320.132 112.614 319.973 112.557C319.814 112.5 319.667 112.413 319.542 112.299C319.417 112.185 319.315 112.047 319.242 111.893C319.17 111.739 319.128 111.573 319.119 111.403C319.11 111.232 319.134 111.062 319.19 110.902C319.246 110.741 319.333 110.593 319.446 110.466C319.558 110.34 319.695 110.236 319.847 110.163C320.078 110.055 325.551 107.48 333.46 110.103C333.75 110.199 333.996 110.396 334.154 110.659C334.313 110.922 334.374 111.233 334.326 111.537C334.278 111.841 334.125 112.118 333.893 112.319C333.662 112.519 333.367 112.629 333.063 112.63Z" fill="#122E4F"/>
<path d="M326.427 137.315C324.799 137.301 323.242 136.652 322.1 135.509C320.958 134.367 320.323 132.825 320.335 131.222C320.335 130.874 320.475 130.54 320.725 130.294C320.975 130.048 321.314 129.91 321.667 129.91C322.02 129.91 322.359 130.048 322.609 130.294C322.859 130.54 322.999 130.874 322.999 131.222C322.982 131.675 323.059 132.126 323.224 132.55C323.388 132.973 323.638 133.36 323.958 133.686C324.277 134.012 324.661 134.272 325.084 134.449C325.508 134.626 325.964 134.718 326.425 134.718C326.885 134.718 327.341 134.626 327.765 134.449C328.189 134.272 328.572 134.012 328.892 133.686C329.212 133.36 329.461 132.973 329.626 132.55C329.791 132.126 329.867 131.675 329.85 131.222C329.85 130.874 329.991 130.54 330.241 130.294C330.49 130.048 330.829 129.91 331.182 129.91C331.536 129.91 331.875 130.048 332.124 130.294C332.374 130.54 332.515 130.874 332.515 131.222C332.526 132.824 331.892 134.365 330.751 135.508C329.61 136.65 328.054 137.3 326.427 137.315Z" fill="#1B3C47"/>
<g opacity="0.3">
<path opacity="0.3" d="M319.719 101.435L287.867 124.604V111.41L304.213 99.5199H315.573C316.361 99.5017 317.144 99.6645 317.862 99.9961C318.58 100.328 319.215 100.819 319.719 101.435Z" fill="white"/>
<path opacity="0.3" d="M320.534 107.052V114.165L298.023 130.558H292.846C291.695 130.568 290.57 130.213 289.627 129.544L320.534 107.052Z" fill="white"/>
</g>
<path d="M315.685 131.761H291.485C290.092 131.76 288.756 131.195 287.771 130.191C286.786 129.186 286.232 127.824 286.231 126.403V103.796C286.232 102.375 286.786 101.013 287.771 100.009C288.756 99.004 290.092 98.4391 291.485 98.438H315.685C317.079 98.4391 318.415 99.0039 319.401 100.008C320.387 101.013 320.942 102.375 320.944 103.796V126.403C320.942 127.824 320.387 129.187 319.401 130.191C318.415 131.195 317.079 131.76 315.685 131.761ZM291.485 100.63C290.662 100.631 289.873 100.965 289.291 101.559C288.709 102.152 288.382 102.957 288.381 103.796V126.403C288.382 127.243 288.709 128.047 289.291 128.641C289.873 129.234 290.662 129.568 291.485 129.569H315.685C316.508 129.568 317.298 129.234 317.881 128.641C318.463 128.048 318.792 127.243 318.794 126.403V103.796C318.792 102.956 318.463 102.152 317.881 101.559C317.298 100.965 316.508 100.631 315.685 100.63H291.485Z" fill="#122E4F"/>
<path d="M326.447 78.0737C326.132 78.0737 325.822 78.0736 325.511 78.052C321.626 77.8834 317.923 76.349 315.049 73.7164C310.098 69.1902 308.006 61.8545 310.305 57.016C310.372 56.8541 310.472 56.7075 310.597 56.5853C310.723 56.463 310.872 56.3676 311.035 56.3047C311.198 56.2418 311.372 56.2128 311.547 56.2194C311.721 56.226 311.893 56.268 312.051 56.343C312.208 56.418 312.35 56.5244 312.466 56.6558C312.582 56.7872 312.67 56.9408 312.725 57.1074C312.781 57.274 312.802 57.4501 312.787 57.6252C312.773 57.8002 312.724 57.9706 312.642 58.1259C311.081 61.4426 312.211 67.6077 316.808 71.7915C319.875 74.5966 326.577 78.2427 337.643 72.225C336.429 70.7761 335.699 68.9804 335.555 67.0918C335.435 64.6552 336.478 62.3227 338.652 60.1203L339.678 59.1014L340.575 60.2807C340.61 60.324 344.146 64.8633 351.042 68.2537C359.978 72.6499 370.165 73.2092 381.33 69.9272C380.321 65.4443 375.456 48.6181 358.792 44.3476L354.73 43.3028L370.867 37.4065C366.607 33.8006 361.851 30.8306 356.748 28.588C344.388 23.264 332.791 23.988 322.29 30.7558C322 30.942 321.649 31.0051 321.314 30.9311C320.978 30.8571 320.685 30.6522 320.5 30.3612C320.315 30.0703 320.252 29.7173 320.326 29.3799C320.399 29.0425 320.603 28.7483 320.892 28.562C332.028 21.4084 344.806 20.6063 357.843 26.2425C363.868 28.8642 369.409 32.4906 374.231 36.9686L375.693 38.4123L363.096 42.9863C370.065 45.735 375.762 50.955 379.708 58.2647C381.81 62.1218 383.296 66.287 384.112 70.6079L384.28 71.7134L383.219 72.0473C367.883 76.8814 356.571 73.8769 349.783 70.5082C345.954 68.6348 342.486 66.0939 339.54 63.0034C338.606 64.1043 338.103 65.5102 338.126 66.9574C338.255 69.589 340.502 71.501 340.524 71.5227L341.951 72.6976L340.368 73.6471C335.474 76.5909 330.794 78.0737 326.447 78.0737Z" fill="#1B3C47"/>
<path d="M279.636 74.3713C279.291 74.3771 278.958 74.2453 278.71 74.005C278.462 73.7647 278.32 73.4356 278.314 73.09C278.308 72.7444 278.44 72.4107 278.679 72.1623C278.919 71.9138 279.247 71.771 279.592 71.7653C298.371 71.0877 316.625 50.3785 316.807 50.17C316.917 50.034 317.053 49.9216 317.207 49.8396C317.361 49.7575 317.531 49.7074 317.705 49.6924C317.879 49.6773 318.054 49.6975 318.22 49.7517C318.386 49.806 318.539 49.8933 318.671 50.0083C318.803 50.1233 318.91 50.2637 318.986 50.4212C319.062 50.5786 319.106 50.7498 319.115 50.9246C319.124 51.0995 319.098 51.2743 319.037 51.4386C318.977 51.603 318.885 51.7535 318.766 51.8813C315.133 55.8845 311.143 59.5453 306.843 62.8179C297.214 70.18 288.078 74.0673 279.688 74.3713H279.636Z" fill="#1B3C47"/>
<path d="M273.716 58.9437C274.092 58.121 274.571 57.3553 275.14 56.667C275.606 56.1069 276.146 55.6205 276.743 55.2225C277.776 54.5541 278.588 54.4765 278.833 54.8344C279.078 55.1923 278.796 55.9296 278.31 56.8653C278.074 57.3224 277.788 57.8571 277.47 58.4565C277.151 59.0558 276.85 59.6854 276.535 60.3667C276.221 61.048 275.96 61.7207 275.719 62.3373L275.079 64.0276C274.67 65.0107 274.352 65.7093 273.907 65.7309C273.463 65.7524 273.038 65.0409 272.883 63.7689C272.8 63.0282 272.819 62.2787 272.94 61.5439C273.088 60.6445 273.349 59.77 273.716 58.9437Z" fill="white"/>
<path d="M284.225 51.3732C284.96 51.106 285.737 50.9534 286.523 50.9214C287.19 50.9214 287.724 51.0639 287.951 51.4383C288.177 51.8128 288.04 52.3419 287.575 52.8874C286.96 53.5271 286.191 54.0148 285.334 54.3083C284.477 54.6019 283.558 54.6926 282.656 54.5725C281.934 54.4382 281.469 54.1085 281.375 53.6852C281.28 53.2618 281.614 52.8222 282.127 52.4234C282.761 51.9671 283.47 51.6124 284.225 51.3732Z" fill="white"/>
<path d="M291.811 36.1567C292.683 36.04 293.572 36.1469 294.388 36.4665C295.033 36.745 295.393 37.1528 295.364 37.5606C295.336 37.9685 294.935 38.3253 294.363 38.588C292.963 39.152 291.427 39.3286 289.928 39.0978C289.307 38.9684 288.837 38.7057 288.702 38.3135C288.567 37.9214 288.821 37.4469 289.38 37.0273C290.095 36.5345 290.934 36.234 291.811 36.1567Z" fill="white"/>
<path d="M362.004 131.761H337.738C336.353 131.76 335.025 131.195 334.046 130.191C333.067 129.186 332.516 127.824 332.515 126.403V103.796C332.516 102.375 333.067 101.013 334.046 100.009C335.025 99.004 336.353 98.4391 337.738 98.438H362.004C363.389 98.4391 364.717 99.004 365.697 100.009C366.676 101.013 367.227 102.375 367.228 103.796V126.403C367.227 127.824 366.676 129.186 365.697 130.191C364.717 131.195 363.389 131.76 362.004 131.761ZM337.738 100.63C336.92 100.631 336.136 100.965 335.557 101.559C334.979 102.152 334.653 102.957 334.652 103.796V126.403C334.653 127.243 334.979 128.047 335.557 128.641C336.136 129.234 336.92 129.568 337.738 129.569H362.004C362.823 129.568 363.607 129.234 364.185 128.641C364.764 128.047 365.089 127.243 365.091 126.403V103.796C365.089 102.957 364.764 102.152 364.185 101.559C363.607 100.965 362.823 100.631 362.004 100.63H337.738Z" fill="#122E4F"/>
<path d="M331.621 153.977H315.539C315.196 153.977 314.867 153.833 314.624 153.577C314.381 153.321 314.245 152.974 314.245 152.613C314.245 152.251 314.381 151.904 314.624 151.648C314.867 151.392 315.196 151.248 315.539 151.248H331.621C333.193 151.253 334.75 150.929 336.202 150.295C337.655 149.661 338.973 148.73 340.082 147.555C340.327 147.314 340.652 147.183 340.987 147.189C341.323 147.195 341.643 147.339 341.88 147.589C342.117 147.839 342.253 148.176 342.259 148.529C342.265 148.883 342.14 149.225 341.911 149.484C340.563 150.913 338.959 152.045 337.193 152.817C335.427 153.588 333.533 153.982 331.621 153.977Z" fill="#1B3C47"/>
<path d="M289.185 113.865C288.89 113.865 288.603 113.768 288.372 113.589L272.067 103.765C271.812 103.549 271.652 103.246 271.62 102.919C271.589 102.592 271.688 102.265 271.898 102.008C272.107 101.75 272.411 101.581 272.745 101.536C273.079 101.49 273.419 101.572 273.692 101.765L289.998 111.589C290.211 111.754 290.366 111.979 290.442 112.233C290.517 112.487 290.51 112.758 290.421 113.008C290.332 113.258 290.165 113.475 289.943 113.629C289.722 113.782 289.457 113.865 289.185 113.865Z" fill="#122E4F"/>
<path d="M363.029 113.865C362.763 113.865 362.503 113.779 362.286 113.62C362.069 113.461 361.906 113.237 361.818 112.978C361.731 112.719 361.723 112.438 361.798 112.175C361.872 111.912 362.024 111.679 362.233 111.509L379.199 101.156C379.467 100.957 379.8 100.872 380.127 100.919C380.455 100.966 380.752 101.141 380.958 101.408C381.163 101.674 381.26 102.012 381.229 102.351C381.198 102.69 381.042 103.004 380.792 103.226L363.825 113.579C363.599 113.764 363.318 113.865 363.029 113.865Z" fill="#122E4F"/>
<path d="M326.693 186.683C319.788 186.705 312.949 185.326 306.584 182.63C300.219 179.933 294.458 175.973 289.644 170.987C289.405 170.74 289.272 170.408 289.276 170.063C289.279 169.718 289.419 169.389 289.664 169.148C289.908 168.906 290.238 168.773 290.581 168.777C290.923 168.78 291.25 168.921 291.49 169.167C297.257 175.105 304.412 179.489 312.299 181.917C320.186 184.345 328.552 184.74 336.63 183.065C344.707 181.39 352.238 177.7 358.532 172.332C364.825 166.963 369.679 160.09 372.65 152.341C372.773 152.019 373.018 151.76 373.331 151.62C373.644 151.48 373.999 151.471 374.318 151.595C374.638 151.72 374.895 151.966 375.034 152.282C375.173 152.597 375.182 152.955 375.058 153.276C371.287 163.111 364.649 171.566 356.016 177.529C347.383 183.492 337.161 186.683 326.693 186.683Z" fill="#1B3C47"/>
<g clip-path="url(#clip0)">
<path d="M547.829 412.857H501.111C500.249 412.856 499.42 412.575 498.794 412.071C498.167 411.566 497.79 410.877 497.739 410.144L492.497 331.096H556.443L551.192 410.144C551.145 410.877 550.771 411.567 550.145 412.072C549.52 412.577 548.691 412.858 547.829 412.857Z" fill="#F9F7F7"/>
<path d="M555.078 328.792L549.836 407.832C549.789 408.562 549.419 409.249 548.799 409.753C548.179 410.257 547.357 410.541 546.5 410.545H521.401C542.885 380.586 542.406 334.742 523.435 328.792H555.078Z" fill="#DBCEC8"/>
<path d="M536.549 359.422C539.869 359.422 542.56 357.128 542.56 354.297C542.56 351.466 539.869 349.171 536.549 349.171C533.23 349.171 530.539 351.466 530.539 354.297C530.539 357.128 533.23 359.422 536.549 359.422Z" fill="#DBCEC8"/>
<path d="M525.839 352.299C527.322 352.299 528.524 351.274 528.524 350.01C528.524 348.746 527.322 347.721 525.839 347.721C524.357 347.721 523.155 348.746 523.155 350.01C523.155 351.274 524.357 352.299 525.839 352.299Z" fill="#DBCEC8"/>
<path d="M551.779 384.926H496.555L495.136 363.746H553.189L551.779 384.926Z" fill="#637582"/>
<path d="M502.828 385.504H497.54L495.597 364.316H500.875L502.828 385.504Z" fill="#81919B"/>
<path d="M552.538 364.131L551.128 385.327H533.522C535.612 378.389 536.86 371.287 537.245 364.131H552.538Z" fill="#455760"/>
<path d="M494.983 364.123H555.06" stroke="#3E3127" stroke-width="3" stroke-miterlimit="10"/>
<path d="M494.983 385.311H552.737" stroke="#3E3127" stroke-width="3" stroke-miterlimit="10"/>
<path d="M547.603 410.761H500.885C500.023 410.761 499.194 410.479 498.568 409.975C497.941 409.471 497.564 408.782 497.513 408.048L492.271 328.977H556.217L550.966 408.025C550.926 408.763 550.554 409.459 549.928 409.968C549.302 410.478 548.469 410.762 547.603 410.761V410.761Z" stroke="#3E3127" stroke-width="5" stroke-miterlimit="10"/>
<path d="M499.041 320.93L500.668 313.762C500.905 312.705 501.588 311.758 502.586 311.1C503.585 310.441 504.831 310.116 506.091 310.186L544.775 312.198C546.092 312.268 547.328 312.764 548.231 313.585C549.135 314.405 549.637 315.489 549.637 316.614V321.701" fill="#455760"/>
<path d="M499.267 320.93L500.894 313.762C501.131 312.705 501.814 311.758 502.812 311.1C503.811 310.441 505.057 310.116 506.317 310.186L545 312.198C546.318 312.268 547.554 312.764 548.457 313.585C549.361 314.405 549.863 315.489 549.863 316.614V321.701" stroke="#3E3127" stroke-width="5" stroke-miterlimit="10"/>
<path d="M560.248 330.364H487.192C486.952 330.364 486.722 330.283 486.553 330.138C486.383 329.994 486.288 329.798 486.288 329.593V328.391C486.288 325.786 487.501 323.288 489.66 321.445C491.819 319.602 494.748 318.566 497.803 318.564H549.637C552.693 318.564 555.624 319.599 557.785 321.442C559.947 323.285 561.161 325.785 561.161 328.391V329.593C561.161 329.695 561.137 329.796 561.091 329.89C561.045 329.984 560.978 330.069 560.893 330.141C560.808 330.213 560.707 330.269 560.596 330.308C560.486 330.346 560.367 330.365 560.248 330.364Z" fill="#637582"/>
<path d="M558.838 324.653C556.994 323.642 554.847 323.107 552.656 323.112H500.812C497.962 323.116 495.215 324.02 493.1 325.65C490.985 327.28 489.653 329.519 489.361 331.937H486.704C486.464 331.937 486.234 331.856 486.064 331.711C485.895 331.567 485.8 331.371 485.8 331.166V329.956C485.8 328.666 486.098 327.388 486.677 326.197C487.256 325.005 488.105 323.922 489.176 323.01C490.246 322.098 491.516 321.375 492.914 320.882C494.312 320.389 495.811 320.136 497.323 320.137H549.158C551.086 320.136 552.984 320.55 554.675 321.339C556.367 322.128 557.798 323.268 558.838 324.653Z" fill="#81919B"/>
<path d="M560.772 330.812H487.752C487.512 330.812 487.283 330.731 487.113 330.586C486.944 330.442 486.848 330.245 486.848 330.041V328.831C486.86 326.238 488.073 323.754 490.223 321.921C492.374 320.087 495.286 319.053 498.327 319.042H550.161C553.209 319.042 556.132 320.073 558.291 321.908C560.449 323.742 561.666 326.232 561.676 328.831V330.041C561.676 330.245 561.581 330.442 561.411 330.586C561.242 330.731 561.012 330.812 560.772 330.812Z" stroke="#3E3127" stroke-width="5" stroke-miterlimit="10"/>
<path d="M498.2 326.557C499.478 326.557 500.514 325.674 500.514 324.584C500.514 323.494 499.478 322.611 498.2 322.611C496.923 322.611 495.887 323.494 495.887 324.584C495.887 325.674 496.923 326.557 498.2 326.557Z" fill="#81919B"/>
<path d="M503.027 327.281C503.791 327.281 504.41 326.753 504.41 326.102C504.41 325.451 503.791 324.923 503.027 324.923C502.263 324.923 501.644 325.451 501.644 326.102C501.644 326.753 502.263 327.281 503.027 327.281Z" fill="#81919B"/>
<path d="M529.391 379.091C527.34 380.332 524.023 380.248 521.157 378.714C517.624 376.818 516.114 373.426 517.804 371.145C517.845 371.079 517.893 371.017 517.949 370.96C518.119 371.375 518.353 371.769 518.645 372.131C519.211 372.85 519.957 373.452 520.829 373.894C521.702 374.337 522.678 374.609 523.688 374.69C524.354 374.723 525.014 374.813 525.658 374.96C526.774 375.391 527.672 376.148 528.189 377.095C528.632 377.773 529.003 378.467 529.391 379.091Z" fill="#919FA8"/>
<path d="M531.063 377.519C530.986 377.628 530.899 377.731 530.801 377.827C530.536 377.218 530.234 376.622 529.897 376.039C529.584 375.465 529.183 374.928 528.704 374.444C528.148 373.88 527.428 373.449 526.617 373.195C525.857 373.009 525.074 372.903 524.285 372.879C523.667 372.851 523.058 372.744 522.477 372.563C521.505 372.241 520.635 371.728 519.937 371.068C519.581 370.709 519.267 370.322 518.997 369.912C520.986 368.37 524.61 368.293 527.71 369.958C531.244 371.839 532.745 375.23 531.063 377.519Z" fill="#919FA8"/>
<path d="M556.081 408.703H488.99C486.31 408.703 484.137 410.556 484.137 412.842V415.193C484.137 417.479 486.31 419.332 488.99 419.332H556.081C558.762 419.332 560.935 417.479 560.935 415.193V412.842C560.935 410.556 558.762 408.703 556.081 408.703Z" fill="#B7DBEB"/>
<path d="M560.257 414.985C559.531 414.733 558.754 414.604 557.97 414.607H493.645C491.993 414.603 490.407 415.157 489.234 416.149C488.657 416.641 488.2 417.227 487.889 417.871C487.579 418.515 487.422 419.206 487.427 419.902C487.423 420.573 487.574 421.238 487.87 421.86C486.52 421.406 485.399 420.566 484.699 419.482C483.999 418.399 483.765 417.142 484.036 415.927C484.307 414.712 485.066 413.616 486.184 412.828C487.301 412.039 488.706 411.608 490.156 411.609H554.472C555.723 411.61 556.944 411.933 557.976 412.536C559.007 413.138 559.802 413.991 560.257 414.985Z" fill="#EFF7F9"/>
<path d="M555.15 409.859H490.825C487.381 409.859 484.589 412.239 484.589 415.174C484.589 418.109 487.381 420.488 490.825 420.488H555.15C558.594 420.488 561.387 418.109 561.387 415.174C561.387 412.239 558.594 409.859 555.15 409.859Z" stroke="#3E3127" stroke-width="5" stroke-miterlimit="10"/>
</g>
<defs>
<clipPath id="clip0">
<rect width="81.6062" height="114.163" fill="white" transform="translate(482.329 308.252)"/>
</clipPath>
</defs>
</svg>
